SplineFontDB: 3.0
FontName: Sanstiefel
FullName: Sans Stiefel Regular
FamilyName: Sans Stiefel
Weight: Regular

StartChar: .notdef
Encoding: 0 0 0
Width: 565
VWidth: 530
Flags: W
HStem: -180 90<90 355> 720 90<90 355>
VStem: 0 90<-90 720> 355 90<-90 720>
LayerCount: 2
Fore
SplineSet
0 -135 m 2
 0 765 l 2
 0 777 5 789 13 797 c 0
 21 805 33 810 45 810 c 2
 400 810 l 2
 412 810 424 805 432 797 c 0
 440 789 445 777 445 765 c 2
 445 -135 l 2
 445 -147 440 -159 432 -167 c 0
 424 -175 412 -180 400 -180 c 2
 45 -180 l 2
 33 -180 21 -175 13 -167 c 0
 5 -159 0 -147 0 -135 c 2
90 -90 m 1
 355 -90 l 1
 355 720 l 1
 90 720 l 1
 90 -90 l 1
EndSplineSet
Validated: 1
EndChar

StartChar: a
Encoding: 97 97 1
Width: 465
VWidth: 1076
Flags: W
HStem: 0 21G<175 185 294 375> 495 25G<175 186.5 294.5 375>
VStem: 15 90<158 382> 255 90<158 382>
LayerCount: 2
Fore
SplineSet
15 135 m 2
 15 405 l 2
 15 419 22 433 33 441 c 2
 153 531 l 2
 161 537 170 540 180 540 c 2
 182 540 l 2
 191 540 200 536 207 531 c 2
 270 484 l 1
 278 491 289 495 300 495 c 2
 375 495 l 1
 375 405 l 1
 345 405 l 1
 345 90 l 1
 375 90 l 1
 375 0 l 1
 300 0 l 2
 288 0 277 5 268 13 c 1
 260 22 255 33 255 45 c 1
 207 9 l 2
 199 3 190 0 180 0 c 0
 170 0 161 3 153 9 c 2
 33 99 l 2
 22 107 15 121 15 135 c 2
105 158 m 1
 180 101 l 5
 255 158 l 1
 255 382 l 1
 180 439 l 1
 105 382 l 1
 105 158 l 1
EndSplineSet
Validated: 1
EndChar

StartChar: b
Encoding: 98 98 2
Width: 465
VWidth: 1076
Flags: W
HStem: -0 21G<0 81 190 200> 520 20G<190 200> 790 20G<69 150>
VStem: 30 120<720 796.622> 30 90<158 382 495 720> 270 90<158 382>
LayerCount: 2
Fore
SplineSet
0 -0 m 1xec
 0 90 l 1
 30 90 l 1xec
 30 765 l 2
 30 777 35 789 43 797 c 0
 51 805 63 810 75 810 c 2
 150 810 l 1
 150 720 l 1xf4
 120 720 l 1
 120 495 l 1
 168 531 l 2
 176 537 185 540 195 540 c 0
 205 540 214 537 222 531 c 2
 342 441 l 2
 353 433 360 419 360 405 c 2
 360 135 l 2
 360 121 353 107 342 99 c 2
 222 9 l 2
 214 3 205 0 195 -0 c 0
 185 0 176 3 168 9 c 2
 120 45 l 1
 120 33 115 21 107 13 c 0
 99 5 87 0 75 -0 c 2
 0 -0 l 1xec
120 158 m 1
 195 101 l 1
 270 158 l 1
 270 382 l 1
 195 439 l 1
 120 382 l 1
 120 158 l 1
EndSplineSet
Validated: 1
EndChar

StartChar: c
Encoding: 99 99 3
Width: 450
VWidth: 1076
Flags: W
HStem: 0 21G<175 185> 405 90<308 345> 520 20G<173.5 182.5>
VStem: 15 90<158 382>
LayerCount: 2
Fore
SplineSet
15 135 m 2
 15 405 l 2
 15 419 22 433 33 441 c 2
 153 531 l 2
 160 536 169 540 178 540 c 2
 180 540 l 2
 185 540 191 539 196 537 c 2
 308 495 l 1
 345 495 l 1
 345 405 l 1
 300 405 l 2
 295 405 289 406 284 408 c 2
 187 444 l 1
 105 382 l 1
 105 158 l 1
 180 101 l 1
 255 158 l 1
 255 180 l 1
 345 180 l 1
 345 135 l 2
 345 121 338 107 327 99 c 2
 207 9 l 2
 199 3 190 0 180 0 c 0
 170 0 161 3 153 9 c 2
 33 99 l 2
 22 107 15 121 15 135 c 2
EndSplineSet
Validated: 1
EndChar

StartChar: d
Encoding: 100 100 4
Width: 465
VWidth: 1076
Flags: W
HStem: -0 21G<190 200> 720 90<219 270>
VStem: 30 90<158 382> 270 90<158 382>
LayerCount: 2
Fore
SplineSet
30 135 m 2
 30 405 l 2
 30 419 37 433 48 441 c 2
 120 495 l 1
 48 549 l 2
 39 556 33 566 31 577 c 0
 31 579 30 583 30 585 c 0
 30 594 33 603 38 610 c 2
 158 790 l 2
 166 802 180 810 195 810 c 2
 270 810 l 1
 270 720 l 1
 219 720 l 1
 136 595 l 1
 342 441 l 2
 353 433 360 419 360 405 c 2
 360 135 l 2
 360 121 353 107 342 99 c 2
 222 9 l 2
 214 3 205 0 195 -0 c 0
 185 0 176 3 168 9 c 2
 48 99 l 2
 37 107 30 121 30 135 c 2
120 158 m 1
 195 101 l 1
 270 158 l 1
 270 382 l 1
 195 439 l 1
 120 382 l 1
 120 158 l 1
EndSplineSet
Validated: 1
EndChar

StartChar: e
Encoding: 101 101 5
Width: 450
VWidth: 1076
Flags: W
HStem: 0 21G<175 185> 520 20G<175 186.5>
VStem: 15 90<158 202 315 382>
LayerCount: 2
Fore
SplineSet
15 135 m 2
 15 405 l 2
 15 419 22 433 33 441 c 2
 153 531 l 2
 161 537 170 540 180 540 c 2
 182 540 l 2
 191 540 200 536 207 531 c 2
 327 441 l 2
 338 433 345 419 345 405 c 0
 345 391 338 377 327 369 c 2
 105 202 l 1
 105 158 l 1
 180 101 l 1
 255 158 l 1
 255 180 l 1
 345 180 l 1
 345 135 l 2
 345 121 338 107 327 99 c 2
 207 9 l 2
 199 3 190 0 180 0 c 0
 170 0 161 3 153 9 c 2
 33 99 l 2
 22 107 15 121 15 135 c 2
105 315 m 1
 225 405 l 1
 180 439 l 1
 105 382 l 1
 105 315 l 1
EndSplineSet
Validated: 1
EndChar

StartChar: f
Encoding: 102 102 6
Width: 300
VWidth: 1076
Flags: W
HStem: -180 21G<0 81> 405 90<0 30 120 240> 720 90<210 270>
VStem: 30 90<-90 405 495 652>
LayerCount: 2
Fore
SplineSet
0 -90 m 1
 30 -90 l 1
 30 405 l 1
 0 405 l 1
 0 495 l 1
 30 495 l 1
 30 675 l 2
 30 689 37 703 48 711 c 2
 168 801 l 2
 176 807 185 810 195 810 c 2
 270 810 l 1
 270 720 l 1
 210 720 l 1
 120 652 l 1
 120 495 l 1
 240 495 l 1
 240 405 l 1
 120 405 l 1
 120 -135 l 2
 120 -147 115 -159 107 -167 c 0
 99 -175 87 -180 75 -180 c 2
 0 -180 l 1
 0 -90 l 1
EndSplineSet
EndChar

StartChar: g
Encoding: 103 103 7
Width: 480
VWidth: 1076
Flags: W
HStem: -180 21G<190 200> -20 20G<30 80> -0 21G<190 200> 495 25G<190 201.5 309.5 390>
VStem: 30 90<158 382> 270 90<-22 45 158 382>
LayerCount: 2
Fore
SplineSet
30 -0 m 1xdc
 75 -0 l 2xdc
 85 0 94 -3 102 -9 c 2
 195 -79 l 1
 270 -22 l 1
 270 45 l 1
 222 9 l 2
 214 3 205 0 195 -0 c 0xbc
 185 0 176 3 168 9 c 2
 48 99 l 2
 37 107 30 121 30 135 c 2
 30 405 l 2
 30 419 37 433 48 441 c 2
 168 531 l 2
 176 537 185 540 195 540 c 6
 197 540 l 6
 206 540 215 536 222 531 c 2
 285 484 l 1
 293 491 304 495 315 495 c 2
 390 495 l 1
 390 405 l 1
 360 405 l 1
 360 255 360 105 360 -45 c 0
 360 -59 353 -73 342 -81 c 2
 222 -171 l 2
 214 -177 205 -180 195 -180 c 0
 185 -180 176 -177 168 -171 c 2
 60 -90 l 1
 30 -90 l 1
 30 -0 l 1xdc
120 158 m 1
 195 101 l 1
 270 158 l 1
 270 382 l 1
 195 439 l 1
 120 382 l 1
 120 158 l 1
EndSplineSet
Validated: 1
EndChar

StartChar: h
Encoding: 104 104 8
Width: 465
VWidth: 1076
Flags: W
HStem: -180 21G<147 201.5> -0 21G<0 81> 520 20G<190 200> 790 20G<69 150>
VStem: 30 120<720 796.622> 30 90<90 382 495 720> 270 90<31 382>
LayerCount: 2
Fore
SplineSet
0 -0 m 1xf6
 0 90 l 1
 30 90 l 1xf6
 30 765 l 2
 30 777 35 789 43 797 c 0
 51 805 63 810 75 810 c 2
 150 810 l 1
 150 720 l 1xfa
 120 720 l 1
 120 495 l 1
 168 531 l 2
 176 537 185 540 195 540 c 0
 205 540 214 537 222 531 c 2
 342 441 l 2
 353 433 360 419 360 405 c 2
 360 15 l 2
 360 5 356 -5 350 -13 c 2
 230 -163 l 2
 222 -173 208 -180 195 -180 c 2
 147 -180 l 1
 147 -90 l 1
 173 -90 l 1
 270 31 l 1
 270 382 l 1
 195 439 l 1
 120 382 l 1
 120 45 l 2
 120 33 115 21 107 13 c 0
 99 5 87 0 75 -0 c 2
 0 -0 l 1xf6
EndSplineSet
Validated: 1
EndChar

StartChar: i
Encoding: 105 105 9
Width: 240
VWidth: 1076
Flags: W
HStem: -0 21G<69 150> 475 20G<0 81> 570 120<30 120>
VStem: 0 120<405 481.622> 30 90<90 405 570 690>
LayerCount: 2
Fore
SplineSet
0 405 m 1xf0
 0 495 l 1
 75 495 l 2
 87 495 99 490 107 482 c 0
 115 474 120 462 120 450 c 2xf0
 120 90 l 1
 150 90 l 1
 150 -0 l 1
 75 -0 l 2
 63 0 51 5 43 13 c 0
 35 21 30 33 30 45 c 2
 30 405 l 1xe8
 0 405 l 1xf0
30 570 m 1xe8
 30 690 l 1
 120 690 l 1
 120 570 l 1
 30 570 l 1xe8
EndSplineSet
Validated: 1
EndChar

StartChar: j
Encoding: 106 106 10
Width: 240
VWidth: 1076
Flags: W
HStem: -180 90<-60 30> 475 20G<0 81> 570 120<30 120>
VStem: 0 120<405 481.622> 30 90<-90 405 570 690>
LayerCount: 2
Fore
SplineSet
-60 -90 m 1xe8
 30 -90 l 1
 30 405 l 1xe8
 0 405 l 1
 0 495 l 1
 75 495 l 2
 87 495 99 490 107 482 c 0
 115 474 120 462 120 450 c 2xf0
 120 -135 l 2
 120 -147 115 -159 107 -167 c 0
 99 -175 87 -180 75 -180 c 2
 -60 -180 l 1
 -60 -90 l 1xe8
30 570 m 1
 30 690 l 1
 120 690 l 1
 120 570 l 1
 30 570 l 1
EndSplineSet
Validated: 1
EndChar

StartChar: k
Encoding: 107 107 11
Width: 450
VWidth: 1076
Flags: W
HStem: -0 21G<190 240> 405 90<0 30 210 360> 790 20G<0 81>
VStem: 0 120<720 796.622> 30 90<158 405 540 608>
LayerCount: 2
Fore
SplineSet
0 405 m 1xf0
 0 495 l 1xf0
 30 495 l 1
 30 720 l 1xe8
 0 720 l 1
 0 810 l 1
 75 810 l 2
 87 810 99 805 107 797 c 0
 115 789 120 777 120 765 c 2
 120 720 l 1xf0
 168 756 l 2
 176 762 185 765 195 765 c 0
 205 765 214 762 222 756 c 2
 342 666 l 2
 353 658 360 644 360 630 c 0
 360 616 353 602 342 594 c 2
 210 495 l 1
 360 495 l 1
 360 405 l 1
 120 405 l 1
 120 158 l 1
 210 90 l 1
 240 90 l 1
 240 -0 l 1
 195 -0 l 2
 185 0 176 3 168 9 c 2
 48 99 l 2
 37 107 30 121 30 135 c 2
 30 405 l 1xe8
 0 405 l 1xf0
120 540 m 1xe8
 240 630 l 1
 195 664 l 1
 120 608 l 1
 120 540 l 1xe8
EndSplineSet
Validated: 1
EndChar

StartChar: l
Encoding: 108 108 12
Width: 240
VWidth: 1076
Flags: W
HStem: -0 21G<0 81> 790 20G<69 150>
VStem: 30 120<720 796.622>
LayerCount: 2
Fore
SplineSet
0 -0 m 1
 0 90 l 1
 30 90 l 1
 30 765 l 2
 30 777 35 789 43 797 c 0
 51 805 63 810 75 810 c 2
 150 810 l 1
 150 720 l 1
 120 720 l 1
 120 45 l 2
 120 33 115 21 107 13 c 0
 99 5 87 0 75 -0 c 2
 0 -0 l 1
EndSplineSet
Validated: 1
EndChar

StartChar: m
Encoding: 109 109 13
Width: 720
VWidth: 1076
Flags: W
HStem: -0 90<120 150 360 390 600 630> 475 65G<0 80.5 190 201.5 430 440>
VStem: 30 90<90 382> 270 90<90 382> 510 90<90 382>
CounterMasks: 1 38
LayerCount: 2
Fore
SplineSet
0 405 m 1
 0 495 l 1
 75 495 l 2
 86 495 97 491 105 484 c 1
 168 531 l 2
 176 537 185 540 195 540 c 2
 197 540 l 2
 206 540 215 536 222 531 c 2
 315 461 l 1
 408 531 l 2
 416 537 425 540 435 540 c 0
 445 540 454 537 462 531 c 2
 582 441 l 2
 593 433 600 419 600 405 c 2
 600 90 l 1
 630 90 l 1
 630 -0 l 1
 555 -0 l 2
 543 0 531 5 523 13 c 0
 515 21 510 33 510 45 c 2
 510 382 l 1
 435 439 l 1
 360 382 l 1
 360 90 l 1
 390 90 l 1
 390 -0 l 1
 315 -0 l 2
 303 0 291 5 283 13 c 0
 275 21 270 33 270 45 c 2
 270 382 l 1
 195 439 l 1
 120 382 l 1
 120 90 l 1
 150 90 l 1
 150 -0 l 1
 75 -0 l 2
 63 0 51 5 43 13 c 0
 35 21 30 33 30 45 c 2
 30 405 l 1
 0 405 l 1
EndSplineSet
Validated: 1
EndChar

StartChar: n
Encoding: 110 110 14
Width: 480
VWidth: 1076
Flags: W
HStem: -0 90<120 150 360 390> 475 20G<0 80.5 190 201.5>
VStem: 30 90<90 382> 270 90<90 382>
LayerCount: 2
Fore
SplineSet
0 405 m 1
 0 495 l 1
 75 495 l 2
 86 495 97 491 105 484 c 1
 168 531 l 2
 176 537 185 540 195 540 c 2
 197 540 l 2
 206 540 215 536 222 531 c 2
 342 441 l 2
 353 433 360 419 360 405 c 2
 360 90 l 1
 390 90 l 1
 390 -0 l 1
 315 -0 l 2
 303 0 291 5 283 13 c 0
 275 21 270 33 270 45 c 2
 270 382 l 1
 195 439 l 1
 120 382 l 1
 120 90 l 1
 150 90 l 1
 150 -0 l 1
 75 -0 l 2
 63 0 51 5 43 13 c 0
 35 21 30 33 30 45 c 2
 30 405 l 1
 0 405 l 1
EndSplineSet
Validated: 1
EndChar

StartChar: o
Encoding: 111 111 15
Width: 450
VWidth: 1076
Flags: W
HStem: 0 21G<175 185> 520 20G<175 186.5>
VStem: 15 90<158 382> 255 90<158 382>
LayerCount: 2
Fore
SplineSet
15 135 m 2
 15 405 l 2
 15 419 22 433 33 441 c 2
 153 531 l 2
 161 537 170 540 180 540 c 2
 182 540 l 2
 191 540 200 536 207 531 c 2
 327 441 l 2
 338 433 345 419 345 405 c 2
 345 135 l 2
 345 121 338 107 327 99 c 2
 207 9 l 2
 199 3 190 0 180 0 c 0
 170 0 161 3 153 9 c 2
 33 99 l 2
 22 107 15 121 15 135 c 2
105 158 m 1
 180 101 l 1
 255 158 l 1
 255 382 l 1
 180 439 l 5
 105 382 l 1
 105 158 l 1
EndSplineSet
Validated: 1
EndChar

StartChar: p
Encoding: 112 112 16
Width: 465
VWidth: 1076
Flags: W
HStem: -180 21G<0 81> -0 21G<190 200> 475 20G<0 80.5 190 201.5>
VStem: 30 90<-90 45 158 382> 270 90<158 382>
LayerCount: 2
Fore
SplineSet
0 -90 m 1
 30 -90 l 1
 30 405 l 1
 0 405 l 1
 0 495 l 1
 75 495 l 2
 86 495 97 491 105 484 c 1
 168 531 l 2
 176 537 185 540 195 540 c 2
 197 540 l 2
 206 540 215 536 222 531 c 2
 342 441 l 2
 353 433 360 419 360 405 c 2
 360 135 l 2
 360 121 353 107 342 99 c 2
 222 9 l 2
 214 3 205 0 195 -0 c 0
 185 0 176 3 168 9 c 2
 120 45 l 1
 120 -135 l 2
 120 -147 115 -159 107 -167 c 0
 99 -175 87 -180 75 -180 c 2
 0 -180 l 1
 0 -90 l 1
120 158 m 1
 195 101 l 1
 270 158 l 1
 270 382 l 1
 195 439 l 1
 120 382 l 1
 120 158 l 1
EndSplineSet
Validated: 1
EndChar

StartChar: q
Encoding: 113 113 17
Width: 465
VWidth: 1076
Flags: W
HStem: -180 21G<294 375> 0 21G<175 185> 495 25G<175 186.5 294.5 375>
VStem: 15 90<158 382> 255 90<-90 45 158 382>
LayerCount: 2
Fore
SplineSet
15 135 m 2
 15 405 l 2
 15 419 22 433 33 441 c 2
 153 531 l 2
 161 537 170 540 180 540 c 2
 182 540 l 2
 191 540 200 536 207 531 c 2
 270 484 l 1
 278 491 289 495 300 495 c 2
 375 495 l 1
 375 405 l 1
 345 405 l 1
 345 404 l 1
 345 -90 l 1
 375 -90 l 1
 375 -180 l 1
 300 -180 l 2
 288 -180 276 -175 268 -167 c 0
 260 -159 255 -147 255 -135 c 2
 255 45 l 1
 207 9 l 2
 199 3 190 0 180 0 c 0
 170 0 161 3 153 9 c 2
 33 99 l 2
 22 107 15 121 15 135 c 2
105 158 m 1
 180 101 l 1
 255 158 l 1
 255 382 l 1
 180 439 l 1
 105 382 l 1
 105 158 l 1
EndSplineSet
Validated: 1
EndChar

StartChar: r
Encoding: 114 114 18
Width: 420
VWidth: 1076
Flags: W
HStem: -0 90<0 30 197 225> 405 90<0 30 294 330> 520 20G<174.5 183>
VStem: 30 90<156 384>
LayerCount: 2
Fore
SplineSet
0 -0 m 1
 0 90 l 1
 30 90 l 1
 30 405 l 1
 0 405 l 1
 0 495 l 1
 75 495 l 2
 84 495 93 492 101 487 c 1
 151 529 l 2
 159 536 169 540 180 540 c 0
 186 540 192 538 198 536 c 2
 294 495 l 1
 330 495 l 1
 330 405 l 1
 285 405 l 2
 279 405 273 407 267 409 c 2
 188 443 l 1
 120 384 l 1
 120 156 l 1
 197 90 l 1
 225 90 l 1
 225 -0 l 1
 180 -0 l 2
 169 0 159 4 151 11 c 2
 119 38 l 1
 117 28 112 18 104 11 c 0
 96 4 86 0 75 -0 c 2
 0 -0 l 1
EndSplineSet
Validated: 1
EndChar

StartChar: rrot
Encoding: 42843 42843 19
Width: 345
VWidth: 1076
Flags: W
HStem: -0 90<0 44 197 225> 405 90<0 55>
VStem: 0 225<-53 0>
LayerCount: 2
Fore
SplineSet
0 -0 m 1
 0 90 l 1
 44 90 l 1
 129 320 l 1
 55 405 l 1
 0 405 l 1
 0 495 l 1
 75 495 l 2
 88 495 100 489 109 480 c 2
 214 360 l 2
 219 354 223 346 224 338 c 0
 225 335 225 333 225 330 c 0
 225 325 224 319 222 314 c 2
 153 127 l 1
 197 90 l 1
 225 90 l 1
 225 -0 l 1
 180 -0 l 2
 169 0 159 4 151 11 c 2
 120 37 l 1
 117 29 l 2
 114 21 108 13 101 8 c 0
 93 3 84 0 75 -0 c 2
 0 -0 l 1
EndSplineSet
Validated: 1
EndChar

StartChar: longs
Encoding: 383 383 20
Width: 240
VWidth: 1076
Flags: W
HStem: -180 21G<0 81> 720 90<210 270>
VStem: 0 120<-166.622 -90 405 495> 30 90<-90 405 495 652>
LayerCount: 2
Fore
SplineSet
0 -90 m 1xe0
 30 -90 l 1
 30 405 l 1xd0
 0 405 l 1
 0 495 l 1xe0
 30 495 l 1
 30 675 l 2
 30 689 37 703 48 711 c 2
 168 801 l 2
 176 807 185 810 195 810 c 2
 270 810 l 1
 270 720 l 1
 210 720 l 1
 120 652 l 1xd0
 120 -135 l 2
 120 -147 115 -159 107 -167 c 0
 99 -175 87 -180 75 -180 c 2
 0 -180 l 1
 0 -90 l 1xe0
EndSplineSet
Validated: 1
Substitution2: "longs zu longs.short-1" longs.short
EndChar

StartChar: s
Encoding: 115 115 21
Width: 450
VWidth: 1076
Flags: W
HStem: 0 21G<177.5 189.5> 45 90<15 52> 405 90<308 345> 520 20G<173.5 182.5>
VStem: 15 90<306 382> 255 90<158 234>
LayerCount: 2
Fore
SplineSet
15 45 m 1
 15 135 l 1
 60 135 l 2
 65 135 71 134 76 132 c 2
 173 96 l 1
 255 158 l 1
 255 234 l 1
 66 210 l 2
 64 210 62 210 60 210 c 0
 49 210 38 214 30 221 c 0
 20 229 15 242 15 255 c 2
 15 405 l 2
 15 419 22 433 33 441 c 2
 153 531 l 2
 160 536 169 540 178 540 c 2
 180 540 l 2
 185 540 191 539 196 537 c 2
 308 495 l 1
 345 495 l 1
 345 405 l 1
 300 405 l 2
 295 405 289 406 284 408 c 2
 187 444 l 1
 105 382 l 1
 105 306 l 1
 294 330 l 2
 296 330 298 330 300 330 c 0
 311 330 322 326 330 319 c 0
 340 311 345 298 345 285 c 2
 345 135 l 2
 345 121 338 107 327 99 c 2
 207 9 l 2
 201 4 193 1 186 0 c 0
 184 0 182 0 180 0 c 0
 175 0 169 1 164 3 c 2
 52 45 l 1
 15 45 l 1
EndSplineSet
Validated: 1
EndChar

StartChar: t
Encoding: 116 116 22
Width: 330
VWidth: 1076
Flags: W
HStem: -0 21G<190 240> 405 90<0 30 120 240> 700 20G<69 150>
VStem: 30 120<630 706.622> 30 90<158 405 495 630>
LayerCount: 2
Fore
SplineSet
0 405 m 1xe8
 0 495 l 1
 30 495 l 1xe8
 30 675 l 2
 30 687 35 699 43 707 c 0
 51 715 63 720 75 720 c 2
 150 720 l 1
 150 630 l 1xf0
 120 630 l 1
 120 495 l 1
 240 495 l 1
 240 405 l 1
 120 405 l 1
 120 158 l 1
 210 90 l 1
 240 90 l 1
 240 -0 l 1
 195 -0 l 2
 185 0 176 3 168 9 c 2
 48 99 l 2
 37 107 30 121 30 135 c 2
 30 405 l 1
 0 405 l 1xe8
EndSplineSet
Validated: 1
EndChar

StartChar: u
Encoding: 117 117 23
Width: 480
VWidth: 1076
Flags: W
HStem: -0 21G<190 200 309 390> 405 90<0 30 240 270>
VStem: 0 120<405 481.622> 30 90<158 405> 240 120<405 481.622> 270 90<158 405>
LayerCount: 2
Fore
SplineSet
0 405 m 1xe0
 0 495 l 1
 75 495 l 2
 87 495 99 490 107 482 c 0
 115 474 120 462 120 450 c 6xe0
 120 158 l 1
 195 101 l 1
 270 158 l 1
 270 405 l 1xd4
 240 405 l 1
 240 495 l 1
 315 495 l 2
 327 495 339 490 347 482 c 0
 355 474 360 462 360 450 c 2xc8
 360 90 l 1
 390 90 l 1
 390 -0 l 1
 315 -0 l 2
 303 0 291 5 283 13 c 0
 275 21 270 33 270 45 c 1
 222 9 l 2
 214 3 205 0 195 -0 c 0
 185 0 176 3 168 9 c 2
 48 99 l 2
 37 107 30 121 30 135 c 2
 30 405 l 1xd4
 0 405 l 1xe0
EndSplineSet
Validated: 1
EndChar

StartChar: v
Encoding: 118 118 24
Width: 465
VWidth: 1076
Flags: W
HStem: -0 21G<190 200> 405 90<0 30 240 270>
VStem: 0 120<405 481.622> 30 90<158 405> 240 120<405 481.622> 270 90<158 405>
LayerCount: 2
Fore
SplineSet
0 405 m 1xe0
 0 495 l 1
 75 495 l 2
 87 495 99 490 107 482 c 0
 115 474 120 462 120 450 c 2xe0
 120 158 l 1
 195 101 l 1
 270 158 l 1
 270 405 l 1xd4
 240 405 l 1
 240 495 l 1
 315 495 l 2
 327 495 339 490 347 482 c 0
 355 474 360 462 360 450 c 2xc8
 360 135 l 2
 360 121 353 107 342 99 c 2
 222 9 l 2
 214 3 205 0 195 -0 c 0
 185 0 176 3 168 9 c 2
 48 99 l 2
 37 107 30 121 30 135 c 2
 30 405 l 1xd4
 0 405 l 1xe0
EndSplineSet
Validated: 1
EndChar

StartChar: w
Encoding: 119 119 25
Width: 705
VWidth: 1076
Flags: W
HStem: -0 21G<190 200 430 440> 405 90<0 30 240 270 480 510>
VStem: 0 120<405 481.622> 30 90<158 405> 240 120<405 481.622> 270 90<158 405> 480 120<405 481.622> 510 90<158 405>
LayerCount: 2
Fore
SplineSet
0 405 m 1xe0
 0 495 l 1
 75 495 l 2
 87 495 99 490 107 482 c 0
 115 474 120 462 120 450 c 2xe0
 120 158 l 1
 195 101 l 1
 270 158 l 1
 270 405 l 1xd4
 240 405 l 1
 240 495 l 1
 315 495 l 2
 327 495 339 490 347 482 c 0
 355 474 360 462 360 450 c 2xc8
 360 158 l 1
 435 101 l 1
 510 158 l 1
 510 405 l 1xc5
 480 405 l 1
 480 495 l 1
 555 495 l 2
 567 495 579 490 587 482 c 0
 595 474 600 462 600 450 c 2xc2
 600 135 l 2
 600 121 593 107 582 99 c 2
 462 9 l 2
 454 3 445 0 435 -0 c 0
 425 0 416 3 408 9 c 2
 315 79 l 1
 222 9 l 2
 214 3 205 0 195 -0 c 0
 185 0 176 3 168 9 c 2
 48 99 l 2
 37 107 30 121 30 135 c 2
 30 405 l 1xd1
 0 405 l 1xe0
EndSplineSet
Validated: 1
EndChar

StartChar: x
Encoding: 120 120 26
Width: 480
VWidth: 1076
Flags: W
HStem: -0 90<0 60 330 390> 202 90<30 150 240 360> 405 90<0 60 330 390>
VStem: 150 90<158 202 292 338>
LayerCount: 2
Fore
SplineSet
0 -0 m 1
 0 90 l 1
 60 90 l 1
 150 158 l 1
 150 202 l 1
 30 202 l 1
 30 292 l 1
 150 292 l 1
 150 338 l 1
 60 405 l 1
 0 405 l 1
 0 495 l 1
 75 495 l 2
 85 495 94 492 102 486 c 2
 195 416 l 1
 288 486 l 2
 296 492 305 495 315 495 c 2
 390 495 l 1
 390 405 l 1
 330 405 l 1
 240 338 l 1
 240 292 l 1
 360 292 l 1
 360 202 l 1
 240 202 l 1
 240 158 l 1
 330 90 l 1
 390 90 l 1
 390 -0 l 1
 315 -0 l 2
 305 0 296 3 288 9 c 2
 195 79 l 1
 102 9 l 2
 94 3 85 0 75 -0 c 2
 0 -0 l 1
EndSplineSet
Validated: 1
EndChar

StartChar: y
Encoding: 121 121 27
Width: 480
VWidth: 1076
Flags: W
HStem: -180 21G<190 200> -20 20G<30 80> -0 21G<190 200> 405 90<0 30 240 270>
VStem: 0 120<405 481.622> 30 90<158 405> 240 120<405 481.622> 270 90<-22 45 158 405>
LayerCount: 2
Fore
SplineSet
0 405 m 1xb8
 0 495 l 1
 75 495 l 2
 87 495 99 490 107 482 c 0
 115 474 120 462 120 450 c 2xb8
 120 158 l 1
 195 101 l 1
 270 158 l 1
 270 405 l 1xb5
 240 405 l 1
 240 495 l 1
 315 495 l 2
 327 495 339 490 347 482 c 0
 355 474 360 462 360 450 c 2xb2
 360 -45 l 2
 360 -59 353 -73 342 -81 c 2
 222 -171 l 2
 214 -177 205 -180 195 -180 c 0
 185 -180 176 -177 168 -171 c 2
 60 -90 l 1
 30 -90 l 1
 30 -0 l 1
 75 -0 l 2xd5
 85 0 94 -3 102 -9 c 2
 195 -79 l 1
 270 -22 l 1
 270 45 l 1
 222 9 l 2
 214 3 205 0 195 -0 c 0
 185 0 176 3 168 9 c 2
 48 99 l 2
 37 107 30 121 30 135 c 2
 30 405 l 1xb5
 0 405 l 1xb8
EndSplineSet
Validated: 1
EndChar

StartChar: z
Encoding: 122 122 28
Width: 360
VWidth: 1076
Flags: W
HStem: -180 21G<96.5 110> 405 90<0 90>
VStem: 180 90<-22 112>
LayerCount: 2
Fore
SplineSet
0 -30 m 1
 45 -30 l 2
 57 -30 69 -35 77 -43 c 2
 109 -76 l 1
 180 -22 l 1
 180 112 l 1
 78 189 l 2
 67 197 60 210 60 225 c 0
 60 236 64 247 71 255 c 2
 159 353 l 1
 90 405 l 1
 0 405 l 1
 0 495 l 1
 105 495 l 2
 115 495 124 492 132 486 c 2
 252 396 l 2
 263 388 270 375 270 360 c 0
 270 349 266 338 259 330 c 2
 171 232 l 1
 252 171 l 2
 263 163 270 149 270 135 c 2
 270 -45 l 2
 270 -59 263 -73 252 -81 c 2
 132 -171 l 2
 124 -177 115 -180 105 -180 c 0
 104 -180 103 -180 102 -180 c 0
 91 -179 81 -175 73 -167 c 2
 26 -120 l 1
 0 -120 l 1
 0 -30 l 1
EndSplineSet
Validated: 1
EndChar

StartChar: eszett
Encoding: 223 223 29
Width: 510
VWidth: 1076
Flags: W
HStem: -180 21G<0 81 250 260> 520 20G<192 201.5> 720 90<210 270>
VStem: 0 120<-166.622 -90> 30 90<22 382 495 652> 330 90<-22 112>
LayerCount: 2
Fore
SplineSet
0 -90 m 1xf4
 30 -90 l 1
 30 405 l 1xec
 0 405 l 1
 0 495 l 1xf4
 30 495 l 1
 30 675 l 2
 30 689 37 703 48 711 c 2
 168 801 l 2
 176 807 185 810 195 810 c 2
 270 810 l 1
 270 720 l 1
 210 720 l 1
 120 652 l 1
 120 495 l 1xec
 168 531 l 2
 176 537 187 540 197 540 c 0
 206 540 215 536 222 531 c 2
 402 396 l 2
 413 388 420 375 420 360 c 0
 420 349 416 338 409 330 c 2
 321 232 l 1
 402 171 l 2
 413 163 420 149 420 135 c 2
 420 -45 l 2
 420 -59 413 -73 402 -81 c 2
 282 -171 l 2
 274 -177 265 -180 255 -180 c 0
 245 -180 236 -177 228 -171 c 2
 120 -90 l 1
 120 -135 l 2
 120 -147 115 -159 107 -167 c 0
 99 -175 87 -180 75 -180 c 2
 0 -180 l 1
 0 -90 l 1xf4
120 22 m 1
 255 -79 l 1
 330 -22 l 1
 330 112 l 1
 228 189 l 2
 217 197 210 210 210 225 c 0
 210 236 214 247 221 255 c 2
 309 353 l 1
 195 439 l 1
 120 382 l 1
 120 22 l 1
EndSplineSet
Validated: 1
EndChar

StartChar: t_z
Encoding: 57418 57418 30
Width: 510
VWidth: 1076
Flags: W
HStem: -180 21G<210 260> -0 90<210 243> 405 90<0 30 120 240> 700 20G<69 150>
VStem: 30 120<630 706.622> 30 90<158 405 495 630> 330 90<-22 112>
LayerCount: 2
Fore
SplineSet
0 405 m 1xf6
 0 495 l 1
 30 495 l 1xf6
 30 675 l 2
 30 687 35 699 43 707 c 0
 51 715 63 720 75 720 c 2
 150 720 l 1
 150 630 l 1xfa
 120 630 l 1
 120 495 l 1
 255 495 l 2
 265 495 274 492 282 486 c 2
 402 396 l 2
 413 388 420 375 420 360 c 0
 420 349 416 338 409 330 c 2
 321 232 l 1
 402 171 l 2
 413 163 420 149 420 135 c 2
 420 -45 l 2
 420 -59 413 -73 402 -81 c 2
 282 -171 l 2
 274 -177 265 -180 255 -180 c 2
 210 -180 l 1
 210 -90 l 1
 240 -90 l 1
 330 -22 l 1
 330 112 l 1
 228 189 l 2
 217 197 210 210 210 225 c 0
 210 236 214 247 221 255 c 2
 309 353 l 1
 240 405 l 1
 120 405 l 1
 120 158 l 1
 210 90 l 1
 243 90 l 1
 243 -0 l 1
 195 -0 l 2
 185 0 176 3 168 9 c 2
 48 99 l 2
 37 107 30 121 30 135 c 2
 30 405 l 1
 0 405 l 1xf6
EndSplineSet
Validated: 1
Ligature2: "'liga' Standard Ligatures lookup 1-1" t z
LCarets2: 1 210 
EndChar

StartChar: dotlessi
Encoding: 305 305 31
Width: 240
VWidth: 1076
Flags: W
HStem: -0 21G<69 150> 475 20G<0 81>
VStem: 0 120<405 481.622>
LayerCount: 2
Fore
SplineSet
0 405 m 1
 0 495 l 1
 75 495 l 2
 87 495 99 490 107 482 c 0
 115 474 120 462 120 450 c 2
 120 90 l 1
 150 90 l 1
 150 -0 l 1
 75 -0 l 2
 63 0 51 5 43 13 c 0
 35 21 30 33 30 45 c 2
 30 405 l 1
 0 405 l 1
EndSplineSet
Validated: 1
EndChar

StartChar: thorn
Encoding: 254 254 32
Width: 465
VWidth: 1076
Flags: W
HStem: -180 21G<0 81> -0 21G<190 200> 520 20G<190 200> 790 20G<69 150>
VStem: 30 120<720 796.622> 30 90<-90 45 158 382 495 720> 270 90<158 382>
LayerCount: 2
Fore
SplineSet
0 -90 m 1xf6
 30 -90 l 1xf6
 30 765 l 2
 30 777 35 789 43 797 c 0
 51 805 63 810 75 810 c 2
 150 810 l 1
 150 720 l 1xfa
 120 720 l 1
 120 495 l 1
 168 531 l 2
 176 537 185 540 195 540 c 0
 205 540 214 537 222 531 c 2
 342 441 l 2
 353 433 360 419 360 405 c 2
 360 135 l 2
 360 121 353 107 342 99 c 2
 222 9 l 2
 214 3 205 0 195 -0 c 0
 185 0 176 3 168 9 c 2
 120 45 l 1
 120 -135 l 2
 120 -147 115 -159 107 -167 c 0
 99 -175 87 -180 75 -180 c 2
 0 -180 l 1
 0 -90 l 1xf6
120 158 m 1
 195 101 l 1
 270 158 l 1
 270 382 l 1
 195 439 l 1
 120 382 l 1
 120 158 l 1
EndSplineSet
Validated: 1
EndChar

StartChar: ae
Encoding: 230 230 33
Width: 690
VWidth: 1076
Flags: W
HStem: 0 90<345 405> 520 20G<175 186.5 417.5 429.5>
VStem: 15 90<158 382> 255 90<158 202 315 382>
LayerCount: 2
Fore
SplineSet
15 135 m 2
 15 405 l 2
 15 419 22 433 33 441 c 2
 153 531 l 2
 161 537 170 540 180 540 c 2
 182 540 l 2
 191 540 200 536 207 531 c 2
 270 484 l 1
 274 488 279 490 284 492 c 2
 404 537 l 2
 409 539 415 540 420 540 c 0
 422 540 424 540 426 540 c 0
 433 539 441 536 447 531 c 2
 567 441 l 2
 578 433 585 419 585 405 c 0
 585 391 578 377 567 369 c 2
 345 202 l 1
 345 90 l 1
 405 90 l 1
 495 158 l 1
 495 180 l 1
 585 180 l 1
 585 135 l 2
 585 121 578 107 567 99 c 2
 447 9 l 2
 439 3 430 0 420 0 c 2
 300 0 l 2
 288 0 276 5 268 13 c 0
 260 21 255 33 255 45 c 1
 207 9 l 2
 199 3 190 0 180 0 c 0
 170 0 161 3 153 9 c 2
 33 99 l 2
 22 107 15 121 15 135 c 2
105 158 m 1
 180 101 l 1
 255 158 l 1
 255 382 l 1
 180 439 l 1
 105 382 l 1
 105 158 l 1
345 315 m 1
 465 405 l 1
 413 444 l 1
 345 419 l 1
 345 315 l 1
EndSplineSet
Validated: 1
EndChar

StartChar: oe
Encoding: 339 339 34
Width: 690
VWidth: 1076
Flags: W
HStem: 0 21G<175 185 415 425> 520 20G<175 186.5 415 425>
VStem: 15 90<158 382> 255 90<158 202 315 382>
LayerCount: 2
Fore
SplineSet
15 135 m 2
 15 405 l 2
 15 419 22 433 33 441 c 2
 153 531 l 2
 161 537 170 540 180 540 c 2
 182 540 l 2
 191 540 200 536 207 531 c 2
 300 461 l 1
 393 531 l 2
 401 537 410 540 420 540 c 0
 430 540 439 537 447 531 c 2
 567 441 l 2
 578 433 585 419 585 405 c 0
 585 391 578 377 567 369 c 2
 345 202 l 1
 345 158 l 1
 420 101 l 1
 495 158 l 1
 495 180 l 1
 585 180 l 1
 585 135 l 2
 585 121 578 107 567 99 c 2
 447 9 l 2
 439 3 430 0 420 0 c 0
 410 0 401 3 393 9 c 2
 300 79 l 1
 207 9 l 2
 199 3 190 0 180 0 c 0
 170 0 161 3 153 9 c 2
 33 99 l 2
 22 107 15 121 15 135 c 2
105 158 m 1
 180 101 l 1
 255 158 l 1
 255 382 l 1
 180 439 l 1
 105 382 l 1
 105 158 l 1
345 315 m 1
 465 405 l 1
 420 439 l 1
 345 382 l 1
 345 315 l 1
EndSplineSet
Validated: 1
EndChar

StartChar: eth
Encoding: 240 240 35
Width: 465
VWidth: 1076
Flags: W
HStem: -0 21G<190 200> 790 20G<218.5 270>
VStem: 30 90<158 382> 270 90<158 382>
LayerCount: 2
Fore
SplineSet
30 135 m 2
 30 405 l 2
 30 419 37 433 48 441 c 2
 120 495 l 1
 48 549 l 2
 38 556 31 568 30 580 c 1
 30 585 l 2
 30 595 33 606 40 614 c 2
 95 679 l 1
 60 705 l 1
 30 705 l 1
 30 795 l 1
 75 795 l 2
 85 795 94 792 102 786 c 2
 152 748 l 1
 190 794 l 2
 198 804 212 810 225 810 c 2
 270 810 l 1
 270 720 l 1
 246 720 l 1
 224 694 l 1
 240 682 l 1
 270 682 l 1
 270 592 l 1
 225 592 l 2
 215 592 206 596 198 602 c 2
 167 625 l 1
 140 593 l 1
 342 441 l 2
 353 433 360 419 360 405 c 2
 360 135 l 2
 360 121 353 107 342 99 c 2
 222 9 l 2
 214 3 205 0 195 -0 c 0
 185 0 176 3 168 9 c 2
 48 99 l 2
 37 107 30 121 30 135 c 2
120 158 m 1
 195 101 l 1
 270 158 l 1
 270 382 l 1
 195 439 l 1
 120 382 l 1
 120 158 l 1
EndSplineSet
Validated: 1
EndChar

StartChar: ij
Encoding: 307 307 36
Width: 480
VWidth: 1076
Flags: W
HStem: -180 90<180 270> -0 90<120 180> 405 90<0 30 240 270> 570 120<30 120 270 360>
VStem: 0 120<405 481.622> 30 90<90 405 570 690> 240 120<405 481.622> 270 90<-90 45 158 405 570 690>
LayerCount: 2
Fore
SplineSet
0 405 m 1xf8
 0 495 l 1
 75 495 l 2
 87 495 99 490 107 482 c 0
 115 474 120 462 120 450 c 2xf8
 120 90 l 1
 180 90 l 1
 270 158 l 1
 270 405 l 1xf5
 240 405 l 1
 240 495 l 1
 315 495 l 2
 327 495 339 490 347 482 c 0
 355 474 360 462 360 450 c 2xf2
 360 -135 l 2
 360 -147 355 -159 347 -167 c 0
 339 -175 327 -180 315 -180 c 2
 180 -180 l 1
 180 -90 l 1
 270 -90 l 1
 270 45 l 1
 222 9 l 2
 214 3 205 0 195 -0 c 2
 75 -0 l 2
 63 0 51 5 43 13 c 0
 35 21 30 33 30 45 c 2
 30 405 l 1xf5
 0 405 l 1xf8
30 570 m 1xf4
 30 690 l 1
 120 690 l 1
 120 570 l 1
 30 570 l 1xf4
270 570 m 1xf1
 270 690 l 1
 360 690 l 1
 360 570 l 1
 270 570 l 1xf1
EndSplineSet
Validated: 1
EndChar

StartChar: f_f
Encoding: 64256 64256 37
Width: 540
VWidth: 531
Flags: W
HStem: -180 90<0 30 240 270> 405 90<0 30 120 270 360 480> 720 90<450 510>
VStem: 30 90<-90 405 495 622> 270 90<-90 405 495 647>
LayerCount: 2
Fore
SplineSet
0 -90 m 1
 30 -90 l 1
 30 405 l 1
 0 405 l 1
 0 495 l 1
 30 495 l 1
 30 645 l 2
 30 659 37 673 48 681 c 2
 168 771 l 2
 175 776 183 779 191 780 c 0
 199 781 208 779 215 775 c 2
 310 728 l 1
 408 801 l 2
 416 807 425 810 435 810 c 2
 510 810 l 1
 510 720 l 1
 450 720 l 1
 360 652 l 1
 360 495 l 1
 480 495 l 1
 480 405 l 1
 360 405 l 1
 360 -135 l 2
 360 -147 355 -159 347 -167 c 0
 339 -175 327 -180 315 -180 c 2
 240 -180 l 1
 240 -90 l 1
 270 -90 l 1
 270 405 l 1
 120 405 l 1
 120 -135 l 2
 120 -147 115 -159 107 -167 c 0
 99 -175 87 -180 75 -180 c 2
 0 -180 l 1
 0 -90 l 1
120 495 m 1
 270 495 l 1
 270 647 l 1
 200 682 l 1
 120 622 l 1
 120 495 l 1
EndSplineSet
Ligature2: "'liga' Standard Ligatures lookup 1-1" f f
LCarets2: 1 240 
EndChar

StartChar: f_i
Encoding: 64257 64257 38
Width: 480
VWidth: 531
Flags: W
HStem: -180 21G<0 81> 0 21G<309 390> 405 90<0 30 120 270> 790 20G<190 201.5>
VStem: 30 90<-90 405 495 652> 270 90<90 405 600 652>
LayerCount: 2
Fore
SplineSet
0 -90 m 1
 30 -90 l 1
 30 405 l 1
 0 405 l 1
 0 495 l 1
 30 495 l 1
 30 675 l 2
 30 689 37 703 48 711 c 2
 168 801 l 2
 176 807 185 810 195 810 c 2
 197 810 l 2
 206 810 215 806 222 801 c 2
 342 711 l 2
 353 703 360 689 360 675 c 2
 360 600 l 1
 270 600 l 1
 270 652 l 1
 195 709 l 1
 120 652 l 1
 120 495 l 1
 315 495 l 2
 327 495 339 490 347 482 c 0
 355 474 360 462 360 450 c 2
 360 90 l 1
 390 90 l 1
 390 0 l 1
 315 0 l 2
 303 0 291 5 283 13 c 0
 275 21 270 33 270 45 c 2
 270 405 l 1
 120 405 l 1
 120 -135 l 2
 120 -147 115 -159 107 -167 c 0
 99 -175 87 -180 75 -180 c 2
 0 -180 l 1
 0 -90 l 1
EndSplineSet
Validated: 1
Ligature2: "'liga' Standard Ligatures lookup 1-1" f i
LCarets2: 1 240 
EndChar

StartChar: f_f_i
Encoding: 64259 64259 39
Width: 720
VWidth: 531
Flags: W
HStem: -180 90<0 30 240 270> 0 21G<549 630> 405 90<0 30 120 270 360 510> 790 20G<430 441.5>
VStem: 30 90<-90 405 495 622> 270 90<-90 405 495 647> 510 90<90 405 600 652>
CounterMasks: 1 0e
LayerCount: 2
Fore
SplineSet
0 -90 m 1
 30 -90 l 1
 30 405 l 1
 0 405 l 1
 0 495 l 1
 30 495 l 1
 30 645 l 2
 30 659 37 673 48 681 c 2
 168 771 l 2
 175 776 183 779 191 780 c 0
 199 781 208 779 215 775 c 2
 310 728 l 1
 408 801 l 2
 416 807 425 810 435 810 c 2
 437 810 l 2
 446 810 455 806 462 801 c 2
 582 711 l 2
 593 703 600 689 600 675 c 2
 600 600 l 1
 510 600 l 1
 510 652 l 1
 435 709 l 1
 360 652 l 1
 360 495 l 1
 555 495 l 2
 567 495 579 490 587 482 c 0
 595 474 600 462 600 450 c 2
 600 90 l 1
 630 90 l 1
 630 0 l 1
 555 0 l 2
 543 0 531 5 523 13 c 0
 515 21 510 33 510 45 c 2
 510 405 l 1
 360 405 l 1
 360 -135 l 2
 360 -147 355 -159 347 -167 c 0
 339 -175 327 -180 315 -180 c 2
 240 -180 l 1
 240 -90 l 1
 270 -90 l 1
 270 405 l 1
 120 405 l 1
 120 -135 l 2
 120 -147 115 -159 107 -167 c 0
 99 -175 87 -180 75 -180 c 2
 0 -180 l 1
 0 -90 l 1
120 495 m 1
 270 495 l 1
 270 647 l 1
 200 682 l 1
 120 622 l 1
 120 495 l 1
EndSplineSet
Validated: 1
Ligature2: "'liga' Standard Ligatures lookup 1-1" f f i
LCarets2: 2 240 480 
EndChar

StartChar: f_l
Encoding: 64258 64258 40
Width: 465
VWidth: 531
Flags: W
HStem: -180 21G<0 81> 0 21G<240 321> 405 90<0 30 120 225> 720 90<210 270>
VStem: 30 90<-90 405 495 652>
LayerCount: 2
Fore
SplineSet
0 -90 m 1
 30 -90 l 1
 30 405 l 1
 0 405 l 1
 0 495 l 1
 30 495 l 1
 30 675 l 2
 30 689 37 703 48 711 c 2
 168 801 l 2
 176 807 185 810 195 810 c 2
 315 810 l 2
 327 810 339 805 347 797 c 0
 355 789 360 777 360 765 c 2
 360 45 l 2
 360 33 355 21 347 13 c 0
 339 5 327 0 315 0 c 2
 240 0 l 1
 240 90 l 1
 270 90 l 1
 270 720 l 1
 210 720 l 1
 120 652 l 1
 120 495 l 1
 225 495 l 1
 225 405 l 1
 120 405 l 1
 120 -135 l 2
 120 -147 115 -159 107 -167 c 0
 99 -175 87 -180 75 -180 c 2
 0 -180 l 1
 0 -90 l 1
EndSplineSet
Validated: 1
Ligature2: "'liga' Standard Ligatures lookup 1-1" f l
LCarets2: 1 240 
EndChar

StartChar: f_f_l
Encoding: 64260 64260 41
Width: 705
VWidth: 531
Flags: W
HStem: -180 90<0 30 240 270> 0 21G<480 561> 405 90<0 30 120 270 360 465> 720 90<450 510>
VStem: 30 90<-90 405 495 622> 270 90<-90 405 495 647>
LayerCount: 2
Fore
SplineSet
0 -90 m 1
 30 -90 l 1
 30 405 l 1
 0 405 l 1
 0 495 l 1
 30 495 l 1
 30 645 l 2
 30 659 37 673 48 681 c 2
 168 771 l 2
 175 776 183 779 191 780 c 0
 199 781 208 779 215 775 c 2
 310 728 l 1
 408 801 l 2
 416 807 425 810 435 810 c 2
 555 810 l 2
 567 810 579 805 587 797 c 0
 595 789 600 777 600 765 c 2
 600 45 l 2
 600 33 595 21 587 13 c 0
 579 5 567 0 555 0 c 2
 480 0 l 1
 480 90 l 1
 510 90 l 1
 510 720 l 1
 450 720 l 1
 360 652 l 1
 360 495 l 1
 465 495 l 1
 465 405 l 1
 360 405 l 1
 360 -135 l 2
 360 -147 355 -159 347 -167 c 0
 339 -175 327 -180 315 -180 c 2
 240 -180 l 1
 240 -90 l 1
 270 -90 l 1
 270 405 l 1
 120 405 l 1
 120 -135 l 2
 120 -147 115 -159 107 -167 c 0
 99 -175 87 -180 75 -180 c 2
 0 -180 l 1
 0 -90 l 1
120 495 m 1
 270 495 l 1
 270 647 l 1
 200 682 l 1
 120 622 l 1
 120 495 l 1
EndSplineSet
Validated: 1
Ligature2: "'liga' Standard Ligatures lookup 1-1" f f l
LCarets2: 2 240 480 
EndChar

StartChar: f_h
Encoding: 57398 57398 42
Width: 705
VWidth: 531
Flags: W
HStem: -180 90<0 30 390 413> 0 21G<240 321> 405 90<0 30 120 225> 520 20G<430 440> 720 90<210 270>
VStem: 30 90<-90 405 495 652> 270 90<90 382 495 720> 510 90<31 382>
CounterMasks: 1 07
LayerCount: 2
Fore
SplineSet
0 -90 m 1
 30 -90 l 1
 30 405 l 1
 0 405 l 1
 0 495 l 1
 30 495 l 1
 30 675 l 2
 30 689 37 703 48 711 c 2
 168 801 l 2
 176 807 185 810 195 810 c 2
 315 810 l 2
 327 810 339 805 347 797 c 0
 355 789 360 777 360 765 c 2
 360 495 l 1
 408 531 l 2
 416 537 425 540 435 540 c 0
 445 540 454 537 462 531 c 2
 582 441 l 2
 593 433 600 419 600 405 c 2
 600 15 l 2
 600 5 596 -5 590 -13 c 2
 470 -163 l 2
 462 -173 448 -180 435 -180 c 2
 390 -180 l 1
 390 -90 l 1
 413 -90 l 1
 510 31 l 1
 510 382 l 1
 435 439 l 1
 360 382 l 1
 360 45 l 2
 360 33 355 21 347 13 c 0
 339 5 327 0 315 0 c 2
 285 0 l 1
 240 0 l 1
 240 90 l 1
 270 90 l 1
 270 720 l 1
 210 720 l 1
 120 652 l 1
 120 495 l 1
 225 495 l 1
 225 405 l 1
 120 405 l 1
 120 -135 l 2
 120 -147 115 -159 107 -167 c 0
 99 -175 87 -180 75 -180 c 2
 0 -180 l 1
 0 -90 l 1
EndSplineSet
Validated: 1
Ligature2: "'liga' Standard Ligatures lookup 1-1" f h
LCarets2: 1 240 
EndChar

StartChar: f_f_h
Encoding: 57394 57394 43
Width: 945
VWidth: 531
Flags: W
HStem: -180 90<0 30 240 270 630 653> 0 21G<480 561> 405 90<0 30 120 270 360 465> 520 20G<670 680> 720 90<450 510>
VStem: 30 90<-90 405 495 622> 270 90<-90 405 495 647> 510 90<90 382 495 720> 750 90<31 382>
LayerCount: 2
Fore
SplineSet
0 -90 m 1
 30 -90 l 1
 30 405 l 1
 0 405 l 1
 0 495 l 1
 30 495 l 1
 30 645 l 2
 30 659 37 673 48 681 c 2
 168 771 l 2
 175 776 183 779 191 780 c 0
 199 781 208 779 215 775 c 2
 310 728 l 1
 408 801 l 2
 416 807 425 810 435 810 c 2
 555 810 l 2
 567 810 579 805 587 797 c 0
 595 789 600 777 600 765 c 2
 600 495 l 1
 648 531 l 2
 656 537 665 540 675 540 c 0
 685 540 694 537 702 531 c 2
 822 441 l 2
 833 433 840 419 840 405 c 2
 840 15 l 2
 840 5 836 -5 830 -13 c 2
 710 -163 l 2
 702 -173 688 -180 675 -180 c 2
 630 -180 l 1
 630 -90 l 1
 653 -90 l 1
 750 31 l 1
 750 382 l 1
 675 439 l 1
 600 382 l 1
 600 45 l 2
 600 33 595 21 587 13 c 0
 579 5 567 0 555 0 c 2
 525 0 l 1
 480 0 l 1
 480 90 l 1
 510 90 l 1
 510 720 l 1
 450 720 l 1
 360 652 l 1
 360 495 l 1
 465 495 l 1
 465 405 l 1
 360 405 l 1
 360 -135 l 2
 360 -147 355 -159 347 -167 c 0
 339 -175 327 -180 315 -180 c 2
 240 -180 l 1
 240 -90 l 1
 270 -90 l 1
 270 405 l 1
 120 405 l 1
 120 -135 l 2
 120 -147 115 -159 107 -167 c 0
 99 -175 87 -180 75 -180 c 2
 0 -180 l 1
 0 -90 l 1
120 495 m 1
 270 495 l 1
 270 647 l 1
 200 682 l 1
 120 622 l 1
 120 495 l 1
EndSplineSet
Validated: 1
Ligature2: "'liga' Standard Ligatures lookup 1-1" f f h
LCarets2: 2 240 479 
EndChar

StartChar: f_k
Encoding: 57400 57400 44
Width: 690
VWidth: 531
Flags: W
HStem: -180 21G<0 81> 0 21G<430 480> 405 90<0 30 120 270 450 600> 720 90<210 270>
VStem: 30 90<-90 405 495 652> 270 90<158 405 540 608>
LayerCount: 2
Fore
SplineSet
0 -90 m 1
 30 -90 l 1
 30 405 l 1
 0 405 l 1
 0 495 l 1
 30 495 l 1
 30 675 l 2
 30 689 37 703 48 711 c 2
 168 801 l 2
 176 807 185 810 195 810 c 2
 315 810 l 2
 327 810 339 805 347 797 c 0
 355 789 360 777 360 765 c 2
 360 720 l 1
 408 756 l 2
 416 762 425 765 435 765 c 0
 445 765 454 762 462 756 c 2
 582 666 l 2
 593 658 600 644 600 630 c 0
 600 616 593 602 582 594 c 2
 450 495 l 1
 600 495 l 1
 600 405 l 1
 360 405 l 1
 360 158 l 1
 450 90 l 1
 480 90 l 1
 480 0 l 1
 435 0 l 2
 425 0 416 3 408 9 c 2
 288 99 l 2
 277 107 270 121 270 135 c 2
 270 405 l 1
 120 405 l 1
 120 -135 l 2
 120 -147 115 -159 107 -167 c 0
 99 -175 87 -180 75 -180 c 2
 0 -180 l 1
 0 -90 l 1
120 495 m 1
 270 495 l 1
 270 630 l 1
 270 720 l 1
 210 720 l 1
 120 652 l 1
 120 495 l 1
360 540 m 1
 480 630 l 1
 435 664 l 1
 360 608 l 1
 360 540 l 1
EndSplineSet
Validated: 1
Ligature2: "'liga' Standard Ligatures lookup 1-1" f k
LCarets2: 1 240 
EndChar

StartChar: f_f_k
Encoding: 57396 57396 45
Width: 930
VWidth: 531
Flags: W
HStem: -180 90<0 30 240 270> 0 21G<670 720> 405 90<0 30 120 270 360 510 690 840> 720 90<450 510>
VStem: 30 90<-90 405 495 622> 270 90<-90 405 495 647> 510 90<158 405 540 608>
CounterMasks: 1 0e
LayerCount: 2
Fore
SplineSet
0 -90 m 1
 30 -90 l 1
 30 405 l 1
 0 405 l 1
 0 495 l 1
 30 495 l 1
 30 645 l 2
 30 659 37 673 48 681 c 2
 168 771 l 2
 175 776 183 779 191 780 c 0
 199 781 208 779 215 775 c 2
 310 728 l 1
 408 801 l 2
 416 807 425 810 435 810 c 2
 555 810 l 2
 567 810 579 805 587 797 c 0
 595 789 600 777 600 765 c 2
 600 720 l 1
 648 756 l 2
 656 762 665 765 675 765 c 0
 685 765 694 762 702 756 c 2
 822 666 l 2
 833 658 840 644 840 630 c 0
 840 616 833 602 822 594 c 2
 690 495 l 1
 840 495 l 1
 840 405 l 1
 600 405 l 1
 600 158 l 1
 690 90 l 1
 720 90 l 1
 720 0 l 1
 675 0 l 2
 665 0 656 3 648 9 c 2
 528 99 l 2
 517 107 510 121 510 135 c 2
 510 405 l 1
 360 405 l 1
 360 -135 l 2
 360 -147 355 -159 347 -167 c 0
 339 -175 327 -180 315 -180 c 2
 240 -180 l 1
 240 -90 l 1
 270 -90 l 1
 270 405 l 1
 120 405 l 1
 120 -135 l 2
 120 -147 115 -159 107 -167 c 0
 99 -175 87 -180 75 -180 c 2
 0 -180 l 1
 0 -90 l 1
120 495 m 1
 270 495 l 1
 270 647 l 1
 200 682 l 1
 120 622 l 1
 120 495 l 1
360 495 m 1
 510 495 l 1
 510 630 l 1
 510 720 l 1
 450 720 l 1
 360 652 l 1
 360 495 l 1
600 540 m 1
 720 630 l 1
 675 664 l 1
 600 608 l 1
 600 540 l 1
EndSplineSet
Validated: 1
Ligature2: "'liga' Standard Ligatures lookup 1-1" f f k
LCarets2: 2 240 480 
EndChar

StartChar: f_t
Encoding: 57401 57401 46
Width: 570
VWidth: 531
Flags: W
HStem: -180 21G<0 81> 0 21G<430 480> 405 90<0 30 120 270 360 480> 790 20G<190 201.5>
VStem: 30 90<-90 405 495 652> 270 90<158 405 495 652>
LayerCount: 2
Fore
SplineSet
0 -90 m 1
 30 -90 l 1
 30 405 l 1
 0 405 l 1
 0 495 l 1
 30 495 l 1
 30 675 l 2
 30 689 37 703 48 711 c 2
 168 801 l 2
 176 807 185 810 195 810 c 2
 197 810 l 2
 206 810 215 806 222 801 c 2
 342 711 l 2
 353 703 360 689 360 675 c 2
 360 495 l 1
 480 495 l 1
 480 405 l 1
 360 405 l 1
 360 158 l 1
 450 90 l 1
 480 90 l 1
 480 0 l 1
 435 0 l 2
 425 0 416 3 408 9 c 2
 288 99 l 2
 277 107 270 121 270 135 c 2
 270 405 l 1
 120 405 l 1
 120 -135 l 2
 120 -147 115 -159 107 -167 c 0
 99 -175 87 -180 75 -180 c 2
 0 -180 l 1
 0 -90 l 1
120 495 m 1
 270 495 l 1
 270 652 l 1
 195 709 l 1
 120 652 l 1
 120 495 l 1
EndSplineSet
Validated: 1
Ligature2: "'liga' Standard Ligatures lookup 1-1" f t
LCarets2: 1 240 
EndChar

StartChar: f_f_t
Encoding: 57397 57397 47
Width: 810
VWidth: 531
Flags: W
HStem: -180 90<0 30 240 270> -0 21G<670 720> 405 90<0 30 120 270 360 510 600 720> 790 20G<430 441.5>
VStem: 30 90<-90 405 495 622> 270 90<-90 405 495 647> 510 90<157 405 495 652>
CounterMasks: 1 0e
LayerCount: 2
Fore
SplineSet
0 -90 m 1
 30 -90 l 1
 30 405 l 1
 0 405 l 1
 0 495 l 1
 30 495 l 1
 30 645 l 2
 30 659 37 673 48 681 c 2
 168 771 l 2
 175 776 183 779 191 780 c 0
 199 781 208 779 215 775 c 2
 310 728 l 1
 408 801 l 2
 416 807 425 810 435 810 c 2
 437 810 l 2
 446 810 455 806 462 801 c 2
 582 711 l 2
 593 703 600 689 600 675 c 2
 600 495 l 1
 720 495 l 1
 720 405 l 1
 600 405 l 1
 600 157 l 1
 690 90 l 1
 720 90 l 1
 720 -0 l 1
 675 -0 l 2
 665 0 656 3 648 9 c 2
 528 99 l 2
 517 107 510 121 510 135 c 2
 510 405 l 1
 360 405 l 1
 360 -135 l 2
 360 -147 355 -159 347 -167 c 0
 339 -175 327 -180 315 -180 c 2
 240 -180 l 1
 240 -90 l 1
 270 -90 l 1
 270 405 l 1
 120 405 l 1
 120 -135 l 2
 120 -147 115 -159 107 -167 c 0
 99 -175 87 -180 75 -180 c 2
 0 -180 l 1
 0 -90 l 1
120 495 m 1
 270 495 l 1
 270 647 l 1
 200 682 l 1
 120 622 l 1
 120 495 l 1
360 495 m 1
 510 495 l 1
 510 652 l 1
 435 709 l 1
 360 652 l 1
 360 495 l 1
EndSplineSet
Validated: 1
Ligature2: "'liga' Standard Ligatures lookup 1-1" f f t
LCarets2: 2 240 480 
EndChar

StartChar: f_t_z
Encoding: 57386 57386 48
Width: 750
VWidth: 531
Flags: W
HStem: -180 90<0 30 450 480> 0 21G<430 480> 405 90<0 30 120 270 360 480> 790 20G<190 201.5>
VStem: 30 90<-90 405 495 652> 270 90<158 405 495 652> 570 90<-22 112>
LayerCount: 2
Fore
SplineSet
0 -90 m 1
 30 -90 l 1
 30 405 l 1
 0 405 l 1
 0 495 l 1
 30 495 l 1
 30 675 l 2
 30 689 37 703 48 711 c 2
 168 801 l 2
 176 807 185 810 195 810 c 2
 197 810 l 2
 206 810 215 806 222 801 c 2
 342 711 l 2
 353 703 360 689 360 675 c 2
 360 495 l 1
 495 495 l 2
 505 495 514 492 522 486 c 2
 642 396 l 2
 653 388 660 375 660 360 c 0
 660 349 656 338 649 330 c 2
 561 232 l 1
 642 171 l 2
 653 163 660 149 660 135 c 2
 660 -45 l 2
 660 -59 653 -73 642 -81 c 2
 522 -171 l 2
 514 -177 505 -180 495 -180 c 2
 450 -180 l 1
 450 -90 l 1
 480 -90 l 1
 570 -22 l 1
 570 112 l 1
 468 189 l 2
 457 197 450 210 450 225 c 0
 450 236 454 247 461 255 c 2
 549 353 l 1
 480 405 l 1
 360 405 l 1
 360 158 l 1
 450 90 l 1
 480 90 l 1
 480 0 l 1
 435 0 l 2
 425 0 416 3 408 9 c 2
 288 99 l 2
 277 107 270 121 270 135 c 2
 270 405 l 1
 120 405 l 1
 120 -135 l 2
 120 -147 115 -159 107 -167 c 0
 99 -175 87 -180 75 -180 c 2
 0 -180 l 1
 0 -90 l 1
120 495 m 1
 270 495 l 1
 270 652 l 1
 195 709 l 1
 120 652 l 1
 120 495 l 1
EndSplineSet
Validated: 1
Ligature2: "'liga' Standard Ligatures lookup 1-1" f t z
LCarets2: 2 240 420 
EndChar

StartChar: f_thorn
Encoding: 57390 57390 49
Width: 705
VWidth: 531
Flags: W
HStem: -180 90<0 30 240 270> 0 21G<430 440> 405 90<0 30 120 225> 520 20G<430 440> 720 90<210 270>
VStem: 30 90<-90 405 495 652> 270 90<-90 45 158 382 495 720> 510 90<158 382>
CounterMasks: 1 07
LayerCount: 2
Fore
SplineSet
0 -90 m 1
 30 -90 l 1
 30 405 l 1
 0 405 l 1
 0 495 l 1
 30 495 l 1
 30 675 l 2
 30 689 37 703 48 711 c 2
 168 801 l 2
 176 807 185 810 195 810 c 2
 315 810 l 2
 327 810 339 805 347 797 c 0
 355 789 360 777 360 765 c 2
 360 495 l 1
 408 531 l 2
 416 537 425 540 435 540 c 0
 445 540 454 537 462 531 c 2
 582 441 l 2
 593 433 600 419 600 405 c 2
 600 135 l 2
 600 121 593 107 582 99 c 2
 462 9 l 2
 454 3 445 0 435 0 c 0
 425 0 416 3 408 9 c 2
 360 45 l 1
 360 -135 l 2
 360 -147 355 -159 347 -167 c 0
 339 -175 327 -180 315 -180 c 2
 240 -180 l 1
 240 -90 l 1
 270 -90 l 1
 270 720 l 1
 210 720 l 1
 120 652 l 1
 120 495 l 1
 225 495 l 1
 225 405 l 1
 120 405 l 1
 120 -135 l 2
 120 -147 115 -159 107 -167 c 0
 99 -175 87 -180 75 -180 c 2
 45 -180 l 1
 0 -180 l 1
 0 -90 l 1
360 158 m 1
 435 101 l 1
 510 158 l 1
 510 382 l 1
 435 439 l 1
 360 382 l 1
 360 158 l 1
EndSplineSet
Validated: 1
Ligature2: "'liga' Standard Ligatures lookup 1-1" f thorn
LCarets2: 1 240 
EndChar

StartChar: f_b
Encoding: 57392 57392 50
Width: 705
VWidth: 531
Flags: W
HStem: -180 21G<0 81> 0 21G<240 321 430 440> 405 90<0 30 120 225> 520 20G<430 440> 720 90<210 270>
VStem: 30 90<-90 405 495 652> 270 90<158 382 495 720> 510 90<158 382>
CounterMasks: 1 07
LayerCount: 2
Fore
SplineSet
0 -90 m 1
 30 -90 l 1
 30 405 l 1
 0 405 l 1
 0 495 l 1
 30 495 l 1
 30 675 l 2
 30 689 37 703 48 711 c 2
 168 801 l 2
 176 807 185 810 195 810 c 2
 315 810 l 2
 327 810 339 805 347 797 c 0
 355 789 360 777 360 765 c 2
 360 495 l 1
 408 531 l 2
 416 537 425 540 435 540 c 0
 445 540 454 537 462 531 c 2
 582 441 l 2
 593 433 600 419 600 405 c 2
 600 135 l 2
 600 121 593 107 582 99 c 2
 462 9 l 2
 454 3 445 0 435 0 c 0
 425 0 416 3 408 9 c 2
 360 45 l 1
 360 33 355 21 347 13 c 0
 339 5 327 0 315 0 c 2
 240 0 l 1
 240 90 l 1
 270 90 l 1
 270 720 l 1
 210 720 l 1
 120 652 l 1
 120 495 l 1
 225 495 l 1
 225 405 l 1
 120 405 l 1
 120 -135 l 2
 120 -147 115 -159 107 -167 c 0
 99 -175 87 -180 75 -180 c 2
 45 -180 l 1
 0 -180 l 1
 0 -90 l 1
360 158 m 1
 435 101 l 1
 510 158 l 1
 510 382 l 1
 435 439 l 1
 360 382 l 1
 360 158 l 1
EndSplineSet
Validated: 1
Ligature2: "'liga' Standard Ligatures lookup 1-1" f b
LCarets2: 1 240 
EndChar

StartChar: f_f_thorn
Encoding: 57391 57391 51
Width: 945
VWidth: 531
Flags: W
HStem: -180 90<0 30 240 270 480 510> 0 21G<670 680> 405 90<0 30 120 270 360 465> 520 20G<670 680> 720 90<450 510>
VStem: 30 90<-90 405 495 622> 270 90<-90 405 495 647> 510 90<-90 45 158 382 495 720> 750 90<158 382>
LayerCount: 2
Fore
SplineSet
0 -90 m 1
 30 -90 l 1
 30 405 l 1
 0 405 l 1
 0 495 l 1
 30 495 l 1
 30 645 l 2
 30 659 37 673 48 681 c 2
 168 771 l 2
 175 776 183 779 191 780 c 0
 199 781 208 779 215 775 c 2
 310 728 l 1
 408 801 l 2
 416 807 425 810 435 810 c 2
 555 810 l 2
 567 810 579 805 587 797 c 0
 595 789 600 777 600 765 c 2
 600 495 l 1
 648 531 l 2
 656 537 665 540 675 540 c 0
 685 540 694 537 702 531 c 2
 822 441 l 2
 833 433 840 419 840 405 c 2
 840 135 l 2
 840 121 833 107 822 99 c 2
 702 9 l 2
 694 3 685 0 675 0 c 0
 665 0 656 3 648 9 c 2
 600 45 l 1
 600 -135 l 2
 600 -147 595 -159 587 -167 c 0
 579 -175 567 -180 555 -180 c 2
 480 -180 l 1
 480 -90 l 1
 510 -90 l 1
 510 720 l 1
 450 720 l 1
 360 652 l 1
 360 495 l 1
 465 495 l 1
 465 405 l 1
 360 405 l 1
 360 -135 l 2
 360 -147 355 -159 347 -167 c 0
 339 -175 327 -180 315 -180 c 2
 240 -180 l 1
 240 -90 l 1
 270 -90 l 1
 270 405 l 1
 120 405 l 1
 120 -135 l 2
 120 -147 115 -159 107 -167 c 0
 99 -175 87 -180 75 -180 c 2
 0 -180 l 1
 0 -90 l 1
120 495 m 1
 270 495 l 1
 270 647 l 1
 200 682 l 1
 120 622 l 1
 120 495 l 1
600 158 m 1
 675 101 l 1
 750 158 l 1
 750 382 l 1
 675 439 l 1
 600 382 l 1
 600 158 l 1
EndSplineSet
Validated: 1
Ligature2: "'liga' Standard Ligatures lookup 1-1" f f thorn
LCarets2: 2 240 480 
EndChar

StartChar: f_f_b
Encoding: 57393 57393 52
Width: 945
VWidth: 531
Flags: W
HStem: -180 90<0 30 240 270> 0 21G<480 561 670 680> 405 90<0 30 120 270 360 465> 520 20G<670 680> 720 90<450 510>
VStem: 30 90<-90 405 495 622> 270 90<-90 405 495 647> 510 90<158 382 495 720> 750 90<158 382>
LayerCount: 2
Fore
SplineSet
0 -90 m 1
 30 -90 l 1
 30 405 l 1
 0 405 l 1
 0 495 l 1
 30 495 l 1
 30 645 l 2
 30 659 37 673 48 681 c 2
 168 771 l 2
 175 776 183 779 191 780 c 0
 199 781 208 779 215 775 c 2
 310 728 l 1
 408 801 l 2
 416 807 425 810 435 810 c 2
 555 810 l 2
 567 810 579 805 587 797 c 0
 595 789 600 777 600 765 c 2
 600 495 l 1
 648 531 l 2
 656 537 665 540 675 540 c 0
 685 540 694 537 702 531 c 2
 822 441 l 2
 833 433 840 419 840 405 c 2
 840 135 l 2
 840 121 833 107 822 99 c 2
 702 9 l 2
 694 3 685 0 675 0 c 0
 665 0 656 3 648 9 c 2
 600 45 l 1
 600 33 595 21 587 13 c 0
 579 5 567 0 555 0 c 2
 480 0 l 1
 480 90 l 1
 510 90 l 1
 510 720 l 1
 450 720 l 1
 360 652 l 1
 360 495 l 1
 465 495 l 1
 465 405 l 1
 360 405 l 1
 360 -135 l 2
 360 -147 355 -159 347 -167 c 0
 339 -175 327 -180 315 -180 c 2
 240 -180 l 1
 240 -90 l 1
 270 -90 l 1
 270 405 l 1
 120 405 l 1
 120 -135 l 2
 120 -147 115 -159 107 -167 c 0
 99 -175 87 -180 75 -180 c 2
 0 -180 l 1
 0 -90 l 1
120 495 m 1
 270 495 l 1
 270 647 l 1
 200 682 l 1
 120 622 l 1
 120 495 l 1
600 158 m 1
 675 101 l 1
 750 158 l 1
 750 382 l 1
 675 439 l 1
 600 382 l 1
 600 158 l 1
EndSplineSet
Validated: 1
Ligature2: "'liga' Standard Ligatures lookup 1-1" f f b
LCarets2: 2 240 480 
EndChar

StartChar: f_j
Encoding: 57399 57399 53
Width: 480
VWidth: 531
Flags: W
HStem: -180 90<0 30 180 270> 405 90<0 30 120 270> 790 20G<190 201.5>
VStem: 30 90<-90 405 495 652> 270 90<-90 405 600 652>
LayerCount: 2
Fore
SplineSet
0 -90 m 1
 30 -90 l 1
 30 405 l 1
 0 405 l 1
 0 495 l 1
 30 495 l 1
 30 675 l 2
 30 689 37 703 48 711 c 2
 168 801 l 2
 176 807 185 810 195 810 c 2
 197 810 l 2
 206 810 215 806 222 801 c 2
 342 711 l 2
 353 703 360 689 360 675 c 2
 360 600 l 1
 270 600 l 1
 270 652 l 1
 195 709 l 1
 120 652 l 1
 120 495 l 1
 315 495 l 2
 327 495 339 490 347 482 c 0
 355 474 360 462 360 450 c 2
 360 -135 l 2
 360 -147 355 -159 347 -167 c 0
 339 -175 327 -180 315 -180 c 2
 180 -180 l 1
 180 -90 l 1
 270 -90 l 1
 270 405 l 1
 120 405 l 1
 120 -135 l 2
 120 -147 115 -159 107 -167 c 0
 99 -175 87 -180 75 -180 c 2
 0 -180 l 1
 0 -90 l 1
EndSplineSet
Validated: 1
Ligature2: "'liga' Standard Ligatures lookup 1-1" f j
LCarets2: 1 240 
EndChar

StartChar: f_f_j
Encoding: 57395 57395 54
Width: 720
VWidth: 531
Flags: W
HStem: -180 90<0 30 240 270 420 510> 405 90<0 30 120 270 360 510> 790 20G<430 441.5>
VStem: 30 90<-90 405 495 622> 270 90<-90 405 495 647> 510 90<-90 405 600 652>
CounterMasks: 1 1c
LayerCount: 2
Fore
SplineSet
0 -90 m 1
 30 -90 l 1
 30 405 l 1
 0 405 l 1
 0 495 l 1
 30 495 l 1
 30 645 l 2
 30 659 37 673 48 681 c 2
 168 771 l 2
 175 776 183 779 191 780 c 0
 199 781 208 779 215 775 c 2
 310 728 l 1
 408 801 l 2
 416 807 425 810 435 810 c 2
 437 810 l 2
 446 810 455 806 462 801 c 2
 582 711 l 2
 593 703 600 689 600 675 c 2
 600 600 l 1
 510 600 l 1
 510 652 l 1
 435 709 l 1
 360 652 l 1
 360 495 l 1
 555 495 l 2
 567 495 579 490 587 482 c 0
 595 474 600 462 600 450 c 2
 600 -135 l 2
 600 -147 595 -159 587 -167 c 0
 579 -175 567 -180 555 -180 c 2
 420 -180 l 1
 420 -90 l 1
 510 -90 l 1
 510 405 l 1
 360 405 l 1
 360 -135 l 2
 360 -147 355 -159 347 -167 c 0
 339 -175 327 -180 315 -180 c 2
 240 -180 l 1
 240 -90 l 1
 270 -90 l 1
 270 405 l 1
 120 405 l 5
 120 -135 l 2
 120 -147 115 -159 107 -167 c 0
 99 -175 87 -180 75 -180 c 2
 0 -180 l 1
 0 -90 l 1
120 495 m 1
 270 495 l 1
 270 647 l 1
 200 682 l 1
 120 622 l 1
 120 495 l 1
EndSplineSet
Validated: 1
Ligature2: "'liga' Standard Ligatures lookup 1-1" f f j
LCarets2: 2 240 480 
EndChar

StartChar: longs_longs
Encoding: 57407 57407 55
Width: 480
VWidth: 531
Flags: W
HStem: -180 90<0 30 240 270> 405 90<0 30 240 270> 720 90<450 510>
VStem: 0 120<-166.622 -90 405 495> 30 90<-90 405 495 622> 240 120<-166.622 -90 405 495> 270 90<-90 405 495 647>
LayerCount: 2
Fore
SplineSet
0 -90 m 1xf0
 30 -90 l 1
 30 405 l 1xe8
 0 405 l 1
 0 495 l 1xf0
 30 495 l 1
 30 645 l 2
 30 659 37 673 48 681 c 2
 168 771 l 2
 175 776 183 779 191 780 c 0
 199 781 208 779 215 775 c 2
 310 728 l 1
 408 801 l 2
 416 807 425 810 435 810 c 2
 510 810 l 1
 510 720 l 1
 450 720 l 1
 360 652 l 1xea
 360 -135 l 2
 360 -147 355 -159 347 -167 c 0
 339 -175 327 -180 315 -180 c 2
 240 -180 l 1
 240 -90 l 1xe4
 270 -90 l 1
 270 405 l 1xe2
 240 405 l 1
 240 495 l 1xe4
 270 495 l 1
 270 647 l 1
 200 682 l 1
 120 622 l 1xea
 120 -135 l 2
 120 -147 115 -159 107 -167 c 0
 99 -175 87 -180 75 -180 c 2
 0 -180 l 1
 0 -90 l 1xf0
EndSplineSet
Validated: 1
Ligature2: "'liga' Standard Ligatures lookup 1-1" longs longs
LCarets2: 1 240 
EndChar

StartChar: longs_i
Encoding: 57406 57406 56
Width: 480
VWidth: 531
Flags: W
HStem: -180 21G<0 81> 0 21G<309 390> 405 90<0 30 240 270> 790 20G<190 201.5>
VStem: 0 120<-166.622 -90 405 495> 30 90<-90 405 495 652> 240 120<405 481.622> 270 90<90 405 600 652>
LayerCount: 2
Fore
SplineSet
0 -90 m 1xf8
 30 -90 l 1
 30 405 l 1xf4
 0 405 l 1
 0 495 l 1xf8
 30 495 l 1
 30 675 l 2
 30 689 37 703 48 711 c 2
 168 801 l 2
 176 807 185 810 195 810 c 2
 197 810 l 2
 206 810 215 806 222 801 c 2
 342 711 l 2
 353 703 360 689 360 675 c 2
 360 600 l 1
 270 600 l 1
 270 652 l 1
 195 709 l 1
 120 652 l 1xf5
 120 -135 l 2
 120 -147 115 -159 107 -167 c 0
 99 -175 87 -180 75 -180 c 2
 0 -180 l 1
 0 -90 l 1xf8
240 405 m 1xf2
 240 495 l 1
 315 495 l 2
 327 495 339 490 347 482 c 0
 355 474 360 462 360 450 c 2xf2
 360 90 l 1
 390 90 l 1
 390 0 l 1
 315 0 l 2
 303 0 291 5 283 13 c 0
 275 21 270 33 270 45 c 2
 270 405 l 1xf1
 240 405 l 1xf2
EndSplineSet
Validated: 1
Ligature2: "'liga' Standard Ligatures lookup 1-1" longs i
LCarets2: 1 240 
EndChar

StartChar: longs_longs_i
Encoding: 57412 57412 57
Width: 720
VWidth: 531
Flags: W
HStem: -180 90<0 30 240 270> 0 21G<549 630> 405 90<0 30 240 270 480 510> 790 20G<430 441.5>
VStem: 0 120<-166.622 -90 405 495> 30 90<-90 405 495 622> 240 120<-166.622 -90 405 495> 270 90<-90 405 495 647> 480 120<405 481.622> 510 90<90 405 600 652>
LayerCount: 2
Fore
SplineSet
0 -90 m 1xf8
 30 -90 l 1
 30 405 l 1xf4
 0 405 l 1
 0 495 l 1xf8
 30 495 l 1
 30 645 l 2
 30 659 37 673 48 681 c 2
 168 771 l 2
 175 776 183 779 191 780 c 0
 199 781 208 779 215 775 c 2
 310 728 l 1
 408 801 l 2
 416 807 425 810 435 810 c 2
 437 810 l 2
 446 810 455 806 462 801 c 2
 582 711 l 2
 593 703 600 689 600 675 c 2
 600 600 l 1
 510 600 l 1
 510 652 l 1
 435 709 l 1
 360 652 l 1xf540
 360 -135 l 2
 360 -147 355 -159 347 -167 c 0
 339 -175 328 -179 317 -180 c 1
 315 -180 l 1
 240 -180 l 1
 240 -90 l 1xf2
 270 -90 l 1
 270 405 l 1xf1
 240 405 l 1
 240 495 l 1xf2
 270 495 l 1
 270 647 l 1
 200 682 l 1
 120 622 l 1xf5
 120 -135 l 2
 120 -147 115 -159 107 -167 c 0
 99 -175 87 -180 75 -180 c 2
 0 -180 l 1
 0 -90 l 1xf8
480 405 m 1xf080
 480 495 l 1
 555 495 l 2
 567 495 579 490 587 482 c 0
 595 474 600 462 600 450 c 2xf080
 600 90 l 1
 630 90 l 1
 630 0 l 1
 555 0 l 2
 543 0 531 5 523 13 c 0
 515 21 510 33 510 45 c 2
 510 405 l 1xf040
 480 405 l 1xf080
EndSplineSet
Validated: 1
Ligature2: "'liga' Standard Ligatures lookup 1-1" longs longs i
LCarets2: 2 240 480 
EndChar

StartChar: longs_l
Encoding: 57411 57411 58
Width: 465
VWidth: 531
Flags: W
HStem: -180 21G<0 81> 0 21G<240 321> 720 90<210 270>
VStem: 0 120<-166.622 -90 405 495> 30 90<-90 405 495 652>
LayerCount: 2
Fore
SplineSet
0 -90 m 1xf0
 30 -90 l 1
 30 405 l 1xe8
 0 405 l 1
 0 495 l 1xf0
 30 495 l 1
 30 675 l 2
 30 689 37 703 48 711 c 2
 168 801 l 2
 176 807 185 810 195 810 c 2
 315 810 l 2
 327 810 339 805 347 797 c 0
 355 789 360 777 360 765 c 2
 360 45 l 2
 360 33 355 21 347 13 c 0
 339 5 327 0 315 0 c 2
 240 0 l 1
 240 90 l 1
 270 90 l 1
 270 720 l 1
 210 720 l 1
 120 652 l 1xe8
 120 -135 l 2
 120 -147 115 -159 107 -167 c 0
 99 -175 87 -180 75 -180 c 2
 0 -180 l 1
 0 -90 l 1xf0
EndSplineSet
Validated: 1
Ligature2: "'liga' Standard Ligatures lookup 1-1" longs l
LCarets2: 1 240 
EndChar

StartChar: longs_j
Encoding: 57408 57408 59
Width: 480
VWidth: 531
Flags: W
HStem: -180 90<0 30 180 270> 405 90<0 30 240 270> 790 20G<190 201.5>
VStem: 0 120<-166.622 -90 405 495> 30 90<-90 405 495 652> 240 120<405 481.622> 270 90<-90 405 600 652>
LayerCount: 2
Fore
SplineSet
0 -90 m 1xf0
 30 -90 l 1
 30 405 l 1xe8
 0 405 l 1
 0 495 l 1xf0
 30 495 l 1
 30 675 l 2
 30 689 37 703 48 711 c 2
 168 801 l 2
 176 807 185 810 195 810 c 2
 197 810 l 2
 206 810 215 806 222 801 c 2
 342 711 l 2
 353 703 360 689 360 675 c 2
 360 600 l 1
 270 600 l 1
 270 652 l 1
 195 709 l 1
 120 652 l 1xea
 120 -135 l 2
 120 -147 115 -159 107 -167 c 0
 99 -175 87 -180 75 -180 c 2
 0 -180 l 1
 0 -90 l 1xf0
180 -90 m 1
 270 -90 l 1
 270 405 l 1xe2
 240 405 l 1
 240 495 l 1
 315 495 l 2
 327 495 339 490 347 482 c 0
 355 474 360 462 360 450 c 2xe4
 360 -135 l 2xe2
 360 -147 355 -159 347 -167 c 0
 339 -175 327 -180 315 -180 c 2
 180 -180 l 1
 180 -90 l 1
EndSplineSet
Validated: 1
Ligature2: "'liga' Standard Ligatures lookup 1-1" longs j
LCarets2: 1 240 
EndChar

StartChar: longs_h
Encoding: 57415 57415 60
Width: 705
VWidth: 531
Flags: W
HStem: -180 90<0 30 390 413> 0 21G<240 321> 520 20G<430 440> 720 90<210 270>
VStem: 0 120<-166.622 -90 405 495> 30 90<-90 405 495 652> 270 90<90 382 495 720> 510 90<31 382>
LayerCount: 2
Fore
SplineSet
0 -90 m 1xfb
 30 -90 l 1
 30 405 l 1xf7
 0 405 l 1
 0 495 l 1xfb
 30 495 l 1
 30 675 l 2
 30 689 37 703 48 711 c 2
 168 801 l 2
 176 807 185 810 195 810 c 2
 315 810 l 2
 327 810 339 805 347 797 c 0
 355 789 360 777 360 765 c 2
 360 495 l 1
 408 531 l 2
 416 537 425 540 435 540 c 0
 445 540 454 537 462 531 c 2
 582 441 l 2
 593 433 600 419 600 405 c 2
 600 15 l 2
 600 5 596 -5 590 -13 c 2
 470 -163 l 2
 462 -173 448 -180 435 -180 c 2
 390 -180 l 1
 390 -90 l 1
 413 -90 l 1
 510 31 l 1
 510 382 l 1
 435 439 l 1
 360 382 l 1
 360 45 l 2
 360 33 355 21 347 13 c 0
 339 5 327 0 315 0 c 2
 285 0 l 1
 240 0 l 1
 240 90 l 1
 270 90 l 1
 270 720 l 1
 210 720 l 1
 120 652 l 1xf7
 120 -135 l 2
 120 -147 115 -159 107 -167 c 0
 99 -175 87 -180 75 -180 c 2
 0 -180 l 1
 0 -90 l 1xfb
EndSplineSet
Validated: 1
Ligature2: "'liga' Standard Ligatures lookup 1-1" longs h
LCarets2: 1 240 
EndChar

StartChar: longs_k
Encoding: 57409 57409 61
Width: 690
VWidth: 531
Flags: W
HStem: -180 21G<0 81> 0 21G<430 480> 405 90<0 30 240 270 450 600> 720 90<210 270>
VStem: 0 120<-166.622 -90 405 495> 30 90<-90 405 495 652> 270 90<158 405 540 608>
LayerCount: 2
Fore
SplineSet
0 -90 m 1xfa
 30 -90 l 1
 30 405 l 1xf6
 0 405 l 1
 0 495 l 1xfa
 30 495 l 1
 30 675 l 2
 30 689 37 703 48 711 c 2
 168 801 l 2
 176 807 185 810 195 810 c 2
 315 810 l 2
 327 810 339 805 347 797 c 0
 355 789 360 777 360 765 c 2
 360 720 l 1
 408 756 l 2
 416 762 425 765 435 765 c 0
 445 765 454 762 462 756 c 2
 582 666 l 2
 593 658 600 644 600 630 c 0
 600 616 593 602 582 594 c 2
 450 495 l 1
 600 495 l 1
 600 405 l 1
 360 405 l 1
 360 158 l 1
 450 90 l 1
 480 90 l 1
 480 0 l 1
 435 0 l 2
 425 0 416 3 408 9 c 2
 288 99 l 2
 277 107 270 121 270 135 c 2
 270 405 l 1
 240 405 l 1
 240 495 l 1
 270 495 l 1
 270 630 l 1
 270 720 l 1
 210 720 l 1
 120 652 l 1xf6
 120 -135 l 2
 120 -147 115 -159 107 -167 c 0
 99 -175 87 -180 75 -180 c 2
 0 -180 l 1
 0 -90 l 1xfa
360 540 m 1
 480 630 l 1
 435 664 l 1
 360 608 l 1
 360 540 l 1
EndSplineSet
Validated: 1
Ligature2: "'liga' Standard Ligatures lookup 1-1" longs k
LCarets2: 1 240 
EndChar

StartChar: longs_t
Encoding: 64261 64261 62
Width: 570
VWidth: 531
Flags: W
HStem: -180 21G<0 81> 0 21G<430 480> 405 90<0 30 240 270 360 480> 790 20G<190 201.5>
VStem: 0 120<-166.622 -90 405 495> 30 90<-90 405 495 652> 270 90<158 405 495 652>
LayerCount: 2
Fore
SplineSet
0 -90 m 1xfa
 30 -90 l 1
 30 405 l 1xf6
 0 405 l 1
 0 495 l 1xfa
 30 495 l 1
 30 675 l 2
 30 689 37 703 48 711 c 2
 168 801 l 2
 176 807 185 810 195 810 c 2
 197 810 l 2
 206 810 215 806 222 801 c 2
 342 711 l 2
 353 703 360 689 360 675 c 2
 360 495 l 1
 480 495 l 1
 480 405 l 1
 360 405 l 1
 360 158 l 1
 450 90 l 1
 480 90 l 1
 480 0 l 1
 435 0 l 2
 425 0 416 3 408 9 c 2
 288 99 l 2
 277 107 270 121 270 135 c 2
 270 405 l 1
 240 405 l 1
 240 495 l 1
 270 495 l 1
 270 652 l 1
 195 709 l 1
 120 652 l 1xf6
 120 -135 l 2
 120 -147 115 -159 107 -167 c 0
 99 -175 87 -180 75 -180 c 2
 0 -180 l 1
 0 -90 l 1xfa
EndSplineSet
Validated: 1
Ligature2: "'liga' Standard Ligatures lookup 1-1" longs t
LCarets2: 1 240 
EndChar

StartChar: longs_longs_t
Encoding: 57352 57352 63
Width: 810
VWidth: 531
Flags: W
HStem: -180 90<0 30 240 270> 0 21G<670 720> 405 90<0 30 240 270 480 510 600 720> 790 20G<430 441.5>
VStem: 0 120<-166.622 -90 405 495> 30 90<-90 405 495 622> 240 120<-166.622 -90 405 495> 270 90<-90 405 495 647> 510 90<158 405 495 652>
LayerCount: 2
Fore
SplineSet
0 -90 m 1xf880
 30 -90 l 1
 30 405 l 1xf480
 0 405 l 1
 0 495 l 1xf880
 30 495 l 1
 30 645 l 2
 30 659 37 673 48 681 c 2
 168 771 l 2
 175 776 183 779 191 780 c 0
 199 781 208 779 215 775 c 2
 310 728 l 1
 408 801 l 2
 416 807 425 810 435 810 c 2
 437 810 l 2
 446 810 455 806 462 801 c 2
 582 711 l 2
 593 703 600 689 600 675 c 2
 600 495 l 1
 720 495 l 1
 720 405 l 1
 600 405 l 1
 600 158 l 1
 690 90 l 1
 720 90 l 1
 720 0 l 1
 675 0 l 2
 665 0 656 3 648 9 c 2
 528 99 l 2
 517 107 510 121 510 135 c 2
 510 405 l 1
 480 405 l 1
 480 495 l 1
 510 495 l 1
 510 652 l 1
 435 709 l 1
 360 652 l 1xf580
 360 -135 l 2
 360 -147 355 -159 347 -167 c 0
 339 -175 327 -180 315 -180 c 2
 240 -180 l 1
 240 -90 l 1xf280
 270 -90 l 1
 270 405 l 1xf180
 240 405 l 1
 240 495 l 1xf280
 270 495 l 1
 270 647 l 1
 200 682 l 1
 120 622 l 1xf580
 120 -135 l 2
 120 -147 115 -159 107 -167 c 0
 99 -175 87 -180 75 -180 c 2
 0 -180 l 1
 0 -90 l 1xf880
EndSplineSet
Validated: 1
Ligature2: "'liga' Standard Ligatures lookup 1-1" longs longs t
LCarets2: 2 240 480 
EndChar

StartChar: longs_t_z
Encoding: 57353 57353 64
Width: 750
VWidth: 531
Flags: W
HStem: -180 90<0 30 450 480> 0 21G<430 480> 405 90<0 30 240 270 360 480> 790 20G<190 201.5>
VStem: 0 120<-166.622 -90 405 495> 30 90<-90 405 495 652> 270 90<158 405 495 652> 570 90<-22 112>
LayerCount: 2
Fore
SplineSet
0 -90 m 1xfb
 30 -90 l 1
 30 405 l 1xf7
 0 405 l 1
 0 495 l 1xfb
 30 495 l 1
 30 675 l 2
 30 689 37 703 48 711 c 2
 168 801 l 2
 176 807 185 810 195 810 c 2
 197 810 l 2
 206 810 215 806 222 801 c 2
 342 711 l 2
 353 703 360 689 360 675 c 2
 360 495 l 1
 495 495 l 2
 505 495 514 492 522 486 c 2
 642 396 l 2
 653 388 660 375 660 360 c 0
 660 349 656 338 649 330 c 2
 561 232 l 1
 642 171 l 2
 653 163 660 149 660 135 c 2
 660 -45 l 2
 660 -59 653 -73 642 -81 c 2
 522 -171 l 2
 514 -177 505 -180 495 -180 c 2
 450 -180 l 1
 450 -90 l 1
 480 -90 l 1
 570 -22 l 1
 570 112 l 1
 468 189 l 2
 457 197 450 210 450 225 c 0
 450 236 454 247 461 255 c 2
 549 353 l 1
 480 405 l 1
 360 405 l 1
 360 158 l 1
 450 90 l 1
 480 90 l 1
 480 0 l 1
 435 0 l 2
 425 0 416 3 408 9 c 2
 288 99 l 2
 277 107 270 121 270 135 c 2
 270 405 l 1
 240 405 l 1
 240 495 l 1
 270 495 l 1
 270 652 l 1
 195 709 l 1
 120 652 l 1xf7
 120 -135 l 2
 120 -147 115 -159 107 -167 c 0
 99 -175 87 -180 75 -180 c 2
 0 -180 l 1
 0 -90 l 1xfb
EndSplineSet
Validated: 1
Ligature2: "'liga' Standard Ligatures lookup 1-1" longs t z
LCarets2: 2 240 420 
EndChar

StartChar: longs_thorn
Encoding: 57410 57410 65
Width: 705
VWidth: 531
Flags: W
HStem: -180 90<0 30 240 270> 0 21G<430 440> 520 20G<430 440> 720 90<210 270>
VStem: 0 120<-166.622 -90 405 495> 30 90<-90 405 495 652> 270 90<-90 45 158 382 495 720> 510 90<158 382>
LayerCount: 2
Fore
SplineSet
0 -90 m 1xfb
 30 -90 l 1
 30 405 l 1xf7
 0 405 l 1
 0 495 l 1xfb
 30 495 l 1
 30 675 l 2
 30 689 37 703 48 711 c 2
 168 801 l 2
 176 807 185 810 195 810 c 2
 315 810 l 2
 327 810 339 805 347 797 c 0
 355 789 360 777 360 765 c 2
 360 495 l 1
 408 531 l 2
 416 537 425 540 435 540 c 0
 445 540 454 537 462 531 c 2
 582 441 l 2
 593 433 600 419 600 405 c 2
 600 135 l 2
 600 121 593 107 582 99 c 2
 462 9 l 2
 454 3 445 0 435 0 c 0
 425 0 416 3 408 9 c 2
 360 45 l 1
 360 -135 l 2
 360 -147 355 -159 347 -167 c 0
 339 -175 327 -180 315 -180 c 2
 240 -180 l 1
 240 -90 l 1
 270 -90 l 1
 270 720 l 1
 210 720 l 1
 120 652 l 1xf7
 120 -135 l 2
 120 -147 115 -159 107 -167 c 0
 99 -175 87 -180 75 -180 c 2
 45 -180 l 1
 0 -180 l 1
 0 -90 l 1xfb
360 158 m 1
 435 101 l 1
 510 158 l 1
 510 382 l 1
 435 439 l 1
 360 382 l 1
 360 158 l 1
EndSplineSet
Validated: 1
Ligature2: "'liga' Standard Ligatures lookup 1-1" longs thorn
LCarets2: 1 240 
EndChar

StartChar: longs_ij
Encoding: 57416 57416 66
Width: 720
VWidth: 531
Flags: W
HStem: -180 90<0 30 420 510> 0 90<360 420> 405 90<0 30 240 270 480 510> 600 120<510 600> 790 20G<190 201.5>
VStem: 0 120<-166.622 -90 405 495> 30 90<-90 405 495 652> 240 120<405 481.622> 270 90<90 405 600 652> 480 120<405 481.622> 510 90<-90 45 158 405 600 720>
LayerCount: 2
Fore
SplineSet
0 -90 m 1xfc
 30 -90 l 1
 30 405 l 1xfa
 0 405 l 1
 0 495 l 1xfc
 30 495 l 1
 30 675 l 2
 30 689 37 703 48 711 c 2
 168 801 l 2
 176 807 185 810 195 810 c 2
 197 810 l 2
 206 810 215 806 222 801 c 2
 342 711 l 2
 353 703 360 689 360 675 c 2
 360 600 l 1
 270 600 l 1
 270 652 l 1
 195 709 l 1
 120 652 l 1xfa80
 120 -135 l 2
 120 -147 115 -159 107 -167 c 0
 99 -175 87 -180 75 -180 c 2
 0 -180 l 1
 0 -90 l 1xfc
240 405 m 1xf9
 240 495 l 1
 315 495 l 2
 327 495 339 490 347 482 c 0
 355 474 360 462 360 450 c 2xf9
 360 90 l 1
 420 90 l 1
 510 158 l 1
 510 405 l 1xf8a0
 480 405 l 1
 480 495 l 1
 555 495 l 2
 567 495 579 490 587 482 c 0
 595 474 600 462 600 450 c 2xf840
 600 -135 l 2
 600 -147 595 -159 587 -167 c 0
 579 -175 567 -180 555 -180 c 2
 420 -180 l 1
 420 -90 l 1
 510 -90 l 1
 510 45 l 1
 462 9 l 2
 454 3 445 0 435 0 c 2
 315 0 l 2
 303 0 291 5 283 13 c 0
 275 21 270 33 270 45 c 2
 270 405 l 1xf8a0
 240 405 l 1xf9
510 600 m 1xf820
 510 720 l 1
 600 720 l 1
 600 600 l 1
 510 600 l 1xf820
EndSplineSet
Validated: 1
Ligature2: "'liga' Standard Ligatures lookup 1-1" longs ij
LCarets2: 1 240 
EndChar

StartChar: f_ij
Encoding: 57387 57387 67
Width: 720
VWidth: 531
Flags: W
HStem: -180 90<0 30 420 510> 0 90<360 420> 405 90<0 30 120 270 480 510> 600 120<510 600> 790 20G<190 201.5>
VStem: 30 90<-90 405 495 652> 270 90<90 405 600 652> 480 120<405 481.622> 510 90<-90 45 158 405 600 720>
LayerCount: 2
Fore
SplineSet
0 -90 m 1xfe80
 30 -90 l 1
 30 405 l 1
 0 405 l 1
 0 495 l 1
 30 495 l 1
 30 675 l 2
 30 689 37 703 48 711 c 2
 168 801 l 2
 176 807 185 810 195 810 c 2
 197 810 l 2
 206 810 215 806 222 801 c 2
 342 711 l 2
 353 703 360 689 360 675 c 2
 360 600 l 1
 270 600 l 1
 270 652 l 1
 195 709 l 1
 120 652 l 1
 120 495 l 1
 315 495 l 2
 327 495 339 490 347 482 c 0
 355 474 360 462 360 450 c 2
 360 90 l 1
 420 90 l 1
 510 158 l 1
 510 405 l 1xfe80
 480 405 l 1
 480 495 l 1
 555 495 l 2
 567 495 579 490 587 482 c 0
 595 474 600 462 600 450 c 2xff
 600 -135 l 2
 600 -147 595 -159 587 -167 c 0
 579 -175 567 -180 555 -180 c 2
 420 -180 l 1
 420 -90 l 1
 510 -90 l 1
 510 45 l 1
 462 9 l 2
 454 3 445 0 435 0 c 2
 315 0 l 2
 303 0 291 5 283 13 c 0
 275 21 270 33 270 45 c 2
 270 405 l 1
 120 405 l 1
 120 -135 l 2
 120 -147 115 -159 107 -167 c 0
 99 -175 87 -180 75 -180 c 2
 0 -180 l 1
 0 -90 l 1xfe80
510 600 m 1
 510 720 l 1
 600 720 l 1
 600 600 l 1
 510 600 l 1
EndSplineSet
Validated: 1
Ligature2: "'liga' Standard Ligatures lookup 1-1" f ij
LCarets2: 1 240 
EndChar

StartChar: t_t
Encoding: 57404 57404 68
Width: 570
VWidth: 531
Flags: W
HStem: 0 90<210 240 450 480> 405 90<0 30 120 270 360 480> 630 90<120 150 360 390>
VStem: 30 120<630 706.622> 30 90<158 405 495 630> 270 120<630 706.622> 270 90<158 405 495 630>
LayerCount: 2
Fore
SplineSet
0 405 m 1xea
 0 495 l 1
 30 495 l 1xea
 30 675 l 2
 30 687 35 699 43 707 c 0
 51 715 63 720 75 720 c 2
 150 720 l 1
 150 630 l 1xf0
 120 630 l 1
 120 495 l 1
 270 495 l 1xea
 270 675 l 2
 270 687 275 699 283 707 c 0
 291 715 303 720 315 720 c 2
 390 720 l 1
 390 630 l 1xe4
 360 630 l 1
 360 495 l 1
 480 495 l 1
 480 405 l 1
 360 405 l 1
 360 158 l 1
 450 90 l 1
 480 90 l 1
 480 0 l 1
 435 0 l 2
 425 0 416 3 408 9 c 2
 288 99 l 2
 277 107 270 121 270 135 c 2
 270 405 l 1
 120 405 l 1
 120 158 l 1
 210 90 l 1
 240 90 l 1
 240 0 l 1
 195 0 l 2
 185 0 176 3 168 9 c 2
 48 99 l 2
 37 107 30 121 30 135 c 2
 30 405 l 1
 0 405 l 1xea
EndSplineSet
Validated: 1
Ligature2: "'liga' Standard Ligatures lookup 1-1" t t
LCarets2: 1 240 
EndChar

StartChar: k_t
Encoding: 57421 57421 69
Width: 645
VWidth: 531
Flags: W
HStem: 0 90<210 240 525 555> 405 90<0 30 210 345 435 555> 700 20G<384 465> 790 20G<0 81>
VStem: 0 120<720 796.577> 30 90<158 405 540 608> 345 120<630 706.577> 345 90<158 405 495 630>
LayerCount: 2
Fore
SplineSet
0 405 m 1xf8
 0 495 l 1xf8
 30 495 l 1
 30 720 l 1xf4
 0 720 l 1
 0 810 l 1
 75 810 l 2
 87 810 98 805 107 797 c 1
 115 788 120 777 120 765 c 2
 120 720 l 1
 168 756 l 2
 176 762 186 765 196 765 c 0
 199 765 203 765 206 764 c 0
 219 760 231 751 236 738 c 2
 296 603 l 2
 300 594 301 583 299 574 c 0
 296 564 290 555 282 549 c 2
 210 495 l 1
 345 495 l 1xf9
 345 675 l 2
 345 687 350 698 358 707 c 1
 367 715 378 720 390 720 c 2
 420 720 l 1
 465 720 l 1
 465 630 l 1xf2
 435 630 l 1
 435 495 l 1
 555 495 l 1
 555 405 l 1
 435 405 l 1
 435 158 l 1
 525 90 l 1
 555 90 l 1
 555 0 l 1
 510 0 l 2
 500 0 491 3 483 9 c 2
 363 99 l 2
 352 107 345 121 345 135 c 2
 345 405 l 1
 120 405 l 1
 120 158 l 1
 210 90 l 1
 240 90 l 1
 240 0 l 1
 195 0 l 2
 185 0 176 3 168 9 c 2
 48 99 l 2
 37 107 30 121 30 135 c 2
 30 405 l 1xf5
 0 405 l 1xf8
120 540 m 1xf4
 199 600 l 1
 177 650 l 1
 120 608 l 1
 120 540 l 1xf4
EndSplineSet
Validated: 1
Ligature2: "'liga' Standard Ligatures lookup 1-1" k t
LCarets2: 1 315 
EndChar

StartChar: r_rrot
Encoding: 57423 57423 70
Width: 675
VWidth: 531
Flags: W
HStem: 0 90<0 30 197 225 330 374 527 555> 405 90<0 30 294 385> 520 20G<174.5 183>
VStem: 30 90<156 384>
LayerCount: 2
Fore
SplineSet
0 0 m 1
 0 90 l 1
 30 90 l 1
 30 405 l 1
 0 405 l 1
 0 495 l 1
 75 495 l 2
 84 495 94 492 101 487 c 1
 151 529 l 2
 159 536 169 540 180 540 c 0
 186 540 192 539 198 536 c 2
 294 495 l 1
 405 495 l 2
 418 495 430 489 439 480 c 2
 544 360 l 2
 549 354 553 346 554 338 c 0
 555 335 555 333 555 330 c 0
 555 325 554 319 552 314 c 2
 483 127 l 1
 527 90 l 1
 555 90 l 1
 555 0 l 1
 510 0 l 2
 499 0 489 4 481 11 c 2
 450 37 l 1
 447 29 l 2
 444 21 438 13 431 8 c 0
 423 3 414 0 405 0 c 2
 330 0 l 1
 330 90 l 1
 374 90 l 1
 459 320 l 1
 385 405 l 1
 285 405 l 2
 279 405 273 406 267 409 c 2
 188 443 l 1
 120 384 l 1
 120 156 l 1
 197 90 l 1
 225 90 l 1
 225 0 l 1
 180 0 l 2
 169 0 159 4 151 11 c 2
 119 38 l 1
 118 27 112 18 104 11 c 0
 96 4 86 0 75 0 c 2
 0 0 l 1
EndSplineSet
Validated: 1
Ligature2: "'liga' Standard Ligatures lookup 1-1" r rrot
LCarets2: 1 330 
EndChar

StartChar: c_h
Encoding: 57403 57403 71
Width: 825
VWidth: 531
Flags: W
HStem: -180 21G<507 561.5> 0 21G<175 185 429 510> 405 90<308 345> 520 20G<173.5 182.5 550 560> 790 20G<429 510>
VStem: 15 90<158 382> 390 120<13.3779 90 720 796.622> 390 90<90 382 495 720> 630 90<31 382>
LayerCount: 2
Fore
SplineSet
15 135 m 2xfc80
 15 405 l 2
 15 419 22 433 33 441 c 2
 153 531 l 2
 160 536 169 540 178 540 c 2
 180 540 l 2
 185 540 191 539 196 537 c 2
 308 495 l 1
 345 495 l 1
 345 405 l 1
 300 405 l 2
 295 405 289 406 284 408 c 2
 187 444 l 1
 105 382 l 1
 105 158 l 1
 180 101 l 1
 255 158 l 1
 255 180 l 1
 345 180 l 1
 345 138 l 1
 345 135 l 2
 345 121 338 107 327 99 c 2
 207 9 l 2
 199 3 190 0 180 0 c 0
 170 0 161 3 153 9 c 2
 33 99 l 2
 22 107 15 121 15 135 c 2xfc80
390 45 m 2xfe80
 390 765 l 2
 390 777 395 789 403 797 c 0
 411 805 423 810 435 810 c 2
 510 810 l 1
 510 720 l 1xfe80
 480 720 l 1
 480 495 l 1
 528 531 l 2
 536 537 545 540 555 540 c 0
 565 540 574 537 582 531 c 2
 702 441 l 2
 713 433 720 419 720 405 c 2
 720 15 l 2
 720 5 716 -5 710 -13 c 2
 590 -163 l 2
 582 -173 568 -180 555 -180 c 2
 507 -180 l 1
 507 -90 l 1
 533 -90 l 1
 630 31 l 1
 630 382 l 1
 555 439 l 1
 480 382 l 1
 480 90 l 1xfd80
 510 90 l 1
 510 0 l 1
 465 0 l 1
 435 0 l 2
 423 0 411 5 403 13 c 0
 395 21 390 33 390 45 c 2xfe80
EndSplineSet
Validated: 1
Ligature2: "'liga' Standard Ligatures lookup 1-1" c h
LCarets2: 1 375 
EndChar

StartChar: c_k
Encoding: 57402 57402 72
Width: 810
VWidth: 531
Flags: W
HStem: 0 21G<175 185 550 600> 405 90<308 390 570 720> 520 20G<173.5 181> 790 20G<360 441>
VStem: 15 90<158 382> 360 120<720 796.622> 390 90<158 405 540 608>
LayerCount: 2
Fore
SplineSet
15 135 m 2xfa
 15 405 l 2
 15 419 22 433 33 441 c 2
 153 531 l 2
 160 536 169 540 178 540 c 0
 184 540 190 539 196 537 c 2
 308 495 l 1
 390 495 l 1
 390 720 l 1xfa
 360 720 l 1
 360 810 l 1
 435 810 l 2
 447 810 459 805 467 797 c 0
 475 789 480 777 480 765 c 2
 480 720 l 1xfc
 528 756 l 2
 536 762 545 765 555 765 c 0
 565 765 574 762 582 756 c 2
 702 666 l 2
 713 658 720 644 720 630 c 0
 720 616 713 602 702 594 c 2
 570 495 l 1
 720 495 l 1
 720 405 l 1
 480 405 l 1
 480 158 l 1
 570 90 l 1
 600 90 l 1
 600 0 l 1
 555 0 l 2
 545 0 536 3 528 9 c 2
 408 99 l 2
 397 107 390 121 390 135 c 2
 390 405 l 5
 300 405 l 2
 295 405 289 406 284 408 c 2
 187 444 l 1
 105 382 l 1
 105 158 l 1
 180 101 l 1
 255 158 l 1
 255 180 l 1
 345 180 l 1
 345 138 l 1
 345 135 l 2
 345 121 338 107 327 99 c 2
 207 9 l 2
 199 3 190 0 180 0 c 0
 170 0 161 3 153 9 c 2
 33 99 l 2
 22 107 15 121 15 135 c 2xfa
480 540 m 1
 600 630 l 1
 555 664 l 1
 480 608 l 1
 480 540 l 1
EndSplineSet
Validated: 1
Ligature2: "'liga' Standard Ligatures lookup 1-1" c k
LCarets2: 1 375 
EndChar

StartChar: f_eth
Encoding: 57388 57388 73
Width: 705
VWidth: 531
Flags: W
HStem: -180 21G<0 81> 0 21G<430 440> 405 90<0 30 120 225> 720 90<210 280 486 510>
VStem: 30 90<-90 405 495 652> 270 90<158 382> 510 90<158 382>
CounterMasks: 1 0e
LayerCount: 2
Fore
SplineSet
0 -90 m 1
 30 -90 l 1
 30 405 l 1
 0 405 l 1
 0 495 l 1
 30 495 l 1
 30 675 l 2
 30 689 37 703 48 711 c 2
 168 801 l 2
 176 807 185 810 195 810 c 2
 295 810 l 2
 305 810 314 807 322 801 c 2
 392 748 l 1
 430 794 l 2
 438 804 452 810 465 810 c 2
 510 810 l 1
 510 720 l 1
 486 720 l 1
 464 694 l 1
 480 682 l 1
 510 682 l 1
 510 592 l 1
 465 592 l 2
 455 592 446 596 438 602 c 2
 407 625 l 1
 380 593 l 1
 582 441 l 2
 593 433 600 419 600 405 c 2
 600 135 l 2
 600 121 593 107 582 99 c 2
 462 9 l 2
 454 3 445 0 435 0 c 0
 425 0 416 3 408 9 c 2
 288 99 l 2
 277 107 270 121 270 135 c 2
 270 405 l 2
 270 419 277 433 288 441 c 2
 360 495 l 1
 288 549 l 2
 278 556 271 568 270 580 c 1
 270 585 l 2
 270 595 273 606 280 614 c 2
 335 679 l 1
 280 720 l 1
 210 720 l 1
 120 652 l 1
 120 495 l 1
 225 495 l 1
 225 405 l 1
 120 405 l 1
 120 -135 l 2
 120 -147 115 -159 107 -167 c 0
 99 -175 87 -180 75 -180 c 2
 0 -180 l 1
 0 -90 l 1
360 158 m 1
 435 101 l 1
 510 158 l 1
 510 382 l 1
 435 439 l 1
 360 382 l 1
 360 158 l 1
EndSplineSet
Validated: 1
Ligature2: "'liga' Standard Ligatures lookup 1-1" f eth
LCarets2: 1 240 
EndChar

StartChar: f_f_eth
Encoding: 57389 57389 74
Width: 945
VWidth: 531
Flags: W
HStem: -180 90<0 30 240 270> 0 21G<670 680> 405 90<0 30 120 270 360 465> 720 90<450 520 726 750>
VStem: 30 90<-90 405 495 622> 270 90<-90 405 495 647> 510 90<158 382> 750 90<158 382>
LayerCount: 2
Fore
SplineSet
0 -90 m 1
 30 -90 l 1
 30 405 l 1
 0 405 l 1
 0 495 l 1
 30 495 l 1
 30 645 l 2
 30 659 37 673 48 681 c 2
 168 771 l 2
 175 776 183 779 191 780 c 0
 199 781 208 779 215 775 c 2
 310 728 l 1
 408 801 l 2
 416 807 425 810 435 810 c 2
 535 810 l 2
 545 810 554 807 562 801 c 2
 632 748 l 1
 670 794 l 2
 678 804 692 810 705 810 c 2
 750 810 l 1
 750 720 l 1
 726 720 l 1
 704 694 l 1
 720 682 l 1
 750 682 l 1
 750 592 l 1
 705 592 l 2
 695 592 686 596 678 602 c 2
 647 625 l 1
 620 593 l 1
 822 441 l 2
 833 433 840 419 840 405 c 2
 840 135 l 2
 840 121 833 107 822 99 c 2
 702 9 l 2
 694 3 685 0 675 0 c 0
 665 0 656 3 648 9 c 2
 528 99 l 2
 517 107 510 121 510 135 c 2
 510 405 l 2
 510 419 517 433 528 441 c 2
 600 495 l 1
 528 549 l 2
 518 556 511 568 510 580 c 1
 510 585 l 2
 510 595 513 606 520 614 c 2
 575 679 l 1
 520 720 l 1
 450 720 l 1
 360 652 l 1
 360 495 l 1
 465 495 l 1
 465 405 l 1
 360 405 l 1
 360 -135 l 2
 360 -147 355 -159 347 -167 c 0
 339 -175 327 -180 315 -180 c 2
 240 -180 l 1
 240 -90 l 1
 270 -90 l 1
 270 405 l 1
 120 405 l 1
 120 -135 l 2
 120 -147 115 -159 107 -167 c 0
 99 -175 87 -180 75 -180 c 2
 0 -180 l 1
 0 -90 l 1
120 495 m 1
 270 495 l 1
 270 647 l 1
 200 682 l 1
 120 622 l 1
 120 495 l 1
600 158 m 1
 675 101 l 1
 750 158 l 1
 750 382 l 1
 675 439 l 1
 600 382 l 1
 600 158 l 1
EndSplineSet
Validated: 1
Ligature2: "'liga' Standard Ligatures lookup 1-1" f f eth
LCarets2: 2 240 480 
EndChar

StartChar: longs_eth
Encoding: 57414 57414 75
Width: 705
VWidth: 531
Flags: W
HStem: -180 21G<0 81> 0 21G<430 440> 720 90<210 280 486 510>
VStem: 0 120<-166.622 -90 405 495> 30 90<-90 405 495 652> 270 90<158 382> 510 90<158 382>
LayerCount: 2
Fore
SplineSet
0 -90 m 1xf6
 30 -90 l 1
 30 405 l 1xee
 0 405 l 1
 0 495 l 1xf6
 30 495 l 1
 30 675 l 2
 30 689 37 703 48 711 c 2
 168 801 l 2
 176 807 185 810 195 810 c 2
 295 810 l 2
 305 810 314 807 322 801 c 2
 392 748 l 1
 430 794 l 2
 438 804 452 810 465 810 c 2
 510 810 l 1
 510 720 l 1
 486 720 l 1
 464 694 l 1
 480 682 l 1
 510 682 l 1
 510 592 l 1
 465 592 l 2
 455 592 446 596 438 602 c 2
 407 625 l 1
 380 593 l 1
 582 441 l 2
 593 433 600 419 600 405 c 2
 600 135 l 2
 600 121 593 107 582 99 c 2
 462 9 l 2
 454 3 445 0 435 0 c 0
 425 0 416 3 408 9 c 2
 288 99 l 2
 277 107 270 121 270 135 c 2
 270 405 l 2
 270 419 277 433 288 441 c 2
 360 495 l 1
 288 549 l 2
 278 556 271 568 270 580 c 1
 270 585 l 2
 270 595 273 606 280 614 c 2
 335 679 l 1
 280 720 l 1
 210 720 l 1
 120 652 l 1xee
 120 -135 l 2
 120 -147 115 -159 107 -167 c 0
 99 -175 87 -180 75 -180 c 2
 0 -180 l 1
 0 -90 l 1xf6
360 158 m 1
 435 101 l 1
 510 158 l 1
 510 382 l 1
 435 439 l 1
 360 382 l 1
 360 158 l 1
EndSplineSet
Validated: 1
Ligature2: "'liga' Standard Ligatures lookup 1-1" longs eth
LCarets2: 1 240 
EndChar

StartChar: oslash
Encoding: 248 248 76
Width: 450
VWidth: 531
Flags: W
HStem: 0 21G<175 185> 520 20G<175 186.5>
VStem: 15 90<253 382> 255 90<158 287>
LayerCount: 2
Fore
SplineSet
-15 56 m 1
 -15 146 l 1
 10 146 l 1
 15 152 l 1
 15 405 l 2
 15 419 22 433 33 441 c 2
 153 531 l 2
 161 537 170 540 180 540 c 2
 182 540 l 2
 191 540 200 536 207 531 c 2
 294 466 l 1
 296 469 l 1
 304 478 317 484 330 484 c 2
 375 484 l 1
 375 394 l 1
 350 394 l 1
 345 388 l 1
 345 135 l 2
 345 121 338 107 327 99 c 2
 207 9 l 2
 199 3 190 0 180 0 c 0
 170 0 161 3 153 9 c 2
 66 74 l 1
 64 71 l 1
 56 62 43 56 30 56 c 2
 -15 56 l 1
105 253 m 1
 234 398 l 1
 180 439 l 1
 105 382 l 1
 105 253 l 1
126 142 m 1
 180 101 l 1
 255 158 l 1
 255 287 l 1
 126 142 l 1
EndSplineSet
Validated: 1
EndChar

StartChar: cent
Encoding: 162 162 77
Width: 465
VWidth: 531
Flags: W
HStem: 405 90<323 360>
VStem: 30 90<158 382> 150 90<-45 22 526 585>
LayerCount: 2
Fore
SplineSet
30 135 m 2
 30 405 l 2
 30 419 37 433 48 441 c 2
 150 518 l 1
 150 585 l 1
 240 585 l 1
 240 526 l 1
 323 495 l 1
 360 495 l 1
 360 405 l 1
 315 405 l 2
 310 405 304 406 299 408 c 2
 202 444 l 1
 120 382 l 1
 120 158 l 1
 195 101 l 1
 270 158 l 1
 270 180 l 1
 360 180 l 1
 360 135 l 2
 360 121 353 107 342 99 c 2
 240 22 l 1
 240 -45 l 1
 150 -45 l 1
 150 22 l 1
 48 99 l 2
 37 107 30 121 30 135 c 2
EndSplineSet
Validated: 1
EndChar

StartChar: at
Encoding: 64 64 78
Width: 900
VWidth: 531
Flags: W
HStem: -180 90<294.912 556.397> -135 90<588.887 780> -0 90<570 653.45> 495 25G<400 410 519.5 600> 630 90<304.467 537.477>
VStem: 30 90<120.554 410.994> 240 90<158 382> 480 90<158 382> 690 90<132.913 447.515>
LayerCount: 2
Fore
SplineSet
30 270 m 0xbf80
 30 391 66 503 131 585 c 0
 196 667 293 720 405 720 c 0
 501 720 598 699 669 628 c 0
 740 557 780 442 780 270 c 0
 780 152 757 80 708 39 c 0
 664 2 611 0 568 -0 c 2
 555 0 l 1
 525 0 l 2
 513 0 501 5 493 13 c 0
 485 21 480 33 480 45 c 1
 432 9 l 2
 424 3 415 0 405 0 c 0
 395 0 386 3 378 9 c 2
 258 99 l 2
 247 107 240 121 240 135 c 2
 240 405 l 2
 240 419 247 433 258 441 c 2
 378 531 l 2
 386 537 395 540 405 540 c 0
 415 540 424 537 432 531 c 2
 495 484 l 1
 503 491 514 495 525 495 c 2
 600 495 l 1
 600 405 l 1
 570 405 l 1
 570 90 l 1
 607 91 634 94 650 108 c 0
 669 124 690 164 690 270 c 0
 690 428 655 515 606 564 c 0
 557 613 489 630 405 630 c 0
 321 630 253 593 202 529 c 0
 151 465 120 374 120 270 c 0
 120 166 147 74 195 11 c 0
 243 -52 310 -90 405 -90 c 0xbf80
 505 -90 616 -45 735 -45 c 2
 780 -45 l 1
 780 -135 l 1
 735 -135 l 2x7f80
 641 -135 529 -180 405 -180 c 0
 285 -180 186 -126 123 -43 c 0
 60 40 30 151 30 270 c 0xbf80
330 158 m 1
 405 101 l 1
 480 158 l 1
 480 382 l 1
 405 439 l 1
 330 382 l 1
 330 158 l 1
EndSplineSet
Validated: 1
EndChar

StartChar: A
Encoding: 65 65 79
Width: 600
VWidth: 531
Flags: W
HStem: 0 21G<251.5 258.5 429 510> 720 90<30 202.375 480 510>
VStem: 251 89<523.391 681.461> 390 120<13.3779 62 720 796.622> 390 90<163 720>
LayerCount: 2
Fore
SplineSet
30 135 m 0xf0
 30 143 33 152 37 159 c 0
 146 335 233 493 248 590 c 0
 250 603 251 614 251 624 c 0
 251 652 243 669 228 683 c 0
 207 702 162 720 78 720 c 2
 30 720 l 1
 30 810 l 1
 78 810 l 2
 173 810 244 793 290 749 c 0
 326 715 340 668 340 619 c 0
 340 605 339 590 337 575 c 0
 318 455 237 313 139 153 c 1
 255 95 l 1
 390 163 l 1xe8
 390 765 l 2
 390 777 395 789 403 797 c 0
 411 805 423 810 435 810 c 2
 510 810 l 1
 510 720 l 1xf0
 480 720 l 1
 480 90 l 1xe8
 510 90 l 1
 510 0 l 1
 435 0 l 2
 423 0 411 5 403 13 c 0
 395 21 390 33 390 45 c 2
 390 62 l 1
 275 5 l 2
 269 2 262 0 255 0 c 0
 248 0 241 2 235 5 c 2
 55 95 l 2
 44 101 35 111 32 123 c 0
 31 127 30 131 30 135 c 0xf0
EndSplineSet
Validated: 1
Substitution2: "'ss02' Antiqua-Versalien-1" A.antiqua
EndChar

StartChar: B
Encoding: 66 66 80
Width: 585
VWidth: 531
Flags: W
HStem: 0 21G<0 81 251.5 258.5> 790 20G<0 81>
VStem: 0 120<13.3779 62 748 796.622> 30 90<163 377 478 647> 390 90<163 377>
LayerCount: 2
Fore
SplineSet
0 0 m 1xe8
 0 90 l 1xe8
 30 90 l 1
 30 720 l 1xd8
 0 720 l 1
 0 810 l 1
 75 810 l 2
 87 810 99 805 107 797 c 0
 115 789 120 777 120 765 c 2
 120 748 l 1
 235 805 l 2
 243 809 253 811 262 809 c 0
 271 807 280 804 287 797 c 2
 467 617 l 2
 475 609 480 597 480 585 c 0
 480 583 479 580 479 578 c 0
 477 564 468 551 455 545 c 2
 356 495 l 1
 455 445 l 2
 462 441 469 436 473 429 c 0
 477 422 480 413 480 405 c 2
 480 135 l 2
 480 127 477 118 473 111 c 0
 469 104 462 99 455 95 c 2
 275 5 l 2
 269 2 262 0 255 0 c 0
 248 0 241 2 235 5 c 2
 120 62 l 1
 120 45 l 2
 120 33 115 21 107 13 c 0
 99 5 87 0 75 0 c 2
 0 0 l 1xe8
120 163 m 1xd8
 255 95 l 1
 390 163 l 1
 390 377 l 1
 255 445 l 1
 120 377 l 1
 120 163 l 1xd8
120 478 m 1
 359 597 l 1
 246 710 l 1
 120 647 l 1
 120 478 l 1
EndSplineSet
Validated: 1
Substitution2: "'ss02' Antiqua-Versalien-1" B.antiqua
EndChar

StartChar: C
Encoding: 67 67 81
Width: 600
VWidth: 909
Flags: W
HStem: 0 90<179.241 307.405> 45 90<443.438 510> 675 90<473 510> 790 20G<205 231 335.5 347.5>
VStem: 30 90<216.094 657.455> 180 90<248 652>
LayerCount: 2
Fore
SplineSet
30 405 m 0xbc
 30 558 32 659 53 715 c 0
 65 749 89 777 120 792 c 0
 151 807 185 810 225 810 c 0
 237 810 249 805 257 797 c 0
 265 789 270 777 270 765 c 1
 318 801 l 2
 324 806 332 809 339 810 c 0
 341 810 343 810 345 810 c 0
 350 810 356 809 361 807 c 2
 473 765 l 1
 510 765 l 1
 510 675 l 1
 465 675 l 2
 460 675 454 676 449 678 c 2
 352 714 l 1
 270 652 l 1
 270 225 l 2
 270 211 263 197 252 189 c 2
 166 124 l 1
 175 112 186 106 201 100 c 0
 219 93 246 90 280 90 c 1xbc
 454 134 l 2
 458 135 461 135 465 135 c 2
 510 135 l 1
 510 45 l 1
 471 45 l 1x7c
 296 1 l 2
 292 0 289 0 285 0 c 0
 243 0 206 3 171 16 c 0
 136 29 104 52 83 86 c 0
 40 153 30 249 30 405 c 0xbc
120 405 m 0
 120 321 125 259 133 213 c 1
 180 248 l 1
 180 717 l 1
 159 713 143 706 137 684 c 1
 124 648 120 558 120 405 c 0
EndSplineSet
Validated: 1
Substitution2: "'ss02' Antiqua-Versalien-1" C.antiqua
EndChar

StartChar: D
Encoding: 68 68 82
Width: 600
VWidth: 909
Flags: W
HStem: 0 21G<0 81 251.5 258.5> 720 90<0 144.955>
VStem: 30 90<163 566> 390 90<163 413.5>
LayerCount: 2
Fore
SplineSet
0 0 m 1
 0 90 l 1
 30 90 l 1
 30 585 l 2
 30 597 35 609 43 617 c 2
 145 719 l 1
 115 720 82 720 45 720 c 2
 0 720 l 1
 0 810 l 1
 45 810 l 1
 100 810 l 2
 200 810 273 808 334 784 c 0
 370 770 402 746 423 713 c 0
 444 680 456 640 464 591 c 0
 479 498 480 369 480 179 c 2
 480 135 l 2
 480 127 477 118 473 111 c 0
 469 104 462 99 455 95 c 2
 275 5 l 2
 269 2 262 0 255 0 c 0
 248 0 241 2 235 5 c 2
 120 62 l 1
 120 45 l 2
 120 33 115 21 107 13 c 0
 99 5 87 0 75 0 c 2
 0 0 l 1
120 163 m 1
 255 95 l 1
 390 163 l 1
 390 361 388 495 375 577 c 0
 368 619 359 646 347 664 c 0
 335 682 323 691 301 700 c 0
 291 704 279 707 264 710 c 1
 120 566 l 1
 120 163 l 1
EndSplineSet
Validated: 1
Substitution2: "'ss02' Antiqua-Versalien-1" D.antiqua
EndChar

StartChar: E
Encoding: 69 69 83
Width: 600
VWidth: 909
Flags: W
HStem: 0 90<179.241 307.405> 45 90<443.438 510> 405 90<270 510> 675 90<473 510> 790 20G<205 231 335.5 347.5>
VStem: 30 90<216.094 657.455> 180 90<248 405 495 652>
LayerCount: 2
Fore
SplineSet
30 405 m 0xbe
 30 558 32 659 53 715 c 0
 65 749 89 777 120 792 c 0
 151 807 185 810 225 810 c 0
 237 810 249 805 257 797 c 0
 265 789 270 777 270 765 c 1
 318 801 l 2
 324 806 332 809 339 810 c 0
 341 810 343 810 345 810 c 0
 350 810 356 809 361 807 c 2
 473 765 l 1
 510 765 l 1
 510 675 l 1
 465 675 l 2
 460 675 454 676 449 678 c 2
 352 714 l 1
 270 652 l 1
 270 495 l 1
 510 495 l 1
 510 405 l 1
 270 405 l 1
 270 225 l 2
 270 211 263 197 252 189 c 2
 166 124 l 1
 175 112 186 106 201 100 c 0
 219 93 246 90 280 90 c 1xbe
 454 134 l 2
 458 135 461 135 465 135 c 2
 510 135 l 1
 510 45 l 1
 471 45 l 1x7e
 296 1 l 2
 292 0 289 0 285 0 c 0
 243 0 206 3 171 16 c 0
 136 29 104 52 83 86 c 0
 40 153 30 249 30 405 c 0xbe
120 405 m 0
 120 321 125 259 133 213 c 1
 180 248 l 1
 180 717 l 1
 159 713 143 706 137 684 c 1
 124 648 120 558 120 405 c 0
EndSplineSet
Validated: 1
Substitution2: "'ss02' Antiqua-Versalien-1" E.antiqua
EndChar

StartChar: F
Encoding: 70 70 84
Width: 570
VWidth: 909
Flags: W
HStem: -180 21G<251.5 258.5> -90 90<30 64> 405 90<30 115 260 480> 675 90<413.438 480> 790 20G<251.5 258.5>
LayerCount: 2
Fore
SplineSet
30 0 m 1
 75 0 l 2
 82 0 89 -2 95 -5 c 2
 255 -85 l 1
 375 -25 l 1
 160 405 l 1
 30 405 l 1
 30 495 l 1
 115 495 l 1
 35 655 l 2
 32 661 30 668 30 675 c 0
 30 680 30 684 32 689 c 0
 36 700 44 710 55 715 c 2
 235 805 l 2
 241 808 248 810 255 810 c 2
 257 810 l 2
 260 810 263 810 266 809 c 2
 441 765 l 1
 480 765 l 1
 480 675 l 1
 435 675 l 2
 431 675 428 675 424 676 c 2
 260 717 l 1
 135 655 l 1
 215 495 l 1
 480 495 l 1
 480 405 l 1
 260 405 l 1
 475 -25 l 2
 478 -31 480 -38 480 -45 c 0
 480 -50 480 -54 478 -59 c 0
 474 -70 466 -80 455 -85 c 2
 275 -175 l 2
 269 -178 262 -180 255 -180 c 0
 248 -180 241 -178 235 -175 c 2
 64 -90 l 1
 30 -90 l 1
 30 0 l 1
EndSplineSet
Validated: 1
Substitution2: "'ss02' Antiqua-Versalien-1" F.antiqua
EndChar

StartChar: G
Encoding: 71 71 85
Width: 615
VWidth: 909
Flags: W
HStem: 0 90<179.241 307.72> 405 91<270 393.891> 675 90<473 510> 790 20G<205 231 335.5 347.5>
VStem: 30 90<216.094 657.455> 180 90<248 405 496 652> 420 90<125 375.81>
LayerCount: 2
Fore
SplineSet
30 405 m 0
 30 558 32 659 53 715 c 0
 65 749 89 777 120 792 c 0
 151 807 185 810 225 810 c 0
 237 810 249 805 257 797 c 0
 265 789 270 777 270 765 c 1
 318 801 l 2
 324 806 332 809 339 810 c 0
 341 810 343 810 345 810 c 0
 350 810 356 809 361 807 c 2
 473 765 l 1
 510 765 l 1
 510 675 l 1
 465 675 l 2
 460 675 454 676 449 678 c 2
 352 714 l 1
 270 652 l 1
 270 496 l 1
 272 496 l 2
 330 496 375 494 415 477 c 0
 440 467 463 447 477 423 c 0
 491 399 498 371 502 338 c 0
 509 285 510 217 510 121 c 2
 510 90 l 2
 510 80 506 70 500 62 c 0
 494 54 486 48 476 46 c 2
 296 1 l 2
 292 0 289 0 285 0 c 0
 243 0 206 3 171 16 c 0
 136 29 104 52 83 86 c 0
 40 153 30 249 30 405 c 0
120 405 m 0
 120 321 125 259 133 213 c 1
 180 248 l 1
 180 717 l 1
 159 713 143 706 137 684 c 1
 124 648 120 558 120 405 c 0
166 124 m 1
 175 112 186 106 201 100 c 0
 219 93 246 90 280 90 c 1
 420 125 l 1
 420 217 419 284 413 326 c 0
 409 352 404 369 399 378 c 0
 394 387 390 390 380 394 c 0
 364 401 326 404 270 405 c 1
 270 225 l 2
 270 211 263 197 252 189 c 2
 166 124 l 1
EndSplineSet
Validated: 1
Substitution2: "'ss02' Antiqua-Versalien-1" G.antiqua
EndChar

StartChar: H
Encoding: 72 72 86
Width: 600
VWidth: 909
Flags: W
HStem: -180 21G<360 441> 0 21G<0 81> 405 90<120 365.013> 675 90<413.438 480> 790 20G<251.5 258.5>
VStem: 30 90<90 405 495 647> 390 90<-90 378>
LayerCount: 2
Fore
SplineSet
0 0 m 1
 0 90 l 1
 30 90 l 1
 30 675 l 2
 30 683 33 692 37 699 c 0
 41 706 48 711 55 715 c 2
 235 805 l 2
 241 808 248 810 255 810 c 2
 257 810 l 2
 260 810 263 810 266 809 c 2
 441 765 l 1
 480 765 l 1
 480 675 l 1
 435 675 l 2
 431 675 428 675 424 676 c 2
 260 717 l 1
 120 647 l 1
 120 495 l 1
 195 495 l 1
 214 495 l 2
 264 495 303 494 338 489 c 0
 377 483 415 467 439 435 c 0
 464 401 472 360 476 306 c 0
 480 255 480 190 480 106 c 2
 480 90 l 1
 480 -135 l 2
 480 -147 475 -159 467 -167 c 0
 459 -175 447 -180 435 -180 c 2
 360 -180 l 1
 360 -90 l 1
 390 -90 l 1
 390 90 l 2
 390 182 390 251 386 299 c 0
 382 347 373 372 366 382 c 0
 359 392 352 396 324 400 c 0
 296 404 253 405 195 405 c 2
 120 405 l 1
 120 45 l 2
 120 33 115 21 107 13 c 0
 99 5 87 0 75 0 c 6
 0 0 l 1
EndSplineSet
Validated: 1
Substitution2: "'ss02' Antiqua-Versalien-1" H.antiqua
EndChar

StartChar: I
Encoding: 73 73 87
Width: 570
VWidth: 909
Flags: W
HStem: 0 21G<222.5 227.5> 90 90<0 34> 405 90<330 360 450 480> 720 90<0 253.441 450 480>
VStem: 330 150<405 495> 360 90<125 405 495 647>
LayerCount: 2
Fore
SplineSet
0 90 m 1xf4
 0 180 l 1
 45 180 l 2
 52 180 59 178 65 175 c 2
 230 93 l 1
 360 125 l 1
 360 405 l 1xf4
 330 405 l 1
 330 495 l 1xf8
 360 495 l 1
 360 647 l 1
 340 657 l 2
 270 692 241 707 207 713 c 1
 175 720 132 720 45 720 c 2
 0 720 l 1
 0 810 l 1
 45 810 l 2
 132 810 179 810 224 802 c 1
 267 793 303 776 360 748 c 1
 360 765 l 2xf4
 360 777 365 788 373 797 c 1
 382 805 393 810 405 810 c 2
 480 810 l 1
 480 720 l 1xf8
 450 720 l 1
 450 495 l 1xf4
 480 495 l 1
 480 405 l 1xf8
 450 405 l 1
 450 90 l 2
 450 80 447 70 440 62 c 0
 434 54 426 49 416 46 c 2
 236 1 l 2
 233 0 229 0 226 0 c 0
 219 0 211 2 205 5 c 2
 34 90 l 1
 0 90 l 1xf4
EndSplineSet
Validated: 1
Substitution2: "'ss02' Antiqua-Versalien-1" I.antiqua
EndChar

StartChar: J
Encoding: 74 74 88
Width: 570
VWidth: 909
Flags: W
HStem: -180 90<130.386 215> 90 90<131.311 270> 405 90<330 360 450 480> 720 90<0 252.328 450 480>
VStem: 0 90<-55.0541 54.0516> 330 150<405 495> 360 90<-17 405 495 647>
LayerCount: 2
Fore
SplineSet
0 0 m 0xfa
 0 58 29 108 72 138 c 0
 115 168 168 180 225 180 c 2
 270 180 l 1
 270 90 l 1
 225 90 l 2
 182 90 145 80 123 64 c 0
 101 48 90 31 90 0 c 0
 90 -32 100 -49 122 -64 c 0
 142 -78 175 -89 215 -90 c 1
 360 -17 l 1
 360 405 l 1xfa
 330 405 l 1
 330 495 l 1xfc
 360 495 l 1
 360 647 l 1
 340 657 l 2
 294 680 264 694 241 703 c 0
 197 719 166 720 54 720 c 2
 45 720 l 1
 0 720 l 1
 0 810 l 1
 45 810 l 2
 164 810 212 810 272 788 c 0
 298 779 326 765 360 748 c 1
 360 765 l 2xfa
 360 777 365 789 373 797 c 0
 381 805 393 810 405 810 c 2
 480 810 l 1
 480 720 l 1xfc
 450 720 l 1
 450 495 l 1xfa
 480 495 l 1
 480 405 l 1xfc
 450 405 l 1
 450 -45 l 2
 450 -53 447 -62 443 -69 c 0
 439 -76 432 -81 425 -85 c 2
 245 -175 l 2
 239 -178 232 -180 225 -180 c 0
 167 -180 114 -168 71 -138 c 0
 28 -108 0 -58 0 0 c 0xfa
EndSplineSet
Validated: 1
Substitution2: "'ss02' Antiqua-Versalien-1" J.antiqua
EndChar

StartChar: IJ
Encoding: 306 306 89
Width: 930
VWidth: 909
Flags: W
HStem: -180 90<490.386 578> 0 21G<221.5 227> 90 90<0 34> 405 90<330 360 450 480 690 720 810 840> 720 90<0 253.585 450 613.837 810 840>
VStem: 330 150<405 495> 360 90<-54.0858 32 125 405 495 647> 690 150<405 495> 720 90<-17 405 495 647>
LayerCount: 2
Fore
SplineSet
0 90 m 1xfa80
 0 180 l 1
 45 180 l 2
 52 180 59 178 65 175 c 2
 230 93 l 1
 360 125 l 1
 360 405 l 1xfa80
 330 405 l 1
 330 495 l 1xfc
 360 495 l 1
 360 647 l 1
 340 657 l 2
 222 716 222 720 103 720 c 2
 45 720 l 1
 0 720 l 1
 0 810 l 1
 45 810 l 2
 215 810 244 805 360 748 c 1
 360 765 l 2
 360 777 365 789 373 797 c 0
 381 805 393 810 405 810 c 0
 575 810 604 805 720 748 c 1
 720 765 l 2xfa80
 720 777 725 789 733 797 c 0
 741 805 756 810 765 810 c 2
 840 810 l 1
 840 720 l 1xf9
 810 720 l 1
 810 675 l 1
 810 495 l 1xf880
 840 495 l 1
 840 405 l 1xf9
 810 405 l 1
 810 -45 l 2
 810 -53 807 -62 803 -69 c 0
 799 -76 792 -81 785 -85 c 2
 608 -175 l 2
 602 -178 595 -180 588 -180 c 2
 585 -180 l 2
 527 -180 474 -168 431 -138 c 0
 388 -108 360 -58 360 0 c 2
 360 32 l 1
 236 1 l 2
 232 0 229 0 225 0 c 0
 218 0 211 2 205 5 c 2
 34 90 l 1
 0 90 l 1xfa80
450 0 m 2
 450 -32 460 -49 482 -64 c 0
 503 -78 537 -89 578 -90 c 1
 720 -17 l 1
 720 405 l 1xfa80
 690 405 l 1
 690 495 l 1xf9
 720 495 l 1
 720 647 l 1
 700 657 l 2
 582 716 583 720 464 720 c 2
 450 720 l 1
 450 675 l 1
 450 495 l 1xfa80
 480 495 l 1
 480 405 l 1xfc
 450 405 l 1
 450 0 l 2
EndSplineSet
Validated: 1
EndChar

StartChar: K
Encoding: 75 75 90
Width: 570
VWidth: 909
Flags: W
HStem: 0 90<0 30 457 480> 520 20G<251.5 257> 675 90<413.438 480> 790 20G<251.5 258.5>
VStem: 30 90<90 377 478 647>
LayerCount: 2
Fore
SplineSet
0 0 m 1
 0 90 l 1
 30 90 l 5
 30 675 l 2
 30 683 33 692 37 699 c 0
 41 706 48 711 55 715 c 2
 235 805 l 2
 241 808 248 810 255 810 c 2
 257 810 l 2
 260 810 263 810 266 809 c 2
 441 765 l 1
 480 765 l 1
 480 675 l 1
 435 675 l 2
 431 675 428 675 424 676 c 2
 260 717 l 1
 120 647 l 1
 120 478 l 1
 235 535 l 2
 241 538 248 540 255 540 c 0
 259 540 262 540 266 539 c 2
 446 494 l 2
 454 492 460 488 466 482 c 0
 472 476 476 470 478 462 c 0
 480 454 480 447 478 439 c 0
 476 431 473 424 467 418 c 2
 315 267 l 1
 457 90 l 1
 480 90 l 1
 480 0 l 1
 435 0 l 2
 422 0 408 7 400 17 c 2
 220 242 l 2
 214 250 210 260 210 270 c 0
 210 283 215 294 223 302 c 2
 347 426 l 1
 260 447 l 1
 120 377 l 1
 120 45 l 2
 120 33 115 21 107 13 c 0
 99 5 87 0 75 0 c 2
 0 0 l 1
EndSplineSet
Validated: 1
Substitution2: "'ss02' Antiqua-Versalien-1" K.antiqua
EndChar

StartChar: L
Encoding: 76 76 91
Width: 570
VWidth: 909
Flags: W
HStem: 0 90<0 30 226.415 480> 450 90<210 348.689> 720 90<232.28 349.614>
VStem: 30 90<163 685> 390 90<575.948 685.054>
LayerCount: 2
Fore
SplineSet
0 0 m 1
 0 90 l 1
 30 90 l 1
 30 720 l 2
 30 730 34 740 40 748 c 0
 46 756 54 762 64 764 c 2
 244 809 l 2
 248 810 251 810 255 810 c 0
 313 810 366 798 409 768 c 0
 452 738 480 688 480 630 c 0
 480 572 451 522 408 492 c 0
 365 462 312 450 255 450 c 2
 210 450 l 1
 210 540 l 1
 255 540 l 2
 298 540 335 550 357 566 c 0
 379 582 390 599 390 630 c 0
 390 662 380 679 358 694 c 0
 337 709 302 719 260 720 c 1
 120 685 l 1
 120 163 l 1
 140 153 l 2
 258 94 258 90 377 90 c 2
 435 90 l 1
 480 90 l 1
 480 0 l 1
 435 0 l 2
 265 0 236 5 120 62 c 1
 120 45 l 2
 120 33 115 21 107 13 c 0
 99 5 87 0 75 0 c 2
 0 0 l 1
EndSplineSet
Validated: 1
Substitution2: "'ss02' Antiqua-Versalien-1" L.antiqua
EndChar

StartChar: M
Encoding: 77 77 92
Width: 900
VWidth: 909
Flags: W
HStem: 0 90<0 30 450 480 780 810> 790 20G<0 81 251.5 261 581.5 591>
VStem: 0 120<13.3779 90 748 796.622> 30 90<90 647> 360 90<90 647> 690 90<90 650>
LayerCount: 2
Fore
SplineSet
0 0 m 1xec
 0 90 l 1xec
 30 90 l 1
 30 720 l 1xdc
 0 720 l 1
 0 810 l 1
 75 810 l 6
 87 810 99 805 107 797 c 0
 115 789 120 777 120 765 c 2
 120 748 l 1xec
 235 805 l 2
 241 808 248 810 255 810 c 2
 257 810 l 2
 265 810 272 808 278 804 c 2
 407 726 l 1
 565 805 l 2
 571 808 578 810 585 810 c 2
 587 810 l 2
 595 810 602 808 608 804 c 2
 758 714 l 2
 765 710 770 704 774 697 c 0
 778 690 780 683 780 675 c 2
 780 90 l 1
 810 90 l 1
 810 0 l 1
 735 0 l 2
 723 0 711 5 703 13 c 0
 695 21 690 33 690 45 c 2
 690 650 l 1
 583 714 l 1
 450 647 l 1
 450 90 l 1
 480 90 l 1
 480 0 l 1
 405 0 l 2
 393 0 381 5 373 13 c 0
 365 21 360 33 360 45 c 2
 360 650 l 1
 253 714 l 1
 120 647 l 1xdc
 120 45 l 2
 120 33 115 21 107 13 c 0
 99 5 87 0 75 0 c 2
 0 0 l 1xec
EndSplineSet
Validated: 1
Substitution2: "'ss02' Antiqua-Versalien-1" M.antiqua
EndChar

StartChar: N
Encoding: 78 78 93
Width: 600
VWidth: 909
Flags: W
HStem: 0 90<0 30 480 510> 790 20G<0 81 251.5 258.5>
VStem: 0 120<13.3779 90 748 796.622> 30 90<90 647> 390 90<90 647>
LayerCount: 2
Fore
SplineSet
0 0 m 1xe8
 0 90 l 1xe8
 30 90 l 1
 30 720 l 1xd8
 0 720 l 1
 0 810 l 1
 75 810 l 2
 87 810 99 805 107 797 c 0
 115 789 120 777 120 765 c 2
 120 748 l 1xe8
 235 805 l 2
 241 808 248 810 255 810 c 0
 262 810 269 808 275 805 c 2
 455 715 l 2
 462 711 469 706 473 699 c 0
 477 692 480 683 480 675 c 2
 480 90 l 1
 510 90 l 1
 510 0 l 1
 435 0 l 2
 423 0 411 5 403 13 c 0
 395 21 390 33 390 45 c 2
 390 647 l 1
 255 715 l 1
 120 647 l 1xd8
 120 45 l 2
 120 33 115 21 107 13 c 0
 99 5 87 0 75 0 c 2
 0 0 l 1xe8
EndSplineSet
Validated: 1
Substitution2: "'ss02' Antiqua-Versalien-1" N.antiqua
EndChar

StartChar: O
Encoding: 79 79 94
Width: 630
VWidth: 909
Flags: W
HStem: 0 90<179.241 307.72> 720 90<360 399.447>
VStem: 30 90<216.094 657.455> 180 90<248 652> 420 90<125 376.051>
LayerCount: 2
Fore
SplineSet
30 405 m 0
 30 558 32 659 53 715 c 0
 65 749 89 777 120 792 c 0
 151 807 185 810 225 810 c 0
 237 810 249 805 257 797 c 0
 265 789 270 777 270 765 c 1
 318 801 l 2
 326 807 335 810 345 810 c 0
 351 810 357 810 363 810 c 2
 367 810 l 2
 390 810 413 808 437 793 c 0
 469 773 484 736 493 689 c 0
 509 599 510 442 510 134 c 2
 510 90 l 2
 510 80 506 70 500 62 c 0
 494 54 486 48 476 46 c 2
 296 1 l 2
 292 0 289 0 285 0 c 0
 243 0 206 3 171 16 c 0
 136 29 104 52 83 86 c 0
 40 153 30 249 30 405 c 0
120 405 m 0
 120 321 125 259 133 213 c 1
 180 248 l 1
 180 717 l 1
 159 713 143 706 137 684 c 1
 124 648 120 558 120 405 c 0
166 124 m 1
 175 112 186 106 201 100 c 0
 219 93 246 90 280 90 c 1
 420 125 l 1
 420 437 418 602 405 673 c 1
 396 715 400 719 360 720 c 1
 270 652 l 1
 270 360 l 1
 270 225 l 2
 270 211 263 197 252 189 c 2
 166 124 l 1
EndSplineSet
Validated: 1
Substitution2: "'ss02' Antiqua-Versalien-1" O.antiqua
EndChar

StartChar: P
Encoding: 80 80 95
Width: 600
VWidth: 909
Flags: W
HStem: -180 21G<0 81> 0 21G<251.5 258.5> 790 20G<0 81 251.5 257>
VStem: 0 120<-166.622 -90 748 796.622> 30 90<-90 62 163 647> 390 90<163 685>
LayerCount: 2
Fore
SplineSet
0 -90 m 1xf4
 30 -90 l 1
 30 720 l 1xec
 0 720 l 1
 0 810 l 1
 75 810 l 2
 87 810 99 805 107 797 c 0
 115 789 120 777 120 765 c 2
 120 748 l 1xf4
 235 805 l 2
 241 808 248 810 255 810 c 0
 259 810 262 810 266 809 c 2
 446 764 l 2
 456 762 464 756 470 748 c 0
 476 740 480 730 480 720 c 2
 480 135 l 2
 480 127 477 118 473 111 c 0
 469 104 462 99 455 95 c 2
 275 5 l 2
 269 2 262 0 255 0 c 0
 248 0 241 2 235 5 c 2
 120 62 l 1xec
 120 -135 l 2
 120 -147 115 -159 107 -167 c 0
 99 -175 87 -180 75 -180 c 2
 0 -180 l 1
 0 -90 l 1xf4
120 163 m 1
 255 95 l 1
 390 163 l 1
 390 685 l 1
 260 717 l 1
 120 647 l 1
 120 163 l 1
EndSplineSet
Validated: 1
Substitution2: "'ss02' Antiqua-Versalien-1" P.antiqua
EndChar

StartChar: Q
Encoding: 81 81 96
Width: 630
VWidth: 909
Flags: W
HStem: 0 90<179.241 307.72 510 555> 720 90<360 399.447>
VStem: 30 90<216.094 657.455> 180 90<248 652> 420 90<125 376.051>
LayerCount: 2
Fore
SplineSet
30 405 m 0
 30 558 32 659 53 715 c 0
 65 749 89 777 120 792 c 0
 151 807 185 810 225 810 c 0
 237 810 249 805 257 797 c 0
 265 789 270 777 270 765 c 1
 318 801 l 2
 326 807 335 810 345 810 c 0
 351 810 357 810 363 810 c 2
 367 810 l 2
 390 810 413 808 437 793 c 0
 469 773 484 736 493 689 c 0
 506 618 509 507 510 315 c 1
 510 90 l 1
 555 90 l 1
 555 0 l 1
 465 0 l 2
 455 0 446 3 438 9 c 0
 430 15 425 24 422 33 c 1
 296 1 l 2
 292 0 289 0 285 0 c 0
 243 0 206 3 171 16 c 0
 136 29 104 52 83 86 c 0
 40 153 30 249 30 405 c 0
120 405 m 0
 120 321 125 259 133 213 c 1
 180 248 l 1
 180 717 l 1
 159 713 143 706 137 684 c 1
 124 648 120 558 120 405 c 0
166 124 m 1
 175 112 186 106 201 100 c 0
 219 93 246 90 280 90 c 1
 420 125 l 1
 420 437 418 602 405 673 c 1
 396 715 400 719 360 720 c 1
 270 652 l 1
 270 225 l 2
 270 211 263 197 252 189 c 2
 192 144 l 1
 166 124 l 1
EndSplineSet
Validated: 1
Substitution2: "'ss02' Antiqua-Versalien-1" Q.antiqua
EndChar

StartChar: R
Encoding: 82 82 97
Width: 570
VWidth: 909
Flags: W
HStem: 0 90<0 30 462 480> 790 20G<0 81>
VStem: 0 120<13.3779 90 748 796.622> 30 90<90 647>
LayerCount: 2
Fore
SplineSet
0 0 m 1xe0
 0 90 l 1xe0
 30 90 l 1
 30 720 l 1xd0
 0 720 l 1
 0 810 l 1
 75 810 l 2
 87 810 99 805 107 797 c 0
 115 789 120 777 120 765 c 2
 120 748 l 1xe0
 235 805 l 2
 243 809 253 811 262 809 c 0
 271 807 280 804 287 797 c 2
 467 617 l 2
 475 609 480 597 480 585 c 0
 480 574 476 562 468 554 c 2
 310 383 l 1
 462 90 l 1
 480 90 l 1
 480 0 l 1
 435 0 l 2
 427 0 419 3 412 7 c 0
 405 11 399 17 395 24 c 2
 215 369 l 2
 211 377 209 387 210 396 c 0
 211 405 216 414 222 421 c 2
 373 584 l 1
 246 710 l 1
 120 647 l 1xd0
 120 45 l 2
 120 33 115 21 107 13 c 0
 99 5 87 0 75 0 c 2
 0 0 l 1xe0
EndSplineSet
Validated: 1
Substitution2: "'ss02' Antiqua-Versalien-1" R.antiqua
EndChar

StartChar: S
Encoding: 83 83 98
Width: 615
VWidth: 909
Flags: W
HStem: 0 21G<253 256.5> 45 90<30 96.5625> 405 90<128.107 393.669> 675 90<442.965 510> 790 20G<280.5 285.5>
VStem: 30 90<500.61 684> 420 90<126 377.948>
LayerCount: 2
Fore
SplineSet
30 45 m 1
 30 135 l 1
 75 135 l 2
 79 135 82 135 86 134 c 2
 256 91 l 1
 420 126 l 1
 420 205 419 265 415 307 c 0
 410 355 402 377 394 385 c 0
 387 392 376 397 348 401 c 0
 320 405 280 405 225 405 c 2
 211 405 l 2
 184 405 162 405 140 408 c 0
 115 412 87 422 68 443 c 0
 44 470 37 504 33 547 c 0
 30 587 30 636 30 704 c 2
 30 720 l 2
 30 730 34 740 40 748 c 0
 46 756 55 762 65 764 c 2
 272 809 l 2
 275 810 279 810 282 810 c 2
 284 810 l 2
 287 810 290 810 293 809 c 2
 471 765 l 1
 510 765 l 1
 510 675 l 1
 465 675 l 2
 461 675 458 675 454 676 c 2
 281 719 l 1
 120 684 l 1
 120 629 121 584 123 555 c 1
 126 527 121 500 152 497 c 0
 167 495 192 495 225 495 c 2
 241 495 l 2
 288 495 326 494 360 490 c 0
 397 485 433 474 459 447 c 0
 490 415 500 372 505 316 c 0
 510 264 510 197 510 107 c 2
 510 90 l 2
 510 80 506 70 500 62 c 0
 494 54 484 48 474 46 c 2
 264 1 l 2
 261 0 258 0 255 0 c 0
 251 0 248 0 244 1 c 2
 69 45 l 1
 30 45 l 1
EndSplineSet
Validated: 1
Substitution2: "'ss02' Antiqua-Versalien-1" S.antiqua
Substitution2: "'ss01' Alternative S-Majuskel-1" S.alt
EndChar

StartChar: T
Encoding: 84 84 99
Width: 600
VWidth: 909
Flags: W
HStem: 0 90<179.241 307.405> 45 90<443.438 510> 720 90<0 94 270 510>
VStem: 30 90<216.094 608.67> 180 90<248 683>
LayerCount: 2
Fore
SplineSet
0 720 m 1xb8
 0 810 l 1
 510 810 l 1
 510 720 l 1
 270 720 l 1
 270 225 l 2
 270 211 263 197 252 189 c 2
 166 124 l 1
 175 112 186 106 201 100 c 0
 219 93 246 90 280 90 c 1xb8
 454 134 l 2
 458 135 461 135 465 135 c 2
 510 135 l 1
 510 45 l 1
 471 45 l 1x78
 296 1 l 2
 292 0 289 0 285 0 c 0
 243 0 206 3 171 16 c 0
 136 29 104 52 83 86 c 0
 40 153 30 249 30 405 c 0
 30 562 51 651 87 709 c 0
 89 713 91 716 94 720 c 1
 0 720 l 1xb8
120 405 m 0
 120 321 125 259 133 213 c 1
 180 248 l 1
 180 683 l 1
 174 677 168 670 163 661 c 0
 141 625 120 554 120 405 c 0
EndSplineSet
Validated: 1
Substitution2: "'ss02' Antiqua-Versalien-1" T.antiqua
EndChar

StartChar: U
Encoding: 85 85 100
Width: 600
VWidth: 909
Flags: W
HStem: 0 21G<251.5 258.5 429 510> 720 90<0 30 360 390>
VStem: 0 120<720 796.622> 30 90<163 720> 360 120<720 796.622> 390 120<13.3779 62> 390 90<163 720>
LayerCount: 2
Fore
SplineSet
0 720 m 1xe0
 0 810 l 1
 75 810 l 2
 87 810 99 805 107 797 c 0
 115 789 120 777 120 765 c 2xe0
 120 163 l 1
 255 95 l 1
 390 163 l 1
 390 720 l 1xd2
 360 720 l 1
 360 810 l 1
 435 810 l 2
 447 810 459 805 467 797 c 0
 475 789 480 777 480 765 c 2xc8
 480 90 l 1xc2
 510 90 l 1
 510 0 l 1
 435 0 l 2
 423 0 411 5 403 13 c 0
 395 21 390 33 390 45 c 2
 390 62 l 1
 275 5 l 2
 269 2 262 0 255 0 c 0
 248 0 241 2 235 5 c 2
 55 95 l 2
 48 99 41 104 37 111 c 0
 33 118 30 127 30 135 c 2
 30 720 l 1xd4
 0 720 l 1xe0
EndSplineSet
Validated: 1
Substitution2: "'ss02' Antiqua-Versalien-1" U.antiqua
EndChar

StartChar: V
Encoding: 86 86 101
Width: 600
VWidth: 909
Flags: W
HStem: 0 21G<251.5 258.5> 720 90<0 30 210 359.23>
VStem: 0 120<720 796.622> 30 90<163 720> 390 90<163 410.092>
LayerCount: 2
Fore
SplineSet
0 720 m 1xe8
 0 810 l 1
 75 810 l 2
 87 810 99 805 107 797 c 0
 115 789 120 777 120 765 c 2xe8
 120 163 l 1
 255 95 l 1
 390 163 l 1
 390 433 389 585 374 656 c 0
 368 683 362 713 330 717 c 0
 314 720 288 720 255 720 c 2
 210 720 l 1
 210 810 l 1
 255 810 l 1
 270 810 l 2
 297 810 322 809 346 805 c 0
 374 800 404 787 425 762 c 0
 444 739 455 709 462 674 c 0
 479 590 480 459 480 230 c 2
 480 135 l 2
 480 127 477 118 473 111 c 0
 469 104 462 99 455 95 c 2
 275 5 l 2
 269 2 262 0 255 0 c 0
 248 0 241 2 235 5 c 2
 55 95 l 2
 48 99 41 104 37 111 c 0
 33 118 30 127 30 135 c 2
 30 720 l 1xd8
 0 720 l 1xe8
EndSplineSet
Validated: 1
Substitution2: "'ss02' Antiqua-Versalien-1" V.antiqua
EndChar

StartChar: W
Encoding: 87 87 102
Width: 960
VWidth: 909
Flags: W
HStem: 0 90<266 300> 720 90<0 30 570 718.601>
VStem: 30 90<163 647> 390 90<163 647> 750 90<163 409.112>
CounterMasks: 1 38
LayerCount: 2
Fore
SplineSet
0 720 m 1
 0 810 l 1
 75 810 l 2
 87 810 99 805 107 797 c 0
 115 789 120 777 120 765 c 2
 120 748 l 1
 235 805 l 2
 241 808 248 810 255 810 c 0
 262 810 269 808 275 805 c 2
 455 715 l 2
 462 711 469 706 473 699 c 0
 477 692 480 683 480 675 c 2
 480 163 l 1
 615 95 l 1
 750 163 l 1
 750 444 748 597 732 664 c 1
 724 693 718 713 686 717 c 0
 670 719 646 720 615 720 c 2
 570 720 l 1
 570 810 l 1
 615 810 l 1
 627 810 l 2
 653 810 677 809 700 806 c 0
 727 802 754 793 776 772 c 0
 798 750 811 720 819 685 c 0
 838 603 840 477 840 250 c 2
 840 135 l 2
 840 127 837 118 833 111 c 0
 829 104 822 99 815 95 c 2
 635 5 l 2
 629 2 622 0 615 0 c 0
 608 0 601 2 595 5 c 2
 415 95 l 2
 408 99 401 104 397 111 c 0
 393 118 390 127 390 135 c 2
 390 647 l 1
 255 715 l 1
 120 647 l 1
 120 163 l 1
 266 90 l 1
 300 90 l 1
 300 0 l 1
 255 0 l 2
 248 0 241 2 235 5 c 2
 55 95 l 2
 48 99 41 104 37 111 c 0
 33 118 30 127 30 135 c 2
 30 720 l 1
 0 720 l 1
EndSplineSet
Validated: 1
Substitution2: "'ss02' Antiqua-Versalien-1" W.antiqua
EndChar

StartChar: X
Encoding: 88 88 103
Width: 570
VWidth: 909
Flags: W
HStem: 0 90<320.628 480> 45 90<0 37> 405 90<60 195 285 420> 675 90<443 480> 720 90<0 178.362>
VStem: 195 90<151.259 405 495 662.976>
LayerCount: 2
Fore
SplineSet
0 45 m 1x64
 0 135 l 1
 45 135 l 2
 50 135 56 134 61 132 c 2
 154 97 l 1
 204 148 l 1
 196 203 195 279 195 385 c 2
 195 405 l 1
 60 405 l 1
 60 495 l 1
 195 495 l 1
 194 584 193 645 186 677 c 0
 183 693 178 701 175 705 c 0
 172 709 170 711 159 714 c 0
 142 719 103 720 45 720 c 2
 0 720 l 1
 0 810 l 1
 45 810 l 1
 79 810 l 2
 81 810 83 810 85 810 c 0
 123 810 154 809 184 800 c 0
 206 794 229 782 244 763 c 0
 245 762 246 761 246 760 c 2
 283 797 l 2
 289 803 297 807 305 809 c 0
 308 810 312 810 315 810 c 0x6c
 321 810 326 809 331 807 c 2
 443 765 l 1
 480 765 l 1
 480 675 l 1
 435 675 l 2
 430 675 424 676 419 678 c 2
 326 713 l 1
 279 665 l 1
 284 622 285 567 285 495 c 1
 420 495 l 1
 420 405 l 1
 285 405 l 1
 285 268 287 181 297 138 c 0
 304 108 309 105 320 99 c 0
 333 93 372 90 435 90 c 2
 480 90 l 1
 480 0 l 1
 435 0 l 1
 395 -0 l 2
 351 0 315 2 281 18 c 0
 264 26 250 39 238 54 c 1
 197 13 l 2
 191 7 183 3 175 1 c 0
 172 0 168 0 165 -0 c 0xb4
 159 0 154 1 149 3 c 2
 37 45 l 1
 0 45 l 1x64
EndSplineSet
Validated: 1
Substitution2: "'ss02' Antiqua-Versalien-1" X.antiqua
EndChar

StartChar: Y
Encoding: 89 89 104
Width: 600
VWidth: 909
Flags: W
HStem: -180 21G<251.5 258.5> -90 90<30 64> 0 21G<251.5 258.5> 720 90<0 30 360 390>
VStem: 0 120<720 796.622> 30 90<163 720> 360 120<720 796.622> 390 90<-17 62 163 720>
LayerCount: 2
Fore
SplineSet
0 720 m 1xb8
 0 810 l 1
 75 810 l 2
 87 810 99 805 107 797 c 0
 115 789 120 777 120 765 c 2xb8
 120 163 l 1
 255 95 l 1
 390 163 l 1
 390 720 l 1xb5
 360 720 l 1
 360 810 l 1
 435 810 l 2
 447 810 459 805 467 797 c 0
 475 789 480 777 480 765 c 2xb2
 480 -45 l 2
 480 -53 477 -62 473 -69 c 0
 469 -76 462 -81 455 -85 c 2
 275 -175 l 2
 269 -178 262 -180 255 -180 c 0
 248 -180 241 -178 235 -175 c 2
 64 -90 l 1
 30 -90 l 1
 30 0 l 1xd5
 75 0 l 2
 82 0 89 -2 95 -5 c 2
 255 -85 l 1
 390 -17 l 1
 390 62 l 1
 275 5 l 2
 269 2 262 0 255 0 c 0
 248 0 241 2 235 5 c 2
 55 95 l 2
 48 99 41 104 37 111 c 0
 33 118 30 127 30 135 c 2
 30 720 l 1xb5
 0 720 l 1xb8
EndSplineSet
Validated: 1
Substitution2: "'ss02' Antiqua-Versalien-1" Y.antiqua
EndChar

StartChar: Z
Encoding: 90 90 105
Width: 615
VWidth: 909
Flags: W
HStem: -180 90<164.652 314.947> 90 90<161.137 300> 405 90<180 284> 720 90<30 283.933 466 510>
VStem: 30 90<-47.5631 54.4481> 420 90<70.3145 334.867>
LayerCount: 2
Fore
SplineSet
30 -2 m 1
 30 5 l 2
 30 50 50 95 87 127 c 0
 126 161 183 180 254 180 c 2
 300 180 l 1
 300 90 l 1
 254 90 l 2
 199 90 166 76 146 59 c 0
 128 43 120 25 120 6 c 0
 120 -38 158 -90 255 -90 c 0
 290 -90 318 -73 346 -38 c 0
 374 -3 396 50 408 107 c 0
 415 142 420 177 420 212 c 0
 420 234 418 255 415 275 c 0
 407 326 388 366 366 386 c 0
 352 399 337 405 315 405 c 2
 180 405 l 1
 180 495 l 1
 284 495 l 1
 350 667 l 1
 251 717 245 720 125 720 c 2
 30 720 l 1
 30 810 l 1
 75 810 l 2
 241 810 272 806 382 752 c 1
 393 781 l 2
 396 789 402 797 409 802 c 0
 416 807 426 810 435 810 c 2
 510 810 l 1
 510 720 l 1
 466 720 l 1
 376 484 l 1
 395 477 412 466 426 453 c 0
 471 413 494 353 504 289 c 0
 508 264 510 238 510 212 c 0
 510 171 505 129 496 88 c 0
 482 21 456 -43 417 -93 c 0
 378 -143 322 -180 255 -180 c 0
 123 -180 34 -96 30 -2 c 1
EndSplineSet
Validated: 1
Substitution2: "'ss02' Antiqua-Versalien-1" Z.antiqua
EndChar

StartChar: Eszett
Encoding: 7838 7838 106
Width: 629
VWidth: 909
Flags: W
HStem: -180 90<210 313.766> 0 21G<0 81> 790 20G<250.5 261>
VStem: 30 90<90 647> 420 90<72.2552 335.283>
LayerCount: 2
Fore
SplineSet
0 0 m 1
 0 90 l 1
 30 90 l 1
 30 675 l 2
 30 683 33 692 37 699 c 0
 41 706 48 711 55 715 c 2
 235 805 l 2
 241 808 247 810 254 810 c 2
 255 810 l 2
 267 810 279 805 287 797 c 2
 467 617 l 2
 475 609 480 597 480 585 c 0
 480 574 476 563 469 555 c 2
 396 474 l 1
 422 459 445 437 461 412 c 0
 496 357 510 287 510 214 c 0
 510 205 509 195 509 186 c 0
 505 102 483 16 443 -54 c 0
 403 -124 338 -180 255 -180 c 2
 210 -180 l 1
 210 -90 l 1
 255 -90 l 2
 298 -90 334 -62 365 -9 c 0
 396 44 416 119 419 190 c 0
 419 197 420 203 420 210 c 0
 420 272 407 330 385 364 c 0
 367 393 348 405 315 405 c 0
 306 405 298 407 291 412 c 0
 284 417 278 424 274 432 c 0
 270 440 270 448 271 457 c 0
 272 466 275 474 281 480 c 2
 373 583 l 1
 246 710 l 1
 120 647 l 1
 120 45 l 2
 120 33 115 21 107 13 c 0
 99 5 87 0 75 0 c 2
 0 0 l 1
EndSplineSet
Validated: 1
Substitution2: "'ss02' Antiqua-Versalien-1" Eszett.antiqua
EndChar

StartChar: S.alt
Encoding: 57371 57371 107
Width: 615
VWidth: 909
Flags: W
HStem: 0 90<179.262 307.72> 405 90<180 391.717> 675 90<473 510> 720 90<145.394 337>
VStem: 30 90<175.716 657.455> 420 90<125 378.404>
LayerCount: 2
Fore
SplineSet
30 405 m 0xdc
 30 558 32 659 53 715 c 0
 65 749 89 777 120 792 c 0
 151 807 185 810 225 810 c 2
 345 810 l 2xdc
 350 810 356 809 361 807 c 2
 473 765 l 1
 510 765 l 1
 510 675 l 1
 465 675 l 2xec
 460 675 454 676 449 678 c 2
 337 720 l 1
 225 720 l 1
 189 719 151 723 137 684 c 0
 124 648 120 558 120 405 c 0
 120 254 136 170 159 134 c 0
 171 116 182 107 201 100 c 0
 219 93 246 90 280 90 c 1
 420 125 l 1
 420 241 418 317 408 354 c 0
 403 373 398 382 392 387 c 0
 386 392 377 397 358 400 c 0
 331 405 286 405 225 405 c 2
 180 405 l 1
 180 495 l 1
 225 495 l 1
 247 495 l 2
 297 495 337 494 373 488 c 0
 402 483 430 474 452 454 c 0
 474 434 487 407 495 377 c 0
 509 323 510 253 510 150 c 2
 510 90 l 2
 510 80 506 70 500 62 c 0
 494 54 486 48 476 46 c 2
 296 1 l 2
 292 0 289 0 285 0 c 0
 243 0 206 3 171 16 c 0
 136 29 104 52 83 86 c 0
 40 153 30 249 30 405 c 0xdc
EndSplineSet
Validated: 1
LCarets2: 8 0 0 0 0 0 0 0 0 
EndChar

StartChar: T_h
Encoding: 57417 57417 108
Width: 990
VWidth: 909
Flags: W
HStem: -180 21G<675 726.5> 0 90<179.241 307.405 645 675> 45 90<443.438 510> 520 20G<715 725> 720 90<0 94 270 555>
VStem: 30 90<216.094 608.67> 180 90<248 683> 555 90<90 382 495 720> 795 90<31 382>
LayerCount: 2
Fore
SplineSet
0 720 m 1xdf80
 0 810 l 1
 600 810 l 2
 612 810 624 805 632 797 c 0
 640 789 645 777 645 765 c 2
 645 495 l 1
 693 531 l 2
 701 537 710 540 720 540 c 0
 730 540 739 537 747 531 c 2
 867 441 l 2
 878 433 885 419 885 405 c 2
 885 15 l 2
 885 5 881 -5 875 -13 c 2
 755 -163 l 2
 747 -173 733 -180 720 -180 c 2
 675 -180 l 1
 675 -90 l 1
 698 -90 l 1
 795 31 l 1
 795 382 l 1
 720 439 l 1
 645 382 l 1
 645 90 l 1
 675 90 l 1
 675 0 l 1
 630 0 l 1
 600 0 l 2xdf80
 588 0 576 5 568 13 c 0
 560 21 555 33 555 45 c 2xbf80
 555 720 l 1
 270 720 l 1
 270 225 l 2
 270 211 263 197 252 189 c 2
 166 124 l 1
 175 112 186 106 201 100 c 0
 219 93 246 90 280 90 c 1xdf80
 454 134 l 2
 458 135 461 135 465 135 c 2
 510 135 l 1
 510 45 l 1
 471 45 l 1xbf80
 296 1 l 2
 292 0 289 0 285 0 c 0
 243 0 206 3 171 16 c 0
 136 29 104 52 83 86 c 0
 40 153 30 249 30 405 c 0
 30 562 51 651 87 709 c 0
 89 713 91 716 94 720 c 1
 0 720 l 1xdf80
120 405 m 0
 120 321 125 259 133 213 c 1
 180 248 l 1
 180 683 l 1
 174 677 168 670 163 661 c 0
 141 625 120 554 120 405 c 0
EndSplineSet
Validated: 1
Ligature2: "'liga' Standard Ligatures lookup 1-1" T h
LCarets2: 1 525 
EndChar

StartChar: AE
Encoding: 198 198 109
Width: 960
VWidth: 909
Flags: W
HStem: 0 90<480 666.562> 45 90<803.438 870> 405 90<630 870> 675 90<833 870> 720 90<30 202.375 480 540>
VStem: 251 89<523.391 681.461> 390 90<219 720> 540 90<252 405 495 652>
LayerCount: 2
Fore
SplineSet
30 135 m 0x67
 30 143 33 152 37 159 c 0
 146 335 233 493 248 590 c 0
 250 603 251 614 251 624 c 0
 251 652 243 669 228 683 c 0
 207 702 162 720 78 720 c 2
 30 720 l 1
 30 810 l 1
 78 810 l 2x6f
 173 810 244 793 290 749 c 0
 326 715 340 668 340 619 c 0
 340 605 339 590 337 575 c 0
 318 455 237 313 139 153 c 1
 254 96 l 1
 390 170 l 1
 390 765 l 2x37
 390 777 395 789 403 797 c 0
 411 805 423 810 435 810 c 2
 585 810 l 2x2f
 597 810 609 805 617 797 c 0
 625 789 630 777 630 765 c 1x37
 678 801 l 2
 684 806 692 809 699 810 c 0
 701 810 703 810 705 810 c 0x2f
 710 810 716 809 721 807 c 2
 833 765 l 1
 870 765 l 1
 870 675 l 1
 825 675 l 2
 820 675 814 676 809 678 c 2
 712 714 l 1
 630 652 l 1
 630 495 l 1
 870 495 l 1
 870 405 l 1
 630 405 l 1
 630 225 l 2
 630 217 628 209 624 202 c 0
 620 195 614 190 607 186 c 2
 480 116 l 1
 480 90 l 1
 639 90 l 1xb7
 814 134 l 2
 818 135 821 135 825 135 c 2
 870 135 l 1
 870 45 l 1
 831 45 l 1x67
 656 1 l 2
 652 0 649 0 645 0 c 2
 435 0 l 2xa7
 423 0 411 5 403 13 c 0
 395 21 390 33 390 45 c 2x67
 390 67 l 1
 277 6 l 2
 270 2 263 0 255 0 c 0xa7
 248 0 241 2 235 5 c 2
 55 95 l 2
 44 101 35 111 32 123 c 0
 31 127 30 131 30 135 c 0x67
480 219 m 1
 540 252 l 1
 540 720 l 1
 480 720 l 1
 480 219 l 1
EndSplineSet
Validated: 1
EndChar

StartChar: OE
Encoding: 338 338 110
Width: 990
VWidth: 909
Flags: W
HStem: -0 90<179.128 274> 45 90<833.438 900> 405 90<660 900> 675 90<863 900> 790 20G<205 231 335 347.5 612.5 619.5 725 737.5>
VStem: 30 90<216.072 657.455> 180 90<248 652> 420 90<219 687> 570 90<252 405 495 652>
LayerCount: 2
Fore
SplineSet
30 405 m 0xbf80
 30 558 32 659 53 715 c 0
 65 749 89 778 120 792 c 0
 152 807 185 810 225 810 c 0
 237 810 248 805 257 797 c 1
 265 788 270 777 270 765 c 1
 318 801 l 2
 324 806 331 808 339 810 c 0
 341 810 343 810 345 810 c 0
 350 810 356 809 361 807 c 2
 467 768 l 1
 602 808 l 2
 606 809 610 810 615 810 c 0
 624 810 634 807 642 801 c 0
 653 793 660 779 660 765 c 1
 708 801 l 2
 714 806 721 808 729 810 c 0
 731 810 733 810 735 810 c 0
 740 810 746 809 751 807 c 2
 863 765 l 1
 900 765 l 1
 900 675 l 1
 855 675 l 2
 850 675 844 676 839 678 c 2
 742 714 l 1
 660 652 l 1
 660 495 l 1
 900 495 l 1
 900 405 l 1
 660 405 l 1
 660 225 l 2
 660 217 658 209 654 202 c 0
 650 195 644 189 637 186 c 2
 564 146 l 1
 680 93 l 1
 844 134 l 2
 848 135 851 135 855 135 c 2
 900 135 l 1
 900 45 l 1
 861 45 l 1x7f80
 686 1 l 2
 682 0 679 0 675 0 c 0
 668 0 662 1 656 4 c 2
 466 92 l 1
 307 6 l 2
 300 2 292 0 285 -0 c 0
 243 0 205 3 171 16 c 1
 136 28 104 52 83 86 c 0
 40 153 30 249 30 405 c 0xbf80
120 405 m 0
 120 321 125 258 133 213 c 1
 180 248 l 1
 180 717 l 1
 159 713 143 706 137 684 c 1
 124 648 120 558 120 405 c 0
166 124 m 1
 175 113 186 106 201 100 c 0
 218 94 243 91 274 90 c 1xbf80
 420 170 l 1
 420 689 l 1
 352 714 l 1
 270 652 l 1
 270 225 l 2
 270 211 263 197 252 189 c 2
 192 144 l 1
 166 124 l 1
510 219 m 1
 570 252 l 1
 570 705 l 1
 510 687 l 1
 510 219 l 1
EndSplineSet
Validated: 1
EndChar

StartChar: Thorn
Encoding: 222 222 111
Width: 600
VWidth: 909
Flags: W
HStem: -180 21G<0 81> 0 21G<251.5 258.5> 790 20G<0 81>
VStem: 0 120<-166.622 -90 720 796.622> 30 90<-90 62 163 507 608 720> 390 90<163 545>
LayerCount: 2
Fore
SplineSet
0 -90 m 1xf4
 30 -90 l 1
 30 720 l 1xec
 0 720 l 1
 0 810 l 1
 75 810 l 2
 87 810 99 805 107 797 c 0
 115 789 120 777 120 765 c 2xf4
 120 608 l 1
 235 665 l 2
 241 668 248 670 255 670 c 0
 259 670 262 670 266 669 c 2
 446 624 l 2
 456 622 464 616 470 608 c 0
 476 600 480 590 480 580 c 2
 480 135 l 2
 480 127 477 118 473 111 c 0
 469 104 462 99 455 95 c 2
 275 5 l 2
 269 2 262 0 255 0 c 0
 248 0 241 2 235 5 c 2
 120 62 l 1xec
 120 -135 l 2
 120 -147 115 -159 107 -167 c 0
 99 -175 87 -180 75 -180 c 2
 0 -180 l 1
 0 -90 l 1xf4
120 163 m 1
 255 95 l 1
 390 163 l 1
 390 545 l 1
 260 577 l 1
 120 507 l 1
 120 163 l 1
EndSplineSet
Validated: 1
EndChar

StartChar: Eth
Encoding: 208 208 112
Width: 600
VWidth: 909
Flags: W
HStem: 0 21G<0 81 251.5 258.5> 405 90<0 30 120 255> 720 90<0 144.955>
VStem: 30 90<163 405 495 566> 390 90<163 413.5>
LayerCount: 2
Fore
SplineSet
0 0 m 1
 0 90 l 1
 30 90 l 1
 30 405 l 1
 0 405 l 1
 0 495 l 1
 30 495 l 1
 30 585 l 2
 30 597 35 609 43 617 c 2
 145 719 l 1
 115 720 82 720 45 720 c 2
 0 720 l 1
 0 810 l 1
 45 810 l 1
 91 810 l 1
 100 810 l 2
 200 810 273 808 334 784 c 0
 370 770 402 746 423 713 c 0
 444 680 456 640 464 591 c 0
 479 498 480 369 480 179 c 2
 480 135 l 2
 480 127 477 118 473 111 c 0
 469 104 462 99 455 95 c 2
 275 5 l 2
 269 2 262 0 255 0 c 0
 248 0 241 2 235 5 c 2
 120 62 l 1
 120 45 l 2
 120 33 115 21 107 13 c 0
 99 5 87 0 75 0 c 2
 0 0 l 1
120 163 m 1
 255 95 l 1
 390 163 l 1
 390 361 388 495 375 577 c 0
 368 619 359 646 347 664 c 0
 335 682 323 691 301 700 c 0
 291 704 279 707 264 710 c 1
 120 566 l 1
 120 495 l 1
 255 495 l 1
 255 405 l 1
 120 405 l 1
 120 163 l 1
EndSplineSet
Validated: 1
EndChar

StartChar: Oslash
Encoding: 216 216 113
Width: 630
VWidth: 909
Flags: W
HStem: 0 90<0 19 179.262 307.72> 720 90<360 384.213 491 510>
VStem: 30 90<274.268 657.455> 180 90<520 652> 420 90<125 351.839>
LayerCount: 2
Fore
SplineSet
0 0 m 1
 0 90 l 1
 19 90 l 1
 54 150 l 1
 35 212 30 293 30 405 c 0
 30 558 32 659 53 715 c 0
 65 749 89 777 120 792 c 0
 151 807 185 810 225 810 c 0
 237 810 249 805 257 797 c 0
 265 789 270 777 270 765 c 1
 318 801 l 2
 326 807 335 810 345 810 c 2
 361 810 l 1
 363 810 l 2
 381 810 399 809 419 801 c 0
 423 799 428 797 432 795 c 1
 440 804 453 810 465 810 c 2
 510 810 l 1
 510 720 l 1
 491 720 l 1
 488 714 l 1
 491 702 494 689 496 674 c 0
 510 578 510 413 510 98 c 2
 510 90 l 2
 510 80 506 70 500 62 c 0
 494 54 486 48 476 46 c 2
 296 1 l 2
 292 0 289 0 285 0 c 0
 243 0 206 3 171 16 c 0
 147 25 124 39 105 58 c 1
 84 22 l 2
 80 15 74 10 67 6 c 0
 60 2 53 0 45 0 c 2
 0 0 l 1
120 405 m 0
 120 353 122 309 125 272 c 1
 180 366 l 1
 180 717 l 1
 159 713 143 706 137 684 c 1
 124 648 120 558 120 405 c 0
154 143 m 1
 156 140 157 137 159 134 c 0
 171 116 182 107 201 100 c 0
 219 93 246 90 280 90 c 1
 420 125 l 1
 420 348 418 496 413 587 c 1
 154 143 l 1
270 520 m 1
 385 718 l 1
 381 719 373 720 360 720 c 1
 270 652 l 1
 270 520 l 1
EndSplineSet
Validated: 1
EndChar

StartChar: C_h
Encoding: 57419 57419 114
Width: 990
VWidth: 909
Flags: W
HStem: -180 21G<675 726.5> 0 90<179.241 307.405 645 675> 45 90<443.438 510> 520 20G<715 725> 790 20G<205 231 335.5 347.5 597 606>
VStem: 30 90<216.094 657.455> 180 90<248 652> 555 90<90 382 495 703> 795 90<31 382>
LayerCount: 2
Fore
SplineSet
30 405 m 0xdf80
 30 558 32 659 53 715 c 0
 65 749 89 777 120 792 c 0
 151 807 185 810 225 810 c 0
 237 810 249 805 257 797 c 0
 265 789 270 777 270 765 c 1
 318 801 l 2
 324 806 332 809 339 810 c 0
 341 810 343 810 345 810 c 0
 350 810 356 809 361 807 c 2
 466 768 l 1
 586 808 l 2
 590 809 595 810 599 810 c 2
 600 810 l 2
 612 810 623 805 631 797 c 0
 640 789 645 777 645 765 c 2
 645 495 l 1
 693 531 l 2
 701 537 710 540 720 540 c 0
 730 540 739 537 747 531 c 2
 867 441 l 2
 878 433 885 419 885 405 c 2
 885 15 l 2
 885 5 881 -5 875 -13 c 2
 755 -163 l 2
 747 -173 733 -180 720 -180 c 2
 675 -180 l 1
 675 -90 l 1
 698 -90 l 1
 795 31 l 1
 795 382 l 1
 720 439 l 1
 645 382 l 1
 645 90 l 1
 675 90 l 1
 675 0 l 1
 600 0 l 2xdf80
 588 0 576 5 568 13 c 0
 560 21 555 33 555 45 c 2xbf80
 555 703 l 1
 479 677 l 2
 469 674 459 674 449 678 c 2
 352 714 l 1
 270 652 l 1
 270 225 l 2
 270 211 263 197 252 189 c 2
 166 124 l 1
 175 112 186 106 201 100 c 0
 219 93 246 90 280 90 c 1xdf80
 454 134 l 2
 458 135 461 135 465 135 c 2
 510 135 l 1
 510 45 l 1
 471 45 l 1xbf80
 296 1 l 2
 292 0 289 0 285 0 c 0
 243 0 206 3 171 16 c 0
 136 29 104 52 83 86 c 0
 40 153 30 249 30 405 c 0xdf80
120 405 m 0
 120 321 125 259 133 213 c 1
 180 248 l 1
 180 717 l 1
 159 713 143 706 137 684 c 1
 124 648 120 558 120 405 c 0
EndSplineSet
Validated: 1
Ligature2: "'liga' Standard Ligatures lookup 1-1" C h
LCarets2: 1 525 
EndChar

StartChar: Euro
Encoding: 8364 8364 115
Width: 600
VWidth: 909
Flags: W
HStem: 0 90<179.241 307.405> 45 90<443.438 510> 315 90<0 30 122 180 270 510> 450 90<0 30 122 180 270 510> 675 90<473 510> 790 20G<205 231 335.5 347.5>
VStem: 30 90<214.316 315 405 450 540 694.056> 180 90<248 315 405 450 540 652>
LayerCount: 2
Fore
SplineSet
0 315 m 1xbf
 0 405 l 1
 30 405 l 1
 30 450 l 1
 0 450 l 1
 0 540 l 1
 31 540 l 1
 33 620 39 678 53 715 c 0
 65 749 89 777 120 792 c 0
 151 807 185 810 225 810 c 0
 237 810 249 805 257 797 c 0
 265 789 270 777 270 765 c 1
 318 801 l 2
 324 806 332 809 339 810 c 1
 344 810 l 1
 345 810 l 2
 350 810 356 809 361 807 c 2
 473 765 l 1
 510 765 l 1
 510 675 l 1
 465 675 l 2
 460 675 454 676 449 678 c 2
 352 714 l 1
 270 652 l 1
 270 540 l 1
 510 540 l 1
 510 450 l 1
 270 450 l 1
 270 405 l 1
 510 405 l 1
 510 315 l 1
 270 315 l 1
 270 225 l 2
 270 211 263 197 252 189 c 2
 166 124 l 1
 175 112 186 106 201 100 c 0
 219 93 246 90 280 90 c 1xbf
 454 134 l 2
 458 135 461 135 465 135 c 2
 510 135 l 1
 510 45 l 1
 471 45 l 1x7f
 296 1 l 2
 292 0 289 0 285 0 c 0
 243 0 206 3 171 16 c 0
 136 29 104 52 83 86 c 0
 49 139 36 210 32 315 c 1
 0 315 l 1xbf
120 405 m 1
 180 405 l 1
 180 450 l 1
 120 450 l 1
 120 405 l 1
122 315 m 1
 124 274 128 241 133 213 c 1
 180 248 l 1
 180 315 l 1
 122 315 l 1
122 540 m 1
 180 540 l 1
 180 717 l 1
 159 713 143 706 137 684 c 1
 128 660 124 613 122 540 c 1
EndSplineSet
Validated: 1
EndChar

StartChar: dollar
Encoding: 36 36 116
Width: 630
VWidth: 909
Flags: W
HStem: 45 90<30 96.522> 330 90<131.644 224 318 405.844> 585 90<441.072 510> 790 20G<245.98 337>
VStem: 30 90<430.531 594> 203 90<-90 8> 213 90<102 245.27> 237 90<465.77 618> 247 90<712 810> 420 90<126 316.891>
LayerCount: 2
Fore
SplineSet
30 45 m 1xfc40
 30 135 l 1
 75 135 l 2
 79 135 82 135 86 134 c 2
 213 102 l 1xfa40
 224 330 l 1
 195 330 169 331 146 335 c 0
 112 341 77 358 58 388 c 0
 41 414 36 444 33 480 c 0
 30 516 30 559 30 616 c 2
 30 630 l 2
 30 640 34 650 40 658 c 0
 46 666 56 672 66 674 c 2
 242 712 l 1
 247 810 l 1
 337 810 l 1xf8c0
 332 710 l 1
 468 675 l 1
 510 675 l 1
 510 585 l 1
 462 585 l 2
 458 585 455 585 451 586 c 2
 327 618 l 1xf940
 318 420 l 1
 342 420 363 419 382 416 c 0
 414 412 446 401 468 377 c 0
 499 344 505 301 508 243 c 0
 510 205 510 158 510 99 c 2
 510 90 l 2
 510 80 506 70 500 62 c 0
 494 54 484 48 474 46 c 2
 298 8 l 1
 293 -90 l 1
 203 -90 l 1
 208 10 l 1
 69 45 l 1
 30 45 l 1xfc40
120 594 m 1
 120 550 121 512 123 487 c 0
 127 453 124 429 161 424 c 0
 176 422 198 420 228 420 c 1
 237 619 l 1xf940
 120 594 l 1
303 101 m 1xfa40
 420 126 l 1
 420 171 420 210 418 238 c 0
 414 283 422 321 371 327 c 0
 357 329 337 330 314 330 c 1
 303 101 l 1xfa40
EndSplineSet
Validated: 1
EndChar

StartChar: yen
Encoding: 165 165 117
Width: 600
VWidth: 2167
Flags: W
HStem: -0 21G<180 261> 300 90<90 210 300 420> 455 90<89 149 361 419> 720 90<0 49 461 510>
VStem: 210 90<90 300 390 438>
LayerCount: 2
Fore
SplineSet
0 720 m 1
 0 810 l 1
 75 810 l 2
 83 810 91 808 98 804 c 0
 105 800 110 794 114 787 c 2
 253 545 l 1
 257 545 l 1
 396 787 l 2
 400 794 405 800 412 804 c 0
 419 808 427 810 435 810 c 2
 510 810 l 1
 510 720 l 1
 461 720 l 1
 361 545 l 1
 419 545 l 1
 419 455 l 1
 310 455 l 1
 300 438 l 1
 300 390 l 1
 420 390 l 1
 420 300 l 1
 300 300 l 1
 300 45 l 2
 300 33 295 21 287 13 c 0
 279 5 267 0 255 -0 c 2
 180 -0 l 1
 180 90 l 1
 210 90 l 1
 210 300 l 1
 90 300 l 1
 90 390 l 1
 210 390 l 1
 210 438 l 1
 200 455 l 1
 89 455 l 1
 89 545 l 1
 149 545 l 1
 49 720 l 1
 0 720 l 1
EndSplineSet
Validated: 1
EndChar

StartChar: trademark
Encoding: 8482 8482 118
Width: 1155
VWidth: 1074
Flags: W
HStem: 270 90<142.446 247.242 435 465 795 825 1035 1065> 300 90<323.519 390> 675 90<0 57 149.93 390 435 465> 790 20G<625 636.5 865 875>
VStem: 30 90<382.604 641.753> 465 90<360 652> 705 90<360 652> 945 90<360 652>
LayerCount: 2
Fore
SplineSet
0 675 m 1xbf
 0 765 l 1
 390 765 l 1
 390 675 l 1
 190 675 l 1
 168 666 155 661 145 648 c 0
 134 633 120 599 120 518 c 0
 120 435 132 394 143 380 c 0
 154 367 172 360 220 360 c 1xbf
 334 389 l 2
 338 390 341 390 345 390 c 2
 390 390 l 1
 390 300 l 1
 351 300 l 1x7f
 236 271 l 2
 232 270 229 270 225 270 c 0
 165 270 109 279 73 323 c 0
 37 367 30 428 30 518 c 0
 30 589 39 639 57 675 c 1
 0 675 l 1xbf
435 270 m 1
 435 360 l 1
 465 360 l 1
 465 675 l 1
 435 675 l 1
 435 765 l 1
 510 765 l 2
 521 765 532 761 540 754 c 1
 603 801 l 2
 611 807 620 810 630 810 c 2
 632 810 l 2
 641 810 650 806 657 801 c 2
 750 731 l 1
 843 801 l 2
 851 807 860 810 870 810 c 0
 880 810 889 807 897 801 c 2
 1017 711 l 2
 1028 703 1035 689 1035 675 c 2
 1035 360 l 1
 1065 360 l 1
 1065 270 l 1
 990 270 l 2
 978 270 966 275 958 283 c 0
 950 291 945 303 945 315 c 2
 945 652 l 1
 870 709 l 1
 795 652 l 1
 795 360 l 1
 825 360 l 1
 825 270 l 1
 750 270 l 2
 738 270 726 275 718 283 c 0
 710 291 705 303 705 315 c 2
 705 652 l 1
 630 709 l 1
 555 652 l 1
 555 315 l 2
 555 303 550 291 542 283 c 0
 534 275 522 270 510 270 c 2
 435 270 l 1
EndSplineSet
Validated: 1
EndChar

StartChar: servicemark
Encoding: 8480 8480 119
Width: 1155
VWidth: 1074
Flags: W
HStem: 270 90<435 465 795 825 1035 1065> 315 90<30 67> 495 90<128.337 289.953> 675 90<353 390 435 465> 790 20G<222 226 625 636.5 865 875>
VStem: 30 90<587.257 698> 300 90<382 486.948> 465 90<360 652> 705 90<360 652> 945 90<360 652>
LayerCount: 2
Fore
SplineSet
29 650 m 0x7fc0
 29 674 30 702 30 735 c 0
 30 745 33 756 40 764 c 0
 47 772 56 777 66 779 c 2
 216 809 l 2
 218 809 221 810 223 810 c 0
 229 810 235 809 241 807 c 2
 353 765 l 1
 390 765 l 1
 390 675 l 1
 345 675 l 2
 340 675 334 676 329 678 c 2
 221 718 l 1
 120 698 l 1
 121 628 127 592 128 587 c 1
 135 586 154 585 180 585 c 2
 197 585 l 2
 230 585 257 585 281 582 c 0
 309 578 339 568 359 545 c 0
 379 522 384 493 387 462 c 0
 390 434 390 400 390 358 c 2
 390 345 l 2
 390 335 387 324 380 316 c 0
 373 308 364 303 354 301 c 2
 204 271 l 2
 201 270 198 270 195 270 c 0xbfc0
 190 270 184 271 179 273 c 2
 67 315 l 1
 30 315 l 1
 30 405 l 1
 75 405 l 2
 80 405 86 404 91 402 c 2
 199 362 l 1
 300 382 l 1
 300 411 300 437 298 454 c 0
 296 478 291 486 290 487 c 0
 289 488 288 490 270 492 c 0
 252 494 221 495 180 495 c 2
 164 495 l 2
 145 495 128 495 110 499 c 0
 87 504 60 520 48 543 c 0
 32 574 29 604 29 650 c 0x7fc0
435 270 m 1
 435 360 l 1
 465 360 l 1
 465 675 l 1
 435 675 l 1
 435 765 l 1
 510 765 l 2
 521 765 532 761 540 754 c 1
 603 801 l 2
 611 807 620 810 630 810 c 2
 632 810 l 2
 641 810 650 806 657 801 c 2
 750 731 l 1
 843 801 l 2
 851 807 860 810 870 810 c 0
 880 810 889 807 897 801 c 2
 1017 711 l 2
 1028 703 1035 689 1035 675 c 2
 1035 360 l 1
 1065 360 l 1
 1065 270 l 1
 990 270 l 2xbfc0
 978 270 966 275 958 283 c 0
 950 291 945 303 945 315 c 2x7fc0
 945 652 l 1
 870 709 l 1
 795 652 l 1
 795 360 l 1
 825 360 l 1
 825 270 l 1
 750 270 l 2xbfc0
 738 270 726 275 718 283 c 0
 710 291 705 303 705 315 c 2
 705 652 l 1
 630 709 l 1
 555 652 l 1
 555 315 l 2x7fc0
 555 303 550 291 542 283 c 0
 534 275 522 270 510 270 c 2
 435 270 l 1
EndSplineSet
Validated: 1
EndChar

StartChar: copyright
Encoding: 169 169 120
Width: 889
VWidth: 568
Flags: W
HStem: 40 86<295.858 504.024> 188 90<345.239 423.38> 210 90<468.62 537> 498 90<500 538> 532 90<349.33 392> 684 86<295.858 504.024>
VStem: 30 94<299.458 510.542> 240 90<289.344 518.513> 675 94<299.458 510.542>
LayerCount: 2
Fore
SplineSet
30 405 m 0x8780
 30 604 194 770 400 770 c 0
 606 770 769 604 769 405 c 0
 769 206 606 40 400 40 c 4
 194 40 30 206 30 405 c 0x8780
124 405 m 0
 124 248 250 126 400 126 c 0
 550 126 675 248 675 405 c 0
 675 562 550 684 400 684 c 0
 250 684 124 562 124 405 c 0
240 388 m 2
 240 405 l 2
 240 482 247 535 277 574 c 0
 307 613 356 622 400 622 c 0xcf80
 404 622 411 622 415 620 c 2
 500 588 l 1
 538 588 l 1
 538 498 l 1
 493 498 l 1
 492 498 l 2x9780
 487 498 480 499 476 501 c 2
 392 532 l 1
 365 531 356 529 349 519 c 0
 341 509 330 474 330 405 c 2
 330 388 l 2
 330 325 339 296 345 289 c 0
 350 282 361 278 395 278 c 1xcf80
 481 299 l 2
 484 300 489 300 492 300 c 2
 537 300 l 1
 537 210 l 1
 497 210 l 1xa780
 411 189 l 2
 408 188 403 188 400 188 c 0xc780
 353 188 305 195 275 232 c 0
 245 269 240 319 240 388 c 2
EndSplineSet
Validated: 1
EndChar

StartChar: registered
Encoding: 174 174 121
Width: 889
VWidth: 528
Flags: W
HStem: 40 86<295.858 504.024> 188 90<247 270 526 567> 684 86<295.858 504.024>
VStem: 30 94<299.458 510.542> 270 90<278 486> 675 94<299.458 510.542>
LayerCount: 2
Fore
SplineSet
30 405 m 0
 30 604 194 770 400 770 c 0
 606 770 769 604 769 405 c 0
 769 206 606 40 400 40 c 4
 194 40 30 206 30 405 c 0
124 405 m 0
 124 248 250 126 400 126 c 0
 550 126 675 248 675 405 c 0
 675 562 550 684 400 684 c 0
 250 684 124 562 124 405 c 0
247 188 m 1
 247 278 l 1
 270 278 l 1
 270 498 l 1
 247 498 l 1
 247 588 l 1
 315 588 l 2
 323 588 331 586 338 582 c 1
 380 614 l 2
 388 620 397 623 407 623 c 0
 408 623 408 622 409 622 c 0
 418 622 427 619 434 614 c 2
 526 544 l 2
 537 536 544 524 544 509 c 0
 544 498 540 487 533 479 c 2
 462 399 l 1
 526 278 l 1
 567 278 l 1
 567 188 l 1
 499 188 l 2
 491 188 483 190 476 194 c 0
 469 198 463 204 459 211 c 2
 367 384 l 2
 363 392 361 401 362 410 c 0
 363 419 367 428 373 435 c 2
 433 502 l 1
 407 521 l 1
 360 486 l 1
 360 232 l 2
 360 220 355 209 347 201 c 0
 339 193 327 188 315 188 c 2
 247 188 l 1
EndSplineSet
Validated: 1
EndChar

StartChar: circleP
Encoding: 8471 8471 122
Width: 889
VWidth: 528
Flags: W
HStem: 40 86<295.858 504.024> 684 86<295.858 504.024>
VStem: 30 94<299.458 510.542> 272 108<194.207 270> 290 90<382 501> 436 90<382 501> 675 94<299.458 510.542>
LayerCount: 2
Fore
SplineSet
30 405 m 0xe6
 30 604 194 770 400 770 c 0
 606 770 769 604 769 405 c 0
 769 206 606 40 400 40 c 4
 194 40 30 206 30 405 c 0xe6
124 405 m 0
 124 248 250 126 400 126 c 0
 550 126 675 248 675 405 c 0
 675 562 550 684 400 684 c 0
 250 684 124 562 124 405 c 0
272 188 m 1xf6
 272 278 l 1xf6
 290 278 l 1
 290 305 l 1
 290 360 l 1
 290 505 l 1xee
 272 505 l 1
 272 595 l 1
 317 595 l 1
 335 595 l 2
 340 595 348 594 352 592 c 1
 381 614 l 2
 388 619 400 623 408 623 c 0
 409 623 409 622 410 622 c 0
 418 622 429 619 435 614 c 2
 508 559 l 2
 518 552 526 535 526 523 c 2
 526 360 l 2
 526 348 518 331 508 324 c 2
 435 269 l 2
 428 264 416 260 408 260 c 0
 400 260 388 264 381 269 c 1
 380 270 l 1
 380 260 l 1
 380 232 l 2
 380 207 360 188 335 188 c 2
 317 188 l 1
 272 188 l 1xf6
380 382 m 1xee
 408 361 l 1
 436 382 l 1
 436 501 l 1
 408 521 l 1
 380 501 l 1
 380 382 l 1xee
EndSplineSet
Validated: 1
EndChar

StartChar: period
Encoding: 46 46 123
Width: 240
VWidth: 1076
Flags: W
HStem: -30 149
VStem: 0 150
LayerCount: 2
Fore
SplineSet
0 45 m 1
 76 119 l 1
 150 45 l 1
 75 -30 l 1
 0 45 l 1
EndSplineSet
Validated: 1
EndChar

StartChar: comma
Encoding: 44 44 124
Width: 240
VWidth: 1076
Flags: W
HStem: -90 270<36.4806 113.519>
VStem: 30 120<90 173.519>
LayerCount: 2
Fore
SplineSet
0 0 m 1
 30 0 l 1
 30 135 l 2
 30 160 50 180 75 180 c 2
 150 180 l 1
 150 90 l 1
 120 90 l 1
 120 -45 l 2
 120 -70 100 -90 75 -90 c 2
 0 -90 l 1
 0 0 l 1
EndSplineSet
Validated: 1
EndChar

StartChar: colon
Encoding: 58 58 125
Width: 240
VWidth: 1076
Flags: W
HStem: 504 20G<55.4595 96>
VStem: 0 150
LayerCount: 2
Fore
SplineSet
0 45 m 1
 76 119 l 1
 150 45 l 1
 75 -30 l 1
 0 45 l 1
0 450 m 1
 76 524 l 1
 150 450 l 1
 75 375 l 1
 0 450 l 1
EndSplineSet
Validated: 1
EndChar

StartChar: semicolon
Encoding: 59 59 126
Width: 240
VWidth: 1076
Flags: W
HStem: 504 20G<55.4595 96>
VStem: 30 120<90 173.519>
LayerCount: 2
Fore
SplineSet
0 0 m 1
 30 0 l 1
 30 135 l 2
 30 160 50 180 75 180 c 2
 105 180 l 1
 150 180 l 1
 150 90 l 1
 120 90 l 1
 120 -45 l 2
 120 -70 100 -90 75 -90 c 2
 45 -90 l 1
 0 -90 l 1
 0 0 l 1
0 450 m 1
 76 524 l 1
 150 450 l 1
 75 375 l 1
 0 450 l 1
EndSplineSet
Validated: 1
EndChar

StartChar: question
Encoding: 63 63 127
Width: 525
VWidth: 1076
Flags: W
HStem: 675 90<0 64.6249> 790 20G<208 214>
VStem: 150 90<270 422> 330 90<568 648>
LayerCount: 2
Fore
SplineSet
0 675 m 1
 0 765 l 1
 39 765 l 1
 198 808 l 2
 202 809 206 810 210 810 c 0
 218 810 225 809 232 805 c 2
 397 715 l 2
 404 711 410 705 414 698 c 0
 418 691 420 683 420 675 c 2
 420 540 l 2
 420 532 417 523 413 516 c 0
 409 509 402 504 395 500 c 2
 240 422 l 1
 240 270 l 1
 270 270 l 1
 270 180 l 1
 195 180 l 2
 183 180 171 185 163 193 c 0
 155 201 150 213 150 225 c 2
 150 450 l 2
 150 458 153 467 157 474 c 0
 161 481 168 486 175 490 c 2
 330 568 l 1
 330 648 l 1
 204 717 l 1
 57 677 l 2
 53 676 49 675 45 675 c 2
 0 675 l 1
135 45 m 1
 210 120 l 1
 285 45 l 1
 210 -30 l 1
 135 45 l 1
EndSplineSet
EndChar

StartChar: exclam
Encoding: 33 33 128
Width: 240
VWidth: 1076
Flags: W
HStem: 790 20G<0 87.5>
VStem: 0 120<720 803.519>
LayerCount: 2
Fore
SplineSet
0 720 m 1
 0 810 l 1
 75 810 l 2
 100 810 120 790 120 765 c 2
 120 270 l 1
 150 270 l 1
 150 180 l 1
 75 180 l 2
 50 180 30 200 30 225 c 2
 30 720 l 1
 0 720 l 1
15 45 m 1
 90 120 l 1
 165 45 l 1
 90 -30 l 1
 15 45 l 1
EndSplineSet
EndChar

StartChar: quotedblbase
Encoding: 8222 8222 129
Width: 405
VWidth: 1076
Flags: W
HStem: -90 90<0 30 165 195> 90 90<120 150 285 315>
VStem: 30 120<90 173.519> 195 120<90 173.519>
LayerCount: 2
Fore
SplineSet
0 0 m 1
 30 0 l 1
 30 135 l 2
 30 160 50 180 75 180 c 2
 105 180 l 1
 150 180 l 1
 150 90 l 1
 120 90 l 1
 120 -45 l 2
 120 -70 100 -90 75 -90 c 2
 45 -90 l 1
 0 -90 l 1
 0 0 l 1
165 0 m 1
 195 0 l 1
 195 135 l 2
 195 160 215 180 240 180 c 2
 270 180 l 1
 315 180 l 1
 315 90 l 1
 285 90 l 1
 285 -45 l 2
 285 -70 265 -90 240 -90 c 2
 210 -90 l 1
 165 -90 l 1
 165 0 l 1
EndSplineSet
Validated: 1
EndChar

StartChar: ampersand
Encoding: 38 38 130
Width: 615
VWidth: 955
Flags: W
HStem: 0 21G<202.5 217.5 472.5 525> 475 20G<472.5 525> 790 20G<232 243.5>
LayerCount: 2
Fore
SplineSet
30 248 m 0
 30 257 33 265 38 272 c 2
 156 450 l 1
 83 560 l 2
 78 567 75 576 75 585 c 0
 75 594 78 603 83 610 c 2
 203 790 l 2
 211 802 225 810 239 810 c 2
 240 810 l 2
 247 810 255 808 261 805 c 0
 268 802 273 796 277 790 c 2
 367 655 l 2
 372 648 375 639 375 630 c 0
 375 621 372 612 367 605 c 2
 264 450 l 1
 345 329 l 1
 443 475 l 2
 451 487 465 495 480 495 c 2
 525 495 l 1
 525 405 l 1
 504 405 l 1
 399 248 l 1
 504 90 l 1
 525 90 l 1
 525 0 l 5
 480 0 l 2
 465 0 451 8 443 20 c 2
 345 166 l 1
 247 20 l 2
 239 8 225 0 210 0 c 0
 195 0 181 8 173 20 c 2
 38 223 l 2
 33 230 30 239 30 248 c 0
129 248 m 1
 210 126 l 1
 291 248 l 1
 210 369 l 1
 129 248 l 1
174 585 m 1
 210 531 l 1
 276 630 l 1
 240 684 l 1
 174 585 l 1
EndSplineSet
Validated: 1
EndChar

StartChar: percent
Encoding: 37 37 131
Width: 930
VWidth: 955
Flags: W
HStem: -0 90<180 212> 720 90<628 660>
VStem: 30 90<547 652> 270 90<547 652> 480 90<157 262> 720 90<157 262>
LayerCount: 2
Fore
SplineSet
30 525 m 2
 30 675 l 2
 30 689 37 703 48 711 c 2
 168 801 l 2
 176 807 185 810 195 810 c 2
 197 810 l 2
 206 810 215 806 222 801 c 2
 342 711 l 2
 353 703 360 689 360 675 c 2
 360 525 l 2
 360 511 353 497 342 489 c 2
 222 399 l 2
 214 393 205 390 195 390 c 0
 185 390 176 393 168 399 c 2
 48 489 l 2
 37 497 30 511 30 525 c 2
120 547 m 1
 195 491 l 1
 270 547 l 1
 270 652 l 1
 195 709 l 1
 120 652 l 1
 120 547 l 1
180 -0 m 1
 180 90 l 1
 212 90 l 1
 560 785 l 2
 564 792 569 799 576 803 c 0
 583 807 592 810 600 810 c 2
 660 810 l 1
 660 720 l 1
 628 720 l 1
 280 25 l 2
 276 18 271 11 264 7 c 0
 257 3 248 0 240 -0 c 2
 180 -0 l 1
480 135 m 2
 480 285 l 2
 480 299 487 313 498 321 c 2
 618 411 l 2
 626 417 635 420 645 420 c 2
 647 420 l 2
 656 420 665 416 672 411 c 2
 792 321 l 2
 803 313 810 299 810 285 c 2
 810 135 l 2
 810 121 803 107 792 99 c 2
 672 9 l 2
 664 3 655 0 645 -0 c 0
 635 0 626 3 618 9 c 2
 498 99 l 2
 487 107 480 121 480 135 c 2
570 157 m 1
 645 101 l 1
 720 157 l 1
 720 262 l 1
 645 319 l 1
 570 262 l 1
 570 157 l 1
EndSplineSet
Validated: 1
EndChar

StartChar: one
Encoding: 49 49 132
Width: 240
VWidth: 1024
Flags: W
HStem: 0 21G<69 150> 700 20G<0 81>
VStem: 0 120<630 706.622>
LayerCount: 2
Fore
SplineSet
0 630 m 1
 0 720 l 1
 75 720 l 2
 87 720 99 715 107 707 c 0
 115 699 120 687 120 675 c 2
 120 90 l 1
 150 90 l 1
 150 0 l 5
 75 0 l 2
 63 0 51 5 43 13 c 0
 35 21 30 33 30 45 c 2
 30 630 l 1
 0 630 l 1
EndSplineSet
Validated: 1
Substitution2: "'tnum' Tabellenziffern-1" one.fitted
Substitution2: "'onum' Minuskelziffern-1" one.oldstyle
EndChar

StartChar: two
Encoding: 50 50 133
Width: 480
VWidth: 1076
Flags: W
HStem: -0 21G<71.5 83 310 360> 540 21G<30 80> 700 20G<190 201.5>
VStem: 30 90<135 248> 270 90<472 562>
LayerCount: 2
Fore
SplineSet
30 45 m 2
 30 270 l 2
 30 284 37 298 48 306 c 2
 270 472 l 1
 270 562 l 1
 195 619 l 1
 102 549 l 2
 94 543 85 540 75 540 c 2
 30 540 l 1
 30 630 l 1
 60 630 l 1
 168 711 l 2
 176 717 185 720 195 720 c 2
 197 720 l 2
 206 720 215 716 222 711 c 2
 342 621 l 2
 353 613 360 599 360 585 c 2
 360 450 l 2
 360 436 353 422 342 414 c 2
 120 248 l 1
 120 135 l 1
 168 171 l 2
 176 177 185 180 195 180 c 0
 205 180 214 177 222 171 c 2
 330 90 l 1
 360 90 l 1
 360 -0 l 1
 315 -0 l 2
 305 0 296 3 288 9 c 2
 195 79 l 1
 102 9 l 2
 95 4 87 1 79 0 c 0
 78 -0 76 -0 75 -0 c 0
 68 -0 61 2 55 5 c 0
 48 9 41 14 37 21 c 0
 33 28 30 37 30 45 c 2
EndSplineSet
Validated: 1
Substitution2: "'onum' Minuskelziffern-1" two.oldstyle
EndChar

StartChar: three
Encoding: 51 51 134
Width: 480
VWidth: 1076
Flags: W
HStem: -0 21G<190 200> 540 21G<30 80> 700 20G<190 201.5>
VStem: 270 90<157 262 487 562>
LayerCount: 2
Fore
SplineSet
30 90 m 1
 30 180 l 1
 75 180 l 2
 85 180 94 177 102 171 c 2
 195 101 l 1
 270 157 l 1
 270 262 l 1
 167 337 l 2
 156 345 148 360 148 374 c 0
 148 388 155 402 166 410 c 2
 270 487 l 1
 270 562 l 1
 195 619 l 1
 102 549 l 2
 94 543 85 540 75 540 c 2
 30 540 l 1
 30 630 l 1
 60 630 l 1
 168 711 l 2
 176 717 185 720 195 720 c 2
 197 720 l 2
 206 720 215 716 222 711 c 2
 342 621 l 2
 353 613 360 599 360 585 c 2
 360 465 l 2
 360 451 353 437 342 429 c 2
 269 374 l 1
 342 321 l 2
 353 313 360 299 360 285 c 2
 360 135 l 2
 360 121 353 107 342 99 c 2
 222 9 l 2
 214 3 205 0 195 -0 c 0
 185 0 176 3 168 9 c 2
 60 90 l 1
 30 90 l 1
EndSplineSet
Validated: 1
Substitution2: "'onum' Minuskelziffern-1" three.oldstyle
EndChar

StartChar: four
Encoding: 52 52 135
Width: 480
VWidth: 1076
Flags: W
HStem: -0 21G<324 405> 180 90<120 285 375 405> 700 20G<255 336>
VStem: 30 90<270 361> 255 120<630 706.622> 285 90<90 180 270 630>
LayerCount: 2
Fore
SplineSet
30 225 m 2xf4
 30 375 l 2
 30 384 33 393 38 400 c 2
 128 535 l 2
 136 547 150 555 165 555 c 2
 210 555 l 1
 210 465 l 1
 189 465 l 1
 120 361 l 1
 120 270 l 1
 285 270 l 1
 285 630 l 1xf4
 255 630 l 1
 255 720 l 1
 330 720 l 2
 342 720 354 715 362 707 c 0
 370 699 375 687 375 675 c 2xf8
 375 270 l 1
 405 270 l 1
 405 180 l 1
 375 180 l 1
 375 90 l 1
 405 90 l 1
 405 -0 l 1
 330 -0 l 2
 318 0 306 5 298 13 c 0
 290 21 285 33 285 45 c 2
 285 180 l 1
 75 180 l 2
 63 180 51 185 43 193 c 0
 35 201 30 213 30 225 c 2xf4
EndSplineSet
Validated: 1
Substitution2: "'onum' Minuskelziffern-1" four.oldstyle
EndChar

StartChar: five
Encoding: 53 53 136
Width: 480
VWidth: 1076
Flags: W
HStem: -0 21G<190 200> 540 21G<190 200> 700 20G<71.5 83 310 360>
VStem: 30 90<472 585> 270 90<157 247>
LayerCount: 2
Fore
SplineSet
30 90 m 1
 30 180 l 1
 75 180 l 2
 85 180 94 177 102 171 c 2
 195 101 l 1
 270 157 l 1
 270 247 l 1
 48 414 l 2
 37 422 30 436 30 450 c 2
 30 675 l 2
 30 683 33 692 37 699 c 0
 41 706 48 711 55 715 c 0
 61 718 68 720 75 720 c 0
 76 720 78 720 79 720 c 0
 87 719 95 716 102 711 c 2
 195 641 l 1
 288 711 l 2
 296 717 305 720 315 720 c 2
 360 720 l 1
 360 630 l 1
 330 630 l 1
 222 549 l 2
 214 543 205 540 195 540 c 0
 185 540 176 543 168 549 c 2
 120 585 l 1
 120 472 l 1
 342 306 l 2
 353 298 360 284 360 270 c 2
 360 135 l 2
 360 121 353 107 342 99 c 2
 222 9 l 2
 214 3 205 0 195 -0 c 0
 185 0 176 3 168 9 c 2
 60 90 l 1
 30 90 l 1
EndSplineSet
Validated: 1
Substitution2: "'onum' Minuskelziffern-1" five.oldstyle
EndChar

StartChar: six
Encoding: 54 54 137
Width: 480
VWidth: 1076
Flags: W
HStem: -0 21G<190 200> 540 21G<310 360> 700 20G<190 201.5>
VStem: 30 90<157 292 405 562> 270 90<157 292>
LayerCount: 2
Fore
SplineSet
30 135 m 2
 30 315 l 1
 30 585 l 2
 30 599 37 613 48 621 c 2
 168 711 l 2
 176 717 185 720 195 720 c 2
 197 720 l 2
 206 720 215 716 222 711 c 2
 330 630 l 1
 360 630 l 1
 360 540 l 1
 315 540 l 2
 305 540 296 543 288 549 c 2
 195 619 l 1
 120 562 l 1
 120 405 l 1
 168 441 l 2
 176 447 185 450 195 450 c 0
 205 450 214 447 222 441 c 2
 342 351 l 2
 353 343 360 329 360 315 c 2
 360 135 l 2
 360 121 353 107 342 99 c 2
 222 9 l 2
 214 3 205 0 195 -0 c 0
 185 0 176 3 168 9 c 2
 48 99 l 2
 37 107 30 121 30 135 c 2
120 157 m 1
 195 101 l 1
 270 157 l 1
 270 292 l 1
 195 349 l 1
 120 292 l 1
 120 157 l 1
EndSplineSet
Validated: 1
Substitution2: "'onum' Minuskelziffern-1" six.oldstyle
EndChar

StartChar: seven
Encoding: 55 55 138
Width: 480
VWidth: 1076
Flags: W
HStem: -0 21G<158 240> 630 90<30 261>
VStem: 120 120<17.3765 90>
LayerCount: 2
Fore
SplineSet
30 630 m 1
 30 720 l 1
 318 720 l 2
 332 720 345 714 353 703 c 0
 359 695 363 685 363 675 c 0
 363 672 363 667 362 664 c 2
 222 90 l 1
 240 90 l 1
 240 -0 l 1
 165 -0 l 2
 151 0 138 6 130 17 c 0
 124 25 120 35 120 45 c 0
 120 48 120 53 121 56 c 2
 261 630 l 1
 30 630 l 1
EndSplineSet
Validated: 1
Substitution2: "'onum' Minuskelziffern-1" seven.oldstyle
EndChar

StartChar: eight
Encoding: 56 56 139
Width: 480
VWidth: 1076
Flags: W
HStem: -0 21G<190 200> 700 20G<190 201.5>
VStem: 30 90<158 256 472 562> 270 90<158 248 464 562>
LayerCount: 2
Fore
SplineSet
30 135 m 2
 30 270 l 2
 30 279 33 288 38 295 c 2
 94 380 l 1
 48 414 l 2
 37 422 30 436 30 450 c 2
 30 585 l 2
 30 599 37 613 48 621 c 2
 168 711 l 2
 176 717 185 720 195 720 c 2
 197 720 l 2
 206 720 215 716 222 711 c 2
 342 621 l 2
 353 613 360 599 360 585 c 2
 360 450 l 2
 360 441 357 432 352 425 c 2
 296 340 l 1
 342 306 l 2
 353 298 360 284 360 270 c 2
 360 135 l 2
 360 121 353 107 342 99 c 2
 222 9 l 2
 214 3 205 0 195 -0 c 0
 185 0 176 3 168 9 c 2
 48 99 l 2
 37 107 30 121 30 135 c 2
120 158 m 1
 195 101 l 1
 270 158 l 1
 270 248 l 1
 166 325 l 1
 120 256 l 1
 120 158 l 1
120 472 m 1
 224 395 l 1
 270 464 l 1
 270 562 l 1
 195 619 l 1
 120 562 l 1
 120 472 l 1
EndSplineSet
Validated: 1
Substitution2: "'onum' Minuskelziffern-1" eight.oldstyle
EndChar

StartChar: zero
Encoding: 48 48 140
Width: 480
VWidth: 1076
Flags: W
HStem: -0 21G<190 200> 700 20G<190 201.5>
VStem: 30 90<158 562> 270 90<158 562>
LayerCount: 2
Fore
SplineSet
30 135 m 2
 30 585 l 2
 30 599 37 613 48 621 c 2
 168 711 l 2
 176 717 185 720 195 720 c 2
 197 720 l 2
 206 720 215 716 222 711 c 2
 342 621 l 2
 353 613 360 599 360 585 c 2
 360 135 l 2
 360 121 353 107 342 99 c 2
 222 9 l 2
 214 3 205 0 195 -0 c 0
 185 0 176 3 168 9 c 2
 48 99 l 2
 37 107 30 121 30 135 c 2
120 158 m 1
 195 101 l 1
 270 158 l 1
 270 562 l 1
 195 619 l 1
 120 562 l 1
 120 158 l 1
EndSplineSet
Validated: 1
Substitution2: "'onum' Minuskelziffern-1" zero.oldstyle
EndChar

StartChar: nine
Encoding: 57 57 141
Width: 480
VWidth: 1076
Flags: W
HStem: -0 21G<190 200> 700 20G<190 201.5>
VStem: 30 90<428 562> 270 90<158 315 428 562>
LayerCount: 2
Fore
SplineSet
30 90 m 1
 30 180 l 1
 75 180 l 2
 85 180 94 177 102 171 c 2
 195 101 l 1
 270 158 l 1
 270 315 l 1
 222 279 l 2
 214 273 205 270 195 270 c 0
 185 270 176 273 168 279 c 2
 48 369 l 2
 37 377 30 391 30 405 c 2
 30 585 l 2
 30 599 37 613 48 621 c 2
 168 711 l 2
 176 717 185 720 195 720 c 2
 197 720 l 2
 206 720 215 716 222 711 c 2
 342 621 l 2
 353 613 360 599 360 585 c 2
 360 135 l 2
 360 121 353 107 342 99 c 2
 222 9 l 2
 214 3 205 0 195 -0 c 0
 185 0 176 3 168 9 c 2
 60 90 l 1
 30 90 l 1
120 428 m 1
 195 371 l 1
 270 428 l 1
 270 562 l 1
 195 619 l 1
 120 562 l 1
 120 428 l 1
EndSplineSet
Validated: 1
Substitution2: "'onum' Minuskelziffern-1" nine.oldstyle
EndChar

StartChar: section
Encoding: 167 167 142
Width: 495
VWidth: 1076
Flags: W
HStem: -180 21G<235 245> -20 20G<75 125> 790 20G<235 246.5>
VStem: 75 90<262 368 592 652> 315 90<-22 38 262 368>
LayerCount: 2
Fore
SplineSet
75 -0 m 1
 120 -0 l 2
 130 0 139 -3 147 -9 c 2
 240 -79 l 1
 315 -22 l 1
 315 38 l 1
 93 204 l 2
 82 212 75 226 75 240 c 2
 75 390 l 2
 75 404 82 418 93 426 c 2
 165 480 l 1
 93 534 l 2
 82 542 75 556 75 570 c 2
 75 675 l 2
 75 689 82 703 93 711 c 2
 213 801 l 2
 221 807 230 810 240 810 c 2
 242 810 l 2
 251 810 260 806 267 801 c 2
 375 720 l 1
 405 720 l 1
 405 630 l 1
 360 630 l 2
 350 630 341 633 333 639 c 2
 240 709 l 1
 165 652 l 1
 165 592 l 1
 387 426 l 2
 398 418 405 404 405 390 c 2
 405 240 l 2
 405 226 398 212 387 204 c 2
 315 150 l 1
 387 96 l 2
 398 88 405 74 405 60 c 2
 405 -45 l 2
 405 -59 398 -73 387 -81 c 2
 267 -171 l 2
 259 -177 250 -180 240 -180 c 0
 230 -180 221 -177 213 -171 c 2
 105 -90 l 1
 75 -90 l 1
 75 -0 l 1
165 262 m 1
 240 206 l 1
 315 262 l 1
 315 368 l 1
 240 424 l 1
 165 368 l 1
 165 262 l 1
EndSplineSet
Validated: 1
EndChar

StartChar: numbersign
Encoding: 35 35 143
Width: 600
VWidth: 1076
Flags: W
HStem: -0 90<0 37 255 292> 180 90<0 52 158 307 413 465> 450 90<45 97 203 352 458 510> 630 90<218 255 473 510>
LayerCount: 2
Fore
SplineSet
0 -0 m 1
 0 90 l 1
 37 90 l 1
 52 180 l 1
 0 180 l 1
 0 270 l 1
 67 270 l 1
 97 450 l 1
 45 450 l 1
 45 540 l 1
 112 540 l 1
 136 682 l 2
 138 692 143 702 151 709 c 0
 159 716 169 720 180 720 c 2
 255 720 l 1
 255 630 l 1
 218 630 l 1
 203 540 l 1
 367 540 l 1
 391 682 l 2
 393 692 398 702 406 709 c 0
 414 716 424 720 435 720 c 2
 510 720 l 1
 510 630 l 1
 473 630 l 1
 458 540 l 1
 510 540 l 1
 510 450 l 1
 443 450 l 1
 413 270 l 1
 465 270 l 1
 465 180 l 1
 398 180 l 1
 374 38 l 2
 372 28 367 18 359 11 c 0
 351 4 341 0 330 -0 c 2
 255 -0 l 1
 255 90 l 1
 292 90 l 1
 307 180 l 1
 143 180 l 1
 119 38 l 2
 117 28 112 18 104 11 c 0
 96 4 86 0 75 -0 c 2
 0 -0 l 1
158 270 m 1
 322 270 l 1
 352 450 l 1
 188 450 l 1
 158 270 l 1
EndSplineSet
Validated: 1
EndChar

StartChar: hyphen
Encoding: 45 45 144
Width: 300
VWidth: 1076
Flags: W
HStem: 520 20G<160 210>
VStem: 0 210
LayerCount: 2
Fore
SplineSet
0 180 m 1
 0 270 l 1
 30 270 l 1
 138 351 l 2
 146 357 155 360 165 360 c 2
 210 360 l 1
 210 270 l 1
 180 270 l 1
 72 189 l 2
 64 183 55 180 45 180 c 2
 0 180 l 1
0 360 m 1
 0 450 l 1
 30 450 l 1
 138 531 l 2
 146 537 155 540 165 540 c 2
 210 540 l 5
 210 450 l 1
 180 450 l 1
 72 369 l 2
 64 363 55 360 45 360 c 2
 0 360 l 1
EndSplineSet
Validated: 1
EndChar

StartChar: endash
Encoding: 8211 8211 145
Width: 510
VWidth: 941
Flags: W
HStem: 315 90<0 420>
LayerCount: 2
Fore
SplineSet
0 315 m 1
 0 405 l 1
 420 405 l 1
 420 315 l 1
 0 315 l 1
EndSplineSet
Validated: 1
EndChar

StartChar: emdash
Encoding: 8212 8212 146
Width: 930
VWidth: 941
Flags: W
HStem: 315 90<0 840>
LayerCount: 2
Fore
SplineSet
0 315 m 1
 0 405 l 1
 840 405 l 1
 840 315 l 5
 0 315 l 1
EndSplineSet
Validated: 1
EndChar

StartChar: minus
Encoding: 8722 8722 147
Width: 450
VWidth: 1076
Flags: W
HStem: 315 90<0 360>
LayerCount: 2
Fore
SplineSet
0 315 m 1
 0 405 l 1
 360 405 l 1
 360 315 l 5
 0 315 l 1
EndSplineSet
Validated: 1
EndChar

StartChar: divide
Encoding: 247 247 148
Width: 450
VWidth: 1076
Flags: W
HStem: 180 90<135 225> 315 90<0 360> 450 90<135 225>
VStem: 135 90<180 270 450 540>
CounterMasks: 1 e0
LayerCount: 2
Fore
SplineSet
0 315 m 1
 0 405 l 1
 360 405 l 1
 360 315 l 1
 0 315 l 1
135 180 m 1
 135 270 l 1
 225 270 l 1
 225 180 l 5
 135 180 l 1
135 450 m 1
 135 540 l 1
 225 540 l 1
 225 450 l 1
 135 450 l 1
EndSplineSet
Validated: 1
EndChar

StartChar: plus
Encoding: 43 43 149
Width: 450
VWidth: 1076
Flags: W
HStem: 315 90<0 135 225 360> 520 20G<135 225>
VStem: 135 90<180 315 405 540>
LayerCount: 2
Fore
SplineSet
0 315 m 1
 0 405 l 1
 135 405 l 1
 135 540 l 1
 225 540 l 1
 225 405 l 1
 360 405 l 1
 360 315 l 5
 225 315 l 1
 225 180 l 1
 135 180 l 1
 135 315 l 1
 0 315 l 1
EndSplineSet
Validated: 1
EndChar

StartChar: equal
Encoding: 61 61 150
Width: 450
VWidth: 1076
Flags: W
HStem: 225 90<0 360> 405 90<0 360>
LayerCount: 2
Fore
SplineSet
0 225 m 1
 0 315 l 1
 360 315 l 1
 360 225 l 1
 0 225 l 1
0 405 m 1
 0 495 l 1
 360 495 l 1
 360 405 l 5
 0 405 l 1
EndSplineSet
Validated: 1
EndChar

StartChar: multiply
Encoding: 215 215 151
Width: 450
VWidth: 1076
Flags: W
HStem: 201 318
VStem: 51 318
LayerCount: 2
Fore
SplineSet
51 265 m 1
 146 360 l 1
 51 455 l 1
 115 519 l 1
 210 424 l 1
 305 519 l 1
 369 455 l 1
 274 360 l 1
 369 265 l 1
 305 201 l 1
 210 296 l 1
 115 201 l 1
 51 265 l 1
EndSplineSet
Validated: 1
EndChar

StartChar: less
Encoding: 60 60 152
Width: 450
VWidth: 1076
Flags: W
LayerCount: 2
Fore
SplineSet
0 360 m 0
 0 375 8 389 20 397 c 2
 327 602 l 1
 377 528 l 1
 126 360 l 1
 377 192 l 1
 327 118 l 1
 20 323 l 2
 8 331 0 345 0 360 c 0
EndSplineSet
Validated: 1
EndChar

StartChar: slash
Encoding: 47 47 153
Width: 570
VWidth: 1076
Flags: W
HStem: -0 90<0 32> 720 90<448 480>
LayerCount: 2
Fore
SplineSet
0 -0 m 5
 0 90 l 1
 32 90 l 1
 380 785 l 2
 384 792 389 799 396 803 c 0
 403 807 412 810 420 810 c 2
 480 810 l 1
 480 720 l 1
 448 720 l 1
 100 25 l 2
 96 18 91 11 84 7 c 0
 77 3 68 0 60 -0 c 2
 0 -0 l 5
EndSplineSet
Validated: 1
EndChar

StartChar: parenleft
Encoding: 40 40 154
Width: 360
VWidth: 530
Flags: W
HStem: -180 90<219 270> 720 90<219 270>
VStem: 30 90<59 571>
LayerCount: 2
Fore
SplineSet
30 45 m 2
 30 585 l 2
 30 594 33 603 38 610 c 2
 158 790 l 2
 166 802 180 810 195 810 c 2
 270 810 l 1
 270 720 l 1
 219 720 l 1
 120 571 l 1
 120 59 l 1
 219 -90 l 1
 270 -90 l 1
 270 -180 l 5
 195 -180 l 2
 180 -180 166 -172 158 -160 c 2
 38 20 l 2
 33 27 30 36 30 45 c 2
EndSplineSet
Validated: 1
EndChar

StartChar: bracketleft
Encoding: 91 91 155
Width: 360
VWidth: 530
Flags: W
HStem: -180 90<120 270> 720 90<120 270>
VStem: 30 240<-166.622 -90 720 796.622> 30 90<-90 720>
LayerCount: 2
Fore
SplineSet
30 -135 m 2xe0
 30 765 l 2
 30 777 35 789 43 797 c 0
 51 805 63 810 75 810 c 2
 270 810 l 1
 270 720 l 1xe0
 120 720 l 1
 120 -90 l 1xd0
 270 -90 l 1
 270 -180 l 1
 75 -180 l 2
 63 -180 51 -175 43 -167 c 0
 35 -159 30 -147 30 -135 c 2xe0
EndSplineSet
Validated: 1
EndChar

StartChar: braceleft
Encoding: 123 123 156
Width: 420
VWidth: 530
Flags: W
HStem: -180 90<279 330> 270 90<0 51> 720 90<279 330>
VStem: 120 90<14 166 464 616>
CounterMasks: 1 e0
LayerCount: 2
Fore
SplineSet
0 270 m 1
 0 360 l 1
 51 360 l 1
 120 464 l 1
 120 630 l 2
 120 639 123 648 128 655 c 2
 218 790 l 2
 226 802 240 810 255 810 c 2
 330 810 l 5
 330 720 l 1
 279 720 l 1
 210 616 l 1
 210 450 l 2
 210 441 207 432 202 425 c 2
 129 315 l 1
 202 205 l 2
 207 198 210 189 210 180 c 2
 210 14 l 1
 279 -90 l 1
 330 -90 l 1
 330 -180 l 1
 255 -180 l 2
 240 -180 226 -172 218 -160 c 2
 128 -25 l 2
 123 -18 120 -9 120 -0 c 2
 120 166 l 1
 51 270 l 1
 0 270 l 1
EndSplineSet
Validated: 1
EndChar

StartChar: asterisk
Encoding: 42 42 157
Width: 420
VWidth: 530
Flags: W
HStem: 450 90<30 51 279 300> 585 90<0 81 249 330> 720 90<30 51 279 300>
CounterMasks: 1 e0
LayerCount: 2
Fore
SplineSet
0 585 m 1
 0 675 l 1
 81 675 l 1
 51 720 l 1
 30 720 l 1
 30 810 l 1
 75 810 l 2
 90 810 104 802 112 790 c 2
 165 711 l 1
 218 790 l 2
 226 802 240 810 255 810 c 2
 300 810 l 1
 300 720 l 1
 279 720 l 1
 249 675 l 1
 330 675 l 1
 330 585 l 1
 249 585 l 1
 279 540 l 1
 300 540 l 1
 300 450 l 1
 255 450 l 2
 240 450 226 458 218 470 c 2
 165 549 l 1
 112 470 l 2
 104 458 90 450 75 450 c 2
 30 450 l 1
 30 540 l 1
 51 540 l 1
 81 585 l 1
 0 585 l 1
EndSplineSet
Validated: 1
EndChar

StartChar: bar
Encoding: 124 124 158
Width: 240
VWidth: 530
Flags: W
HStem: -180 21G<0 81> 790 20G<69 150>
VStem: 30 120<720 796.622>
LayerCount: 2
Fore
SplineSet
0 -90 m 1
 30 -90 l 1
 30 765 l 2
 30 777 35 789 43 797 c 0
 51 805 63 810 75 810 c 2
 150 810 l 1
 150 720 l 1
 120 720 l 1
 120 -135 l 2
 120 -147 115 -159 107 -167 c 0
 99 -175 87 -180 75 -180 c 2
 0 -180 l 1
 0 -90 l 1
EndSplineSet
Validated: 1
EndChar

StartChar: asciitilde
Encoding: 126 126 159
Width: 420
VWidth: 545
Flags: W
HStem: 630 90<30 75 345 390>
LayerCount: 2
Fore
SplineSet
30 630 m 1
 30 720 l 1
 75 720 l 1
 123 756 l 2
 131 762 140 765 150 765 c 2
 152 765 l 2
 161 765 170 761 177 756 c 2
 270 686 l 1
 303 711 l 2
 311 717 320 720 330 720 c 2
 390 720 l 1
 390 630 l 1
 345 630 l 1
 297 594 l 2
 289 588 280 585 270 585 c 0
 260 585 251 588 243 594 c 2
 150 664 l 1
 117 639 l 2
 109 633 100 630 90 630 c 2
 30 630 l 1
EndSplineSet
Validated: 1
EndChar

StartChar: mu
Encoding: 956 956 160
Width: 480
VWidth: 530
Flags: W
HStem: -180 21G<0 81> 0 21G<190 200 309 390> 405 90<0 30 240 270>
VStem: 0 120<-166.622 -90 405 481.622> 30 90<-90 45 158 405> 240 120<405 481.622> 270 90<158 405>
LayerCount: 2
Fore
SplineSet
0 -90 m 1xf0
 30 -90 l 1
 30 405 l 1xe8
 0 405 l 1
 0 495 l 1
 75 495 l 2
 87 495 99 490 107 482 c 0
 115 474 120 462 120 450 c 2xf0
 120 158 l 1
 195 101 l 1
 270 158 l 1
 270 405 l 1xea
 240 405 l 1
 240 495 l 1
 315 495 l 2
 327 495 339 490 347 482 c 0
 355 474 360 462 360 450 c 2xe4
 360 90 l 1
 390 90 l 1
 390 0 l 1
 315 0 l 2
 303 0 291 5 283 13 c 0
 275 21 270 33 270 45 c 1
 222 9 l 2
 214 3 205 0 195 0 c 0
 185 0 176 3 168 9 c 2
 120 45 l 1xea
 120 -135 l 2
 120 -147 115 -159 107 -167 c 0
 99 -175 87 -180 75 -180 c 2
 0 -180 l 1
 0 -90 l 1xf0
EndSplineSet
Validated: 1
EndChar

StartChar: dagger
Encoding: 8224 8224 161
Width: 510
VWidth: 530
Flags: W
HStem: -180 21G<150 231> 450 90<30 180 270 420> 790 20G<219 300>
VStem: 180 120<720 796.622> 180 90<-90 450 540 720>
LayerCount: 2
Fore
SplineSet
30 450 m 1xe8
 30 540 l 1
 180 540 l 1xe8
 180 765 l 2
 180 777 185 789 193 797 c 0
 201 805 213 810 225 810 c 2
 300 810 l 1
 300 720 l 1xf0
 270 720 l 1
 270 540 l 1
 420 540 l 1
 420 450 l 1
 270 450 l 1
 270 -135 l 2
 270 -147 265 -159 257 -167 c 0
 249 -175 237 -180 225 -180 c 2
 150 -180 l 1
 150 -90 l 1
 180 -90 l 1
 180 450 l 1
 30 450 l 1xe8
EndSplineSet
Validated: 1
EndChar

StartChar: daggerdbl
Encoding: 8225 8225 162
Width: 510
VWidth: 530
Flags: W
HStem: -180 21G<150 231> 120 90<30 180 270 420> 450 90<30 180 270 420> 790 20G<219 300>
VStem: 180 120<720 796.622> 180 90<-90 120 210 450 540 720>
LayerCount: 2
Fore
SplineSet
30 120 m 1xf4
 30 210 l 1
 180 210 l 1
 180 450 l 1
 30 450 l 1
 30 540 l 1
 180 540 l 1xf4
 180 765 l 2
 180 777 185 789 193 797 c 0
 201 805 213 810 225 810 c 2
 300 810 l 1
 300 720 l 1xf8
 270 720 l 1
 270 540 l 1
 420 540 l 1
 420 450 l 1
 270 450 l 1
 270 210 l 1
 420 210 l 1
 420 120 l 1
 270 120 l 1
 270 -135 l 2
 270 -147 265 -159 257 -167 c 0
 249 -175 237 -180 225 -180 c 2
 150 -180 l 1
 150 -90 l 1
 180 -90 l 1
 180 120 l 1
 30 120 l 1xf4
EndSplineSet
Validated: 1
EndChar

StartChar: grave
Encoding: 96 96 164
Width: 270
VWidth: 530
Flags: W
HStem: 585 180
VStem: 30 210
LayerCount: 2
Fore
SplineSet
30 675 m 1
 30 765 l 1
 75 765 l 2
 85 765 94 762 102 756 c 2
 210 675 l 1
 240 675 l 1
 240 585 l 1
 195 585 l 2
 185 585 176 588 168 594 c 2
 60 675 l 1
 30 675 l 1
EndSplineSet
Validated: 1
EndChar

StartChar: degree
Encoding: 176 176 166
Width: 300
VWidth: 545
Flags: W
HStem: 585 90<122.046 177.954> 735 90<122.046 177.954>
VStem: 30 90<677.046 732.954> 180 90<677.046 732.954>
LayerCount: 2
Fore
SplineSet
30 705 m 0
 30 771 84 825 150 825 c 0
 216 825 270 771 270 705 c 0
 270 639 216 585 150 585 c 0
 84 585 30 639 30 705 c 0
120 705 m 0
 120 688 133 675 150 675 c 0
 167 675 180 688 180 705 c 0
 180 722 167 735 150 735 c 0
 133 735 120 722 120 705 c 0
EndSplineSet
Validated: 1
EndChar

StartChar: asciicircum
Encoding: 94 94 167
Width: 390
VWidth: 545
Flags: W
HStem: 585 90<30 60 330 360>
LayerCount: 2
Fore
SplineSet
30 585 m 1
 30 675 l 1
 60 675 l 1
 168 756 l 2
 176 762 185 765 195 765 c 2
 197 765 l 2
 206 765 215 761 222 756 c 2
 330 675 l 1
 360 675 l 1
 360 585 l 1
 315 585 l 2
 305 585 296 588 288 594 c 2
 195 664 l 1
 102 594 l 2
 94 588 85 585 75 585 c 2
 30 585 l 1
EndSplineSet
Validated: 1
EndChar

StartChar: cedillacmb
Encoding: 807 807 168
Width: 269
VWidth: 530
Flags: W
HStem: -134 215 -20 20G<30 80>
VStem: 30 210<-99 -90>
LayerCount: 2
Fore
SplineSet
30 0 m 1x60
 75 0 l 2x60
 85 0 94 -3 102 -9 c 2
 124 -25 l 1
 134 -10 l 1
 72 36 l 1
 162 81 l 1xa0
 222 36 l 2
 231 29 237 19 239 8 c 0
 240 5 240 3 240 0 c 0x60
 240 -9 237 -18 232 -25 c 2
 172 -115 l 2
 166 -125 155 -132 143 -134 c 0xa0
 140 -135 138 -135 135 -135 c 0
 125 -135 116 -132 108 -126 c 2
 60 -90 l 1
 30 -90 l 1
 30 0 l 1x60
EndSplineSet
Validated: 1
LCarets2: 2 0 0 
EndChar

StartChar: parenright
Encoding: 41 41 170
Width: 360
VWidth: 530
Flags: W
HStem: -180 90<0 51> 720 90<0 51>
VStem: 150 90<59 571>
LayerCount: 2
Fore
SplineSet
0 -90 m 1
 51 -90 l 1
 150 59 l 1
 150 571 l 1
 51 720 l 1
 0 720 l 1
 0 810 l 1
 75 810 l 2
 90 810 104 802 112 790 c 2
 232 610 l 2
 237 603 240 594 240 585 c 2
 240 45 l 2
 240 36 237 27 232 20 c 2
 112 -160 l 2
 104 -172 90 -180 75 -180 c 2
 0 -180 l 5
 0 -90 l 1
EndSplineSet
Validated: 1
EndChar

StartChar: bracketright
Encoding: 93 93 171
Width: 360
VWidth: 530
Flags: W
HStem: -180 90<0 150> 720 90<0 150>
VStem: 0 240<-166.622 -90 720 796.622> 150 90<-90 720>
LayerCount: 2
Fore
SplineSet
0 -90 m 1xe0
 150 -90 l 1
 150 720 l 1xd0
 0 720 l 1
 0 810 l 1
 195 810 l 2
 207 810 219 805 227 797 c 0
 235 789 240 777 240 765 c 2
 240 -135 l 2
 240 -147 235 -159 227 -167 c 0
 219 -175 207 -180 195 -180 c 2
 0 -180 l 1
 0 -90 l 1xe0
EndSplineSet
Validated: 1
EndChar

StartChar: braceright
Encoding: 125 125 172
Width: 420
VWidth: 530
Flags: W
HStem: -180 90<0 51> 270 90<279 330> 720 90<0 51>
VStem: 120 90<14 166 464 616>
CounterMasks: 1 e0
LayerCount: 2
Fore
SplineSet
0 -90 m 1
 51 -90 l 1
 120 14 l 1
 120 180 l 2
 120 189 123 198 128 205 c 2
 201 315 l 1
 128 425 l 2
 123 432 120 441 120 450 c 2
 120 616 l 1
 51 720 l 1
 0 720 l 1
 0 810 l 5
 75 810 l 2
 90 810 104 802 112 790 c 2
 202 655 l 2
 207 648 210 639 210 630 c 2
 210 464 l 1
 279 360 l 1
 330 360 l 1
 330 270 l 1
 279 270 l 1
 210 166 l 1
 210 -0 l 2
 210 -9 207 -18 202 -25 c 2
 112 -160 l 2
 104 -172 90 -180 75 -180 c 2
 0 -180 l 1
 0 -90 l 1
EndSplineSet
Validated: 1
EndChar

StartChar: backslash
Encoding: 92 92 173
Width: 570
VWidth: 1076
Flags: W
HStem: 0 90<448 480> 720 90<0 32>
LayerCount: 2
Fore
SplineSet
0 720 m 1
 0 810 l 5
 60 810 l 2
 68 810 77 807 84 803 c 0
 91 799 96 792 100 785 c 2
 448 90 l 1
 480 90 l 1
 480 0 l 1
 420 0 l 2
 412 0 403 3 396 7 c 0
 389 11 384 18 380 25 c 2
 32 720 l 1
 0 720 l 1
EndSplineSet
Validated: 1
EndChar

StartChar: greater
Encoding: 62 62 174
Width: 450
VWidth: 1076
Flags: W
LayerCount: 2
Fore
SplineSet
0 192 m 1
 251 360 l 1
 0 528 l 1
 50 602 l 1
 357 397 l 2
 369 389 377 375 377 360 c 0
 377 345 369 331 357 323 c 2
 50 118 l 1
 0 192 l 1
EndSplineSet
Validated: 1
EndChar

StartChar: underscore
Encoding: 95 95 175
Width: 510
VWidth: 941
Flags: W
HStem: 0 90<0 420>
LayerCount: 2
Fore
SplineSet
0 0 m 5
 0 90 l 1
 420 90 l 1
 420 0 l 1
 0 0 l 5
EndSplineSet
Validated: 1
EndChar

StartChar: micro
Encoding: 181 181 178
Width: 480
VWidth: 530
Flags: W
HStem: -180 21G<0 81> 0 21G<190 200 309 390> 405 90<0 30 240 270>
VStem: 0 120<-166.622 -90 405 481.622> 30 90<-90 45 158 405> 240 120<405 481.622> 270 90<158 405>
LayerCount: 2
Fore
SplineSet
0 -90 m 1xf0
 30 -90 l 1
 30 405 l 1xe8
 0 405 l 1
 0 495 l 1
 75 495 l 2
 87 495 99 490 107 482 c 0
 115 474 120 462 120 450 c 2xf0
 120 158 l 1
 195 101 l 1
 270 158 l 1
 270 405 l 1xea
 240 405 l 1
 240 495 l 1
 315 495 l 2
 327 495 339 490 347 482 c 0
 355 474 360 462 360 450 c 2xe4
 360 90 l 1
 390 90 l 1
 390 0 l 1
 315 0 l 2
 303 0 291 5 283 13 c 0
 275 21 270 33 270 45 c 1
 222 9 l 2
 214 3 205 0 195 0 c 0
 185 0 176 3 168 9 c 2
 120 45 l 1xea
 120 -135 l 2
 120 -147 115 -159 107 -167 c 0
 99 -175 87 -180 75 -180 c 2
 0 -180 l 1
 0 -90 l 1xf0
EndSplineSet
Validated: 1
EndChar

StartChar: longs_longs_l
Encoding: 57348 57348 179
Width: 705
VWidth: 531
Flags: W
HStem: -180 90<0 30 240 270> 0 21G<480 561> 405 90<0 30 240 270> 720 90<450 510>
VStem: 0 120<-166.622 -90 405 495> 30 90<-90 405 495 622> 240 120<-166.622 -90 405 495> 270 90<-90 405 495 647>
LayerCount: 2
Fore
SplineSet
0 -90 m 1xf8
 30 -90 l 1
 30 405 l 1xf4
 0 405 l 1
 0 495 l 1xf8
 30 495 l 1
 30 645 l 2
 30 659 37 673 48 681 c 2
 168 771 l 2
 175 776 183 779 191 780 c 0
 199 781 208 779 215 775 c 2
 310 728 l 1
 408 801 l 2
 416 807 425 810 435 810 c 2
 555 810 l 2
 567 810 579 805 587 797 c 0
 595 789 600 777 600 765 c 2
 600 45 l 2
 600 33 595 21 587 13 c 0
 579 5 567 0 555 0 c 2
 480 0 l 1
 480 90 l 1
 510 90 l 1
 510 720 l 1
 450 720 l 1
 360 652 l 1xf5
 360 -135 l 2
 360 -147 355 -159 347 -167 c 0
 339 -175 327 -180 315 -180 c 2
 240 -180 l 1
 240 -90 l 1xf2
 270 -90 l 1
 270 405 l 1xf1
 240 405 l 1
 240 495 l 1xf2
 270 495 l 1
 270 647 l 1
 200 682 l 1
 120 622 l 1xf5
 120 -135 l 2
 120 -147 115 -159 107 -167 c 0
 99 -175 87 -180 75 -180 c 2
 0 -180 l 1
 0 -90 l 1xf8
EndSplineSet
Validated: 1
Ligature2: "'liga' Standard Ligatures lookup 1-1" longs longs l
LCarets2: 2 240 480 
EndChar

StartChar: longs_longs_h
Encoding: 57351 57351 180
Width: 945
VWidth: 531
Flags: W
HStem: -180 90<0 30 240 270 630 653> 0 21G<480 561> 405 90<0 30 240 270> 520 20G<670 680> 720 90<450 510>
VStem: 0 120<-166.622 -90 405 495> 30 90<-90 405 495 622> 240 120<-166.622 -90 405 495> 270 90<-90 405 495 647> 510 90<90 382 495 720> 750 90<31 382>
LayerCount: 2
Fore
SplineSet
0 -90 m 1xfc60
 30 -90 l 1
 30 405 l 1xfa60
 0 405 l 1
 0 495 l 1xfc60
 30 495 l 1
 30 645 l 2
 30 659 37 673 48 681 c 2
 168 771 l 2
 175 776 183 779 191 780 c 0
 199 781 208 779 215 775 c 2
 310 728 l 1
 408 801 l 2
 416 807 425 810 435 810 c 2
 555 810 l 2
 567 810 579 805 587 797 c 0
 595 789 600 777 600 765 c 2
 600 495 l 1
 648 531 l 2
 656 537 665 540 675 540 c 0
 685 540 694 537 702 531 c 2
 822 441 l 2
 833 433 840 419 840 405 c 2
 840 15 l 2
 840 5 836 -5 830 -13 c 2
 710 -163 l 2
 702 -173 688 -180 675 -180 c 2
 630 -180 l 1
 630 -90 l 1
 653 -90 l 1
 750 31 l 1
 750 382 l 1
 675 439 l 1
 600 382 l 1
 600 45 l 2
 600 33 595 21 587 13 c 0
 579 5 567 0 555 0 c 2
 525 0 l 1
 480 0 l 1
 480 90 l 1
 510 90 l 1
 510 720 l 1
 450 720 l 1
 360 652 l 1xfae0
 360 -135 l 2
 360 -147 355 -159 347 -167 c 0
 339 -175 327 -180 315 -180 c 2
 240 -180 l 1
 240 -90 l 1xf960
 270 -90 l 1
 270 405 l 1xf8e0
 240 405 l 1
 240 495 l 1xf960
 270 495 l 1
 270 647 l 1
 200 682 l 1
 120 622 l 1xfae0
 120 -135 l 2
 120 -147 115 -159 107 -167 c 0
 99 -175 87 -180 75 -180 c 2
 0 -180 l 1
 0 -90 l 1xfc60
EndSplineSet
Validated: 1
Ligature2: "'liga' Standard Ligatures lookup 1-1" longs longs h
LCarets2: 2 240 480 
EndChar

StartChar: longs_longs_k
Encoding: 57346 57346 181
Width: 930
VWidth: 531
Flags: W
HStem: -180 90<0 30 240 270> 0 21G<670 720> 405 90<0 30 240 270 480 510 690 840> 720 90<450 510>
VStem: 0 120<-166.622 -90 405 495> 30 90<-90 405 495 622> 240 120<-166.622 -90 405 495> 270 90<-90 405 495 647> 510 90<158 405 540 608>
LayerCount: 2
Fore
SplineSet
0 -90 m 1xf880
 30 -90 l 1
 30 405 l 1xf480
 0 405 l 1
 0 495 l 1xf880
 30 495 l 1
 30 645 l 2
 30 659 37 673 48 681 c 2
 168 771 l 2
 175 776 183 779 191 780 c 0
 199 781 208 779 215 775 c 2
 310 728 l 1
 408 801 l 2
 416 807 425 810 435 810 c 2
 555 810 l 2
 567 810 579 805 587 797 c 0
 595 789 600 777 600 765 c 2
 600 720 l 1
 648 756 l 2
 656 762 665 765 675 765 c 0
 685 765 694 762 702 756 c 2
 822 666 l 2
 833 658 840 644 840 630 c 0
 840 616 833 602 822 594 c 2
 690 495 l 1
 840 495 l 1
 840 405 l 1
 600 405 l 1
 600 158 l 1
 690 90 l 1
 720 90 l 1
 720 0 l 1
 675 0 l 2
 665 0 656 3 648 9 c 2
 528 99 l 2
 517 107 510 121 510 135 c 2
 510 405 l 1
 480 405 l 1
 480 495 l 1
 510 495 l 1
 510 630 l 1
 510 720 l 1
 450 720 l 1
 360 652 l 1xf580
 360 -135 l 2
 360 -147 355 -159 347 -167 c 0
 339 -175 327 -180 315 -180 c 2
 240 -180 l 1
 240 -90 l 1xf280
 270 -90 l 1
 270 405 l 1xf180
 240 405 l 1
 240 495 l 1xf280
 270 495 l 1
 270 647 l 1
 200 682 l 1
 120 622 l 1xf580
 120 -135 l 2
 120 -147 115 -159 107 -167 c 0
 99 -175 87 -180 75 -180 c 2
 0 -180 l 1
 0 -90 l 1xf880
600 540 m 1
 720 630 l 1
 675 664 l 1
 600 608 l 1
 600 540 l 1
EndSplineSet
Validated: 1
Ligature2: "'liga' Standard Ligatures lookup 1-1" longs longs k
LCarets2: 2 240 480 
EndChar

StartChar: longs_b
Encoding: 57413 57413 182
Width: 705
VWidth: 531
Flags: W
HStem: -180 21G<0 81> 0 21G<240 321 430 440> 520 20G<430 440> 720 90<210 270>
VStem: 0 120<-166.622 -90 405 495> 30 90<-90 405 495 652> 270 90<158 382 495 720> 510 90<158 382>
LayerCount: 2
Fore
SplineSet
0 -90 m 1xfb
 30 -90 l 1
 30 405 l 1xf7
 0 405 l 1
 0 495 l 1xfb
 30 495 l 1
 30 675 l 2
 30 689 37 703 48 711 c 2
 168 801 l 2
 176 807 185 810 195 810 c 2
 315 810 l 2
 327 810 339 805 347 797 c 0
 355 789 360 777 360 765 c 2
 360 495 l 1
 408 531 l 2
 416 537 425 540 435 540 c 0
 445 540 454 537 462 531 c 2
 582 441 l 2
 593 433 600 419 600 405 c 2
 600 135 l 2
 600 121 593 107 582 99 c 2
 462 9 l 2
 454 3 445 0 435 0 c 0
 425 0 416 3 408 9 c 2
 360 45 l 1
 360 33 355 21 347 13 c 0
 339 5 327 0 315 0 c 2
 240 0 l 1
 240 90 l 1
 270 90 l 1
 270 720 l 1
 210 720 l 1
 120 652 l 1xf7
 120 -135 l 2
 120 -147 115 -159 107 -167 c 0
 99 -175 87 -180 75 -180 c 2
 45 -180 l 1
 0 -180 l 1
 0 -90 l 1xfb
360 158 m 1
 435 101 l 1
 510 158 l 1
 510 382 l 1
 435 439 l 1
 360 382 l 1
 360 158 l 1
EndSplineSet
Validated: 1
Ligature2: "'liga' Standard Ligatures lookup 1-1" longs b
LCarets2: 1 240 
EndChar

StartChar: longs_longs_thorn
Encoding: 57347 57347 183
Width: 945
VWidth: 531
Flags: W
HStem: -180 90<0 30 240 270 480 510> 0 21G<670 680> 405 90<0 30 240 270> 520 20G<670 680> 720 90<450 510>
VStem: 0 120<-166.622 -90 405 495> 30 90<-90 405 495 622> 240 120<-166.622 -90 405 495> 270 90<-90 405 495 647> 510 90<-90 45 158 382 495 720> 750 90<158 382>
LayerCount: 2
Fore
SplineSet
0 -90 m 1xfc60
 30 -90 l 1
 30 405 l 1xfa60
 0 405 l 1
 0 495 l 1xfc60
 30 495 l 1
 30 645 l 2
 30 659 37 673 48 681 c 2
 168 771 l 2
 175 776 183 779 191 780 c 0
 199 781 208 779 215 775 c 2
 310 728 l 1
 408 801 l 2
 416 807 425 810 435 810 c 2
 555 810 l 2
 567 810 579 805 587 797 c 0
 595 789 600 777 600 765 c 2
 600 495 l 1
 648 531 l 2
 656 537 665 540 675 540 c 0
 685 540 694 537 702 531 c 2
 822 441 l 2
 833 433 840 419 840 405 c 2
 840 135 l 2
 840 121 833 107 822 99 c 2
 702 9 l 2
 694 3 685 0 675 0 c 0
 665 0 656 3 648 9 c 2
 600 45 l 1
 600 -135 l 2
 600 -147 595 -159 587 -167 c 0
 579 -175 567 -180 555 -180 c 2
 480 -180 l 1
 480 -90 l 1
 510 -90 l 1
 510 720 l 1
 450 720 l 1
 360 652 l 1xfae0
 360 -135 l 2
 360 -147 355 -159 347 -167 c 0
 339 -175 327 -180 315 -180 c 2
 240 -180 l 1
 240 -90 l 1xf960
 270 -90 l 1
 270 405 l 1xf8e0
 240 405 l 1
 240 495 l 1xf960
 270 495 l 1
 270 647 l 1
 200 682 l 1
 120 622 l 1xfae0
 120 -135 l 2
 120 -147 115 -159 107 -167 c 0
 99 -175 87 -180 75 -180 c 2
 0 -180 l 1
 0 -90 l 1xfc60
600 158 m 1
 675 101 l 1
 750 158 l 1
 750 382 l 1
 675 439 l 1
 600 382 l 1
 600 158 l 1
EndSplineSet
Validated: 1
Ligature2: "'liga' Standard Ligatures lookup 1-1" longs longs thorn
LCarets2: 2 240 480 
EndChar

StartChar: longs_longs_b
Encoding: 57349 57349 184
Width: 945
VWidth: 531
Flags: W
HStem: -180 90<0 30 240 270> 0 21G<480 561 670 680> 405 90<0 30 240 270> 520 20G<670 680> 720 90<450 510>
VStem: 0 120<-166.622 -90 405 495> 30 90<-90 405 495 622> 240 120<-166.622 -90 405 495> 270 90<-90 405 495 647> 510 90<158 382 495 720> 750 90<158 382>
LayerCount: 2
Fore
SplineSet
0 -90 m 1xfc60
 30 -90 l 1
 30 405 l 1xfa60
 0 405 l 1
 0 495 l 1xfc60
 30 495 l 1
 30 645 l 2
 30 659 37 673 48 681 c 2
 168 771 l 2
 175 776 183 779 191 780 c 0
 199 781 208 779 215 775 c 2
 310 728 l 1
 408 801 l 2
 416 807 425 810 435 810 c 2
 555 810 l 2
 567 810 579 805 587 797 c 0
 595 789 600 777 600 765 c 2
 600 495 l 1
 648 531 l 2
 656 537 665 540 675 540 c 0
 685 540 694 537 702 531 c 2
 822 441 l 2
 833 433 840 419 840 405 c 2
 840 135 l 2
 840 121 833 107 822 99 c 2
 702 9 l 2
 694 3 685 0 675 0 c 0
 665 0 656 3 648 9 c 2
 600 45 l 1
 600 33 595 21 587 13 c 0
 579 5 567 0 555 0 c 2
 480 0 l 1
 480 90 l 1
 510 90 l 1
 510 720 l 1
 450 720 l 1
 360 652 l 1xfae0
 360 -135 l 2
 360 -147 355 -159 347 -167 c 0
 339 -175 327 -180 315 -180 c 2
 240 -180 l 1
 240 -90 l 1xf960
 270 -90 l 1
 270 405 l 1xf8e0
 240 405 l 1
 240 495 l 1xf960
 270 495 l 1
 270 647 l 1
 200 682 l 1
 120 622 l 1xfae0
 120 -135 l 2
 120 -147 115 -159 107 -167 c 0
 99 -175 87 -180 75 -180 c 2
 0 -180 l 1
 0 -90 l 1xfc60
600 158 m 1
 675 101 l 1
 750 158 l 1
 750 382 l 1
 675 439 l 1
 600 382 l 1
 600 158 l 1
EndSplineSet
Validated: 1
Ligature2: "'liga' Standard Ligatures lookup 1-1" longs longs b
LCarets2: 2 240 480 
EndChar

StartChar: longs_longs_j
Encoding: 57345 57345 185
Width: 720
VWidth: 531
Flags: W
HStem: -180 90<0 30 240 270 420 510> 405 90<0 30 240 270 480 510> 790 20G<430 441.5>
VStem: 0 120<-166.622 -90 405 495> 30 90<-90 405 495 622> 240 120<-166.622 -90 405 495> 270 90<-90 405 495 647> 480 120<405 481.622> 510 90<-90 405 600 652>
LayerCount: 2
Fore
SplineSet
0 -90 m 1xf0
 30 -90 l 1
 30 405 l 1xe8
 0 405 l 1
 0 495 l 1xf0
 30 495 l 1
 30 645 l 2
 30 659 37 673 48 681 c 2
 168 771 l 2
 175 776 183 779 191 780 c 0
 199 781 208 779 215 775 c 2
 310 728 l 1
 408 801 l 2
 416 807 425 810 435 810 c 2
 437 810 l 2
 446 810 455 806 462 801 c 2
 582 711 l 2
 593 703 600 689 600 675 c 2
 600 600 l 1
 510 600 l 1
 510 652 l 1
 435 709 l 1
 360 652 l 1xea80
 360 -135 l 2
 360 -147 355 -159 347 -167 c 0
 339 -175 327 -180 315 -180 c 2
 240 -180 l 1
 240 -90 l 1xe4
 270 -90 l 1
 270 405 l 1xe2
 240 405 l 1
 240 495 l 1xe4
 270 495 l 1
 270 647 l 1
 200 682 l 1
 120 622 l 1xea
 120 -135 l 2
 120 -147 115 -159 107 -167 c 0
 99 -175 87 -180 75 -180 c 2
 0 -180 l 1
 0 -90 l 1xf0
420 -90 m 1
 510 -90 l 1
 510 405 l 1xe080
 480 405 l 1
 480 495 l 1
 555 495 l 2
 567 495 579 490 587 482 c 0
 595 474 600 462 600 450 c 2xe1
 600 -135 l 2xe080
 600 -147 595 -159 587 -167 c 0
 579 -175 567 -180 555 -180 c 2
 420 -180 l 1
 420 -90 l 1
EndSplineSet
Validated: 1
Ligature2: "'liga' Standard Ligatures lookup 1-1" longs longs j
LCarets2: 2 240 480 
EndChar

StartChar: c_t
Encoding: 57405 57405 186
Width: 705
VWidth: 1076
Flags: W
HStem: 0 21G<175 185 550 600> 405 90<308 390 480 600> 520 20G<173.5 181> 700 20G<429 510>
VStem: 15 90<158 382> 390 120<630 706.622> 390 90<158 405 495 630>
LayerCount: 2
Fore
SplineSet
15 135 m 2xfa
 15 405 l 2
 15 419 22 433 33 441 c 2
 153 531 l 2
 160 536 169 540 178 540 c 0
 184 540 190 539 196 537 c 2
 308 495 l 1
 390 495 l 1xfa
 390 675 l 2
 390 687 395 699 403 707 c 0
 411 715 423 720 435 720 c 2
 510 720 l 1
 510 630 l 1xfc
 480 630 l 1
 480 495 l 1
 600 495 l 1
 600 405 l 1
 480 405 l 1
 480 158 l 1
 570 90 l 1
 600 90 l 1
 600 0 l 1
 555 0 l 2
 545 0 536 3 528 9 c 2
 408 99 l 2
 397 107 390 121 390 135 c 2
 390 405 l 1
 300 405 l 2
 295 405 289 406 284 408 c 2
 187 444 l 1
 105 382 l 1
 105 158 l 1
 180 101 l 1
 255 158 l 1
 255 180 l 1
 345 180 l 1
 345 135 l 2
 345 121 338 107 327 99 c 2
 207 9 l 2
 199 3 190 0 180 0 c 0
 170 0 161 3 153 9 c 2
 33 99 l 2
 22 107 15 121 15 135 c 2xfa
EndSplineSet
Validated: 1
Ligature2: "'liga' Standard Ligatures lookup 1-1" c t
LCarets2: 1 375 
EndChar

StartChar: dieresis
Encoding: 168 168 187
Width: 390
VWidth: 530
Flags: W
HStem: 600 120<30 120 270 360>
VStem: 30 90<600 720> 270 90<600 720>
LayerCount: 2
Fore
SplineSet
30 600 m 5
 30 720 l 5
 120 720 l 5
 120 600 l 5
 30 600 l 5
270 600 m 5
 270 720 l 5
 360 720 l 5
 360 600 l 5
 270 600 l 5
EndSplineSet
Validated: 1
EndChar

StartChar: hungarumlautcmb
Encoding: 779 779 188
Width: 405
VWidth: 1091
Flags: W
HStem: 585 90<30 51 195 216> 720 90<189 210 354 375>
LayerCount: 2
Fore
SplineSet
30 585 m 1
 30 675 l 1
 51 675 l 1
 128 790 l 2
 136 802 150 810 165 810 c 2
 210 810 l 1
 210 720 l 1
 189 720 l 1
 112 605 l 2
 104 593 90 585 75 585 c 2
 30 585 l 1
195 585 m 1
 195 675 l 1
 216 675 l 1
 293 790 l 2
 301 802 315 810 330 810 c 2
 375 810 l 1
 375 720 l 1
 354 720 l 1
 277 605 l 2
 269 593 255 585 240 585 c 2
 195 585 l 1
EndSplineSet
Validated: 1
EndChar

StartChar: acute
Encoding: 180 180 189
Width: 270
VWidth: 545
Flags: W
HStem: 600 180
VStem: 30 210
LayerCount: 2
Fore
SplineSet
30 600 m 1
 30 690 l 1
 60 690 l 1
 168 771 l 2
 176 777 185 780 195 780 c 2
 240 780 l 5
 240 690 l 1
 210 690 l 1
 102 609 l 2
 94 603 85 600 75 600 c 2
 30 600 l 1
EndSplineSet
Validated: 1
EndChar

StartChar: c_k_t
Encoding: 57422 57422 194
Width: 1005
VWidth: 1076
Flags: W
HStem: 0 90<570 600 885 915> 405 90<308 390 570 705 795 915> 520 20G<173.5 181> 700 20G<744 825> 790 20G<360 441>
VStem: 15 90<158 382> 360 120<720 796.622> 390 90<158 405 540 608> 705 120<630 706.622> 705 90<158 405 495 630>
LayerCount: 2
Fore
SplineSet
15 135 m 2xfd40
 15 405 l 2
 15 416 22 433 33 441 c 2
 153 531 l 2
 160 536 169 540 178 540 c 0
 184 540 190 539 196 537 c 2
 308 495 l 1
 390 495 l 1
 390 720 l 1xfd40
 360 720 l 1
 360 810 l 1
 435 810 l 2
 447 810 459 805 467 797 c 0
 475 789 480 777 480 765 c 2
 480 720 l 1
 528 756 l 2
 536 762 545 765 555 765 c 0
 559 765 562 765 566 764 c 0
 579 761 591 750 596 738 c 2
 656 603 l 2
 660 594 662 584 659 574 c 0
 656 564 650 555 642 549 c 2
 570 495 l 1
 705 495 l 1xfe40
 705 675 l 2
 705 687 710 699 718 707 c 0
 726 715 738 720 750 720 c 2
 780 720 l 1
 825 720 l 1
 825 630 l 1xfc80
 795 630 l 1
 795 495 l 1
 915 495 l 1
 915 405 l 1
 795 405 l 1
 795 158 l 1
 885 90 l 1
 915 90 l 1
 915 0 l 1
 870 0 l 2
 860 0 851 3 843 9 c 2
 723 99 l 2
 712 107 705 121 705 135 c 2
 705 405 l 1
 480 405 l 1
 480 158 l 1
 570 90 l 1
 600 90 l 1
 600 0 l 1
 555 0 l 2
 545 0 536 3 528 9 c 2
 408 99 l 2
 397 107 390 121 390 135 c 2
 390 405 l 1
 300 405 l 2
 295 405 289 406 284 408 c 2
 187 444 l 1
 105 382 l 1
 105 158 l 1
 180 101 l 1
 255 158 l 1
 255 180 l 1
 345 180 l 1
 345 138 l 1
 345 135 l 2
 345 121 338 107 327 99 c 2
 207 9 l 2
 199 3 190 0 180 0 c 0
 170 0 161 3 153 9 c 2
 33 99 l 2
 22 107 15 121 15 135 c 2xfd40
480 540 m 1
 559 600 l 1
 537 650 l 1
 480 608 l 1
 480 540 l 1
EndSplineSet
Validated: 1
LCarets2: 2 361 675 
Ligature2: "'liga' Standard Ligatures lookup 1-1" c k t
EndChar

StartChar: T_l
Encoding: 57420 57420 195
Width: 765
VWidth: 909
Flags: W
HStem: 0 90<179.128 307.405 645 675> 45 90<443.438 510> 720 90<0 94 270 555>
VStem: 30 90<216.072 608.892> 180 90<248 683>
LayerCount: 2
Fore
SplineSet
0 720 m 1xb8
 0 810 l 1
 600 810 l 2
 612 810 623 805 632 797 c 1
 640 788 645 777 645 765 c 2
 645 90 l 1
 675 90 l 1
 675 0 l 1
 630 0 l 1
 600 0 l 2xb8
 588 0 577 5 568 13 c 1
 560 22 555 33 555 45 c 2x78
 555 720 l 1
 270 720 l 1
 270 225 l 2
 270 211 263 197 252 189 c 2
 166 124 l 1
 175 113 186 106 201 100 c 0
 219 94 246 90 280 90 c 1xb8
 454 134 l 2
 458 135 461 135 465 135 c 2
 510 135 l 1
 510 45 l 1
 471 45 l 1x78
 296 1 l 2
 292 0 289 0 285 0 c 0
 243 0 205 3 171 16 c 1
 136 28 104 52 83 86 c 0
 40 153 30 249 30 405 c 0
 30 562 50 651 87 709 c 0
 89 713 92 716 94 720 c 1
 0 720 l 1xb8
120 405 m 0
 120 321 125 258 133 213 c 1
 180 248 l 1
 180 683 l 1
 174 677 169 670 163 661 c 0
 141 626 120 554 120 405 c 0
EndSplineSet
Validated: 1
LCarets2: 1 510 
Ligature2: "'liga' Standard Ligatures lookup 1-1" T l
EndChar

StartChar: gravecomb
Encoding: 768 768 196
Width: 270
VWidth: 530
Flags: W
HStem: 585 180
VStem: 30 210
LayerCount: 2
Fore
SplineSet
30 675 m 1
 30 765 l 1
 75 765 l 2
 85 765 94 762 102 756 c 2
 210 675 l 1
 240 675 l 1
 240 585 l 1
 195 585 l 2
 185 585 176 588 168 594 c 2
 60 675 l 1
 30 675 l 1
EndSplineSet
Validated: 1
EndChar

StartChar: macroncmb
Encoding: 772 772 197
Width: 420
VWidth: 1091
Flags: W
HStem: 645 90<30 390>
LayerCount: 2
Fore
SplineSet
30 645 m 5
 30 735 l 5
 390 735 l 5
 390 645 l 5
 30 645 l 5
EndSplineSet
Validated: 1
EndChar

StartChar: commasubnosp
Encoding: 806 806 199
Width: 210
VWidth: 1076
Flags: W
HStem: -180 180<66.4806 143.519>
VStem: 30 120<-173.519 -90> 60 120<-90 -6.48056>
LayerCount: 2
Fore
SplineSet
30 -90 m 5xc0
 60 -90 l 5
 60 -45 l 6
 60 -20 80 0 105 0 c 6
 180 0 l 5
 180 -90 l 5xa0
 150 -90 l 5
 150 -135 l 6
 150 -160 130 -180 105 -180 c 6
 30 -180 l 5
 30 -90 l 5xc0
EndSplineSet
Validated: 1
EndChar

StartChar: sterling
Encoding: 163 163 220
Width: 600
VWidth: 0
Flags: W
HStem: 0 90<0 51 226.205 480> 300 90<0 86 197 280> 450 90<210 348.689> 720 90<144.029 349.934>
VStem: 28 92<521.37 696.568> 111 90<148.548 300> 390 90<575.948 685.054>
LayerCount: 2
Fore
SplineSet
0 0 m 1xf6
 0 90 l 1
 45 90 l 1
 51 90 l 1
 83 137 l 2
 103 167 111 202 111 242 c 0xf6
 111 260 109 280 106 300 c 1
 0 300 l 1
 0 390 l 1
 86 390 l 1
 75 431 61 473 50 514 c 0
 39 556 28 599 28 639 c 0
 28 665 33 689 44 714 c 0
 58 745 85 772 121 788 c 0
 157 804 200 810 255 810 c 0
 313 810 366 798 409 768 c 0
 452 738 480 688 480 630 c 0
 480 572 451 522 408 492 c 0
 365 462 312 450 255 450 c 2
 210 450 l 1
 210 540 l 1
 255 540 l 2
 298 540 335 550 357 566 c 0
 379 582 390 599 390 630 c 0
 390 662 380 679 358 694 c 0
 336 709 299 720 255 720 c 0
 208 720 176 713 157 705 c 0
 138 697 131 689 126 677 c 0
 122 669 120 657 120 642 c 0xfa
 120 615 126 579 137 538 c 0
 149 493 166 442 179 390 c 1
 280 390 l 1
 280 300 l 1
 197 300 l 1
 199 281 201 261 201 242 c 0
 201 205 195 167 181 132 c 1
 261 92 273 90 379 90 c 2
 435 90 l 1
 480 90 l 1
 480 0 l 1
 435 0 l 2
 273 0 240 5 136 55 c 1
 112 20 l 2
 111 19 111 18 110 17 c 0
 109 16 108 15 107 14 c 0
 105 12 102 10 100 8 c 0
 99 7 98 7 97 6 c 0
 90 2 83 0 75 0 c 2
 0 0 l 1xf6
EndSplineSet
Validated: 1
EndChar

StartChar: ordfeminine
Encoding: 170 170 221
Width: 480
VWidth: 0
Flags: W
HStem: 790 20G<190 200.5>
VStem: 30 90<547 653> 270 90<548 652>
LayerCount: 2
Fore
SplineSet
30 525 m 2
 30 675 l 2
 30 689 37 703 48 711 c 2
 167 801 l 2
 175 807 185 810 195 810 c 2
 196 810 l 2
 205 810 214 806 221 801 c 2
 277 759 l 1
 281 765 286 771 293 775 c 0
 300 779 308 780 315 780 c 2
 390 780 l 1
 390 690 l 1
 360 690 l 1
 360 480 l 1
 390 480 l 1
 390 390 l 1
 315 390 l 2
 303 390 291 395 283 403 c 0
 275 411 270 423 270 435 c 1
 221 399 l 2
 213 393 204 390 194 390 c 0
 184 390 175 393 167 399 c 2
 48 489 l 2
 37 497 30 511 30 525 c 2
120 547 m 1
 195 491 l 1
 270 548 l 1
 270 652 l 1
 195 709 l 1
 120 653 l 1
 120 547 l 1
EndSplineSet
Validated: 1
EndChar

StartChar: guillemotleft
Encoding: 171 171 222
Width: 460
VWidth: 0
Flags: W
HStem: 45 90<188 205 353 370> 405 90<188 205 353 370>
LayerCount: 2
Fore
SplineSet
25 270 m 0
 25 277 27 284 30 290 c 2
 120 470 l 2
 124 477 129 484 136 488 c 0
 143 492 152 495 160 495 c 2
 205 495 l 5
 205 405 l 1
 188 405 l 1
 120 270 l 1
 188 135 l 1
 205 135 l 1
 205 45 l 1
 160 45 l 2
 152 45 143 48 136 52 c 0
 129 56 124 63 120 70 c 2
 30 250 l 2
 27 256 25 263 25 270 c 0
190 270 m 0
 190 277 192 284 195 290 c 2
 285 470 l 2
 289 477 294 484 301 488 c 0
 308 492 317 495 325 495 c 2
 370 495 l 1
 370 405 l 1
 353 405 l 1
 285 270 l 1
 353 135 l 1
 370 135 l 1
 370 45 l 1
 325 45 l 2
 317 45 308 48 301 52 c 0
 294 56 289 63 285 70 c 2
 195 250 l 2
 192 256 190 263 190 270 c 0
EndSplineSet
Validated: 1
EndChar

StartChar: macron
Encoding: 175 175 223
Width: 390
VWidth: 545
Flags: W
HStem: 585 90<30 360>
LayerCount: 2
Fore
SplineSet
30 585 m 1
 30 675 l 1
 360 675 l 1
 360 585 l 1
 30 585 l 1
EndSplineSet
Validated: 1
EndChar

StartChar: two.superior
Encoding: 178 178 224
Width: 480
VWidth: 0
Flags: W
HStem: 390 90<130 360> 790 20G<190 201.5>
LayerCount: 2
Fore
SplineSet
30 435 m 2
 30 495 l 2
 30 509 37 523 48 531 c 2
 240 675 l 1
 195 709 l 1
 102 639 l 2
 94 633 85 630 75 630 c 2
 30 630 l 1
 30 720 l 1
 60 720 l 1
 168 801 l 2
 176 807 185 810 195 810 c 2
 197 810 l 2
 206 810 215 806 222 801 c 2
 342 711 l 2
 353 703 360 689 360 675 c 0
 360 661 353 647 342 639 c 2
 130 480 l 1
 360 480 l 1
 360 390 l 1
 75 390 l 2
 63 390 51 395 43 403 c 0
 35 411 30 423 30 435 c 2
EndSplineSet
Validated: 1
EndChar

StartChar: three.superior
Encoding: 179 179 225
Width: 479
VWidth: 0
Flags: W
HStem: 790 20G<190 201.5>
LayerCount: 2
Fore
SplineSet
30 480 m 1
 30 570 l 1
 75 570 l 2
 85 570 94 567 102 561 c 2
 195 491 l 1
 240 525 l 1
 188 564 l 2
 177 572 170 586 170 600 c 0
 170 614 177 628 188 636 c 2
 240 675 l 1
 195 709 l 1
 102 639 l 2
 94 633 85 630 75 630 c 2
 30 630 l 1
 30 720 l 1
 60 720 l 1
 168 801 l 2
 176 807 185 810 195 810 c 2
 197 810 l 2
 206 810 215 806 222 801 c 2
 342 711 l 2
 353 703 360 689 360 675 c 0
 360 661 353 647 342 639 c 2
 290 600 l 1
 342 561 l 2
 353 553 360 539 360 525 c 0
 360 511 353 497 342 489 c 2
 222 399 l 2
 214 393 205 390 195 390 c 0
 185 390 176 393 168 399 c 2
 60 480 l 1
 30 480 l 1
EndSplineSet
Validated: 1
EndChar

StartChar: cedilla
Encoding: 184 184 226
Width: 269
VWidth: 530
Flags: W
HStem: -134 215 -20 20G<30 80>
VStem: 30 210<-99 -90>
LayerCount: 2
Fore
SplineSet
30 0 m 1x60
 75 0 l 2x60
 85 0 94 -3 102 -9 c 2
 124 -25 l 1
 134 -10 l 1
 72 36 l 1
 162 81 l 1xa0
 222 36 l 2
 231 29 237 19 239 8 c 0
 240 5 240 3 240 0 c 0x60
 240 -9 237 -18 232 -25 c 2
 172 -115 l 2
 166 -125 155 -132 143 -134 c 0xa0
 140 -135 138 -135 135 -135 c 0
 125 -135 116 -132 108 -126 c 2
 60 -90 l 1
 30 -90 l 1
 30 0 l 1x60
EndSplineSet
Validated: 1
EndChar

StartChar: one.superior
Encoding: 185 185 227
Width: 240
VWidth: 0
Flags: W
HStem: 790 20G<0 81>
VStem: 0 120<720 796.622>
LayerCount: 2
Fore
SplineSet
0 720 m 1
 0 810 l 1
 75 810 l 2
 87 810 99 805 107 797 c 0
 115 789 120 777 120 765 c 2
 120 480 l 1
 150 480 l 1
 150 390 l 1
 75 390 l 2
 63 390 51 395 43 403 c 0
 35 411 30 423 30 435 c 2
 30 720 l 1
 0 720 l 1
EndSplineSet
Validated: 1
EndChar

StartChar: ordmasculine
Encoding: 186 186 228
Width: 480
VWidth: 0
Flags: W
HStem: 790 20G<190 201.5>
VStem: 30 90<548 652> 270 90<548 652>
LayerCount: 2
Fore
SplineSet
30 525 m 2
 30 675 l 2
 30 689 37 703 48 711 c 2
 168 801 l 2
 176 807 185 810 195 810 c 2
 197 810 l 2
 206 810 215 806 222 801 c 2
 342 711 l 2
 353 703 360 689 360 675 c 2
 360 525 l 2
 360 511 353 497 342 489 c 2
 222 399 l 2
 214 393 205 390 195 390 c 0
 185 390 176 393 168 399 c 2
 48 489 l 2
 37 497 30 511 30 525 c 2
120 548 m 1
 195 491 l 1
 270 548 l 1
 270 652 l 1
 195 709 l 1
 120 652 l 1
 120 548 l 1
EndSplineSet
Validated: 1
EndChar

StartChar: guillemotright
Encoding: 187 187 229
Width: 465
VWidth: 0
Flags: W
HStem: 45 90<0 17 165 182> 405 90<0 17 165 182>
LayerCount: 2
Fore
SplineSet
0 45 m 1
 0 135 l 1
 17 135 l 1
 85 270 l 1
 17 405 l 1
 0 405 l 1
 0 495 l 1
 45 495 l 2
 53 495 62 492 69 488 c 0
 76 484 81 477 85 470 c 2
 175 290 l 2
 178 284 180 277 180 270 c 0
 180 263 178 256 175 250 c 2
 85 70 l 2
 81 63 76 56 69 52 c 0
 62 48 53 45 45 45 c 2
 0 45 l 1
165 45 m 1
 165 135 l 1
 182 135 l 1
 250 270 l 1
 182 405 l 1
 165 405 l 1
 165 495 l 1
 210 495 l 2
 218 495 227 492 234 488 c 0
 241 484 246 477 250 470 c 2
 340 290 l 2
 343 284 345 277 345 270 c 0
 345 263 343 256 340 250 c 2
 250 70 l 2
 246 63 241 56 234 52 c 0
 227 48 218 45 210 45 c 2
 165 45 l 1
EndSplineSet
Validated: 1
EndChar

StartChar: threequarters
Encoding: 190 190 232
Width: 930
VWidth: 955
Flags: W
HStem: 0 90<180 212> 90 90<570 690> 400 20<729.5 741> 720 90<628 660> 790 20<190 201.5>
VStem: 690 90<180 285> 690 120<13.3779 90>
LayerCount: 2
Fore
SplineSet
180 0 m 1xb0
 180 90 l 1
 212 90 l 1
 560 785 l 2
 563 793 569 799 576 803 c 0
 583 808 592 810 600 810 c 2xa8
 660 810 l 1
 660 720 l 1
 628 720 l 1
 280 25 l 2
 277 17 271 11 264 7 c 0
 257 2 248 0 240 0 c 2
 180 0 l 1xb0
EndSplineSet
Refer: 225 179 N 1 0 0 1 0 0 2
Refer: 459 8308 N 1 0 0 1 450 -390 2
Validated: 1
EndChar

StartChar: Ccedilla
Encoding: 199 199 233
Width: 600
VWidth: 0
Flags: W
HStem: -180 21G<280 286> 45 90<443.033 510> 675 90<473 510> 790 20G<205 231 335.5 347.5>
VStem: 30 90<216.094 657.455> 180 90<248 652>
LayerCount: 2
Fore
SplineSet
30 405 m 0
 30 558 32 659 53 715 c 0
 65 749 89 777 120 792 c 0
 151 807 185 810 225 810 c 0
 237 810 249 805 257 797 c 0
 265 789 270 777 270 765 c 1
 318 801 l 2
 324 806 332 809 339 810 c 1
 344 810 l 1
 345 810 l 2
 350 810 356 809 361 807 c 2
 473 765 l 1
 510 765 l 1
 510 675 l 1
 465 675 l 2
 460 675 454 676 449 678 c 2
 352 714 l 1
 270 652 l 1
 270 225 l 2
 270 211 263 197 252 189 c 2
 166 124 l 1
 175 112 186 106 201 100 c 0
 219 93 246 90 280 90 c 1
 454 134 l 2
 458 135 461 135 465 135 c 2
 510 135 l 1
 510 45 l 1
 471 45 l 1
 358 17 l 1
 382 -20 l 2
 387 -27 390 -36 390 -45 c 0
 390 -54 387 -63 382 -70 c 2
 322 -160 l 2
 315 -170 305 -177 293 -179 c 0
 291 -179 287 -180 285 -180 c 0
 275 -180 266 -177 258 -171 c 2
 210 -135 l 1
 180 -135 l 1
 180 -45 l 1
 225 -45 l 2
 235 -45 244 -48 252 -54 c 2
 274 -70 l 1
 291 -45 l 1
 261 0 l 1
 229 1 199 6 171 16 c 0
 136 29 104 52 83 86 c 0
 40 153 30 249 30 405 c 0
120 405 m 0
 120 321 125 259 133 213 c 1
 180 248 l 1
 180 717 l 1
 159 713 143 706 137 684 c 1
 124 648 120 558 120 405 c 0
EndSplineSet
Validated: 1
EndChar

StartChar: ccedilla
Encoding: 231 231 234
Width: 450
VWidth: 0
Flags: W
HStem: -20 20G<75 125> 405 90<308 345> 520 20G<173.5 182.5>
VStem: 15 90<158 382>
LayerCount: 2
Fore
SplineSet
15 135 m 2
 15 405 l 2
 15 419 22 433 33 441 c 2
 153 531 l 2
 160 536 169 540 178 540 c 2
 180 540 l 2
 185 540 191 539 196 537 c 2
 308 495 l 1
 345 495 l 1
 345 405 l 1
 300 405 l 2
 295 405 289 406 284 408 c 2
 187 444 l 1
 105 382 l 1
 105 158 l 1
 180 101 l 1
 255 158 l 1
 255 180 l 1
 345 180 l 1
 345 135 l 2
 345 121 338 107 327 99 c 2
 255 45 l 1
 267 36 l 2
 276 29 282 19 284 8 c 0
 284 6 285 2 285 0 c 0
 285 -9 282 -18 277 -25 c 2
 217 -115 l 2
 210 -125 200 -132 188 -134 c 0
 186 -134 182 -135 180 -135 c 0
 170 -135 161 -132 153 -126 c 2
 105 -90 l 1
 75 -90 l 1
 75 0 l 1
 120 0 l 2
 130 0 139 -3 147 -9 c 2
 169 -25 l 1
 179 -10 l 1
 33 99 l 2
 22 107 15 121 15 135 c 2
EndSplineSet
Validated: 1
EndChar

StartChar: Aogonek
Encoding: 260 260 239
Width: 570
VWidth: -277
Flags: W
HStem: -180 90<416 480> 0 21G<221.5 228.5> 720 90<0 174.688 450 480>
VStem: 221 89<523.497 681.37> 360 120<0 62 720 796.577> 360 90<-17 0 163 720>
LayerCount: 2
Fore
SplineSet
-0 136 m 0xf8
 -0 144 2 152 7 159 c 0
 115 334 202 493 218 590 c 0
 220 603 221 614 221 624 c 0
 221 651 213 669 198 683 c 1
 178 703 132 720 48 720 c 2
 0 720 l 1
 0 810 l 1
 48 810 l 2
 143 810 213 793 260 749 c 0
 296 715 310 668 310 618 c 0
 310 604 309 589 307 575 c 0
 288 456 207 313 109 153 c 1
 225 95 l 1
 360 163 l 1xf4
 360 765 l 2
 360 777 365 788 373 797 c 1
 382 805 393 810 405 810 c 2
 480 810 l 1
 480 720 l 1xf8
 450 720 l 1
 450 90 l 1xf4
 480 90 l 1
 480 0 l 1xf8
 450 0 l 1
 450 -45 l 2xf4
 450 -53 448 -62 443 -69 c 0
 439 -76 433 -82 425 -85 c 1
 416 -90 l 1
 480 -90 l 1
 480 -180 l 1xf8
 405 -180 l 2
 398 -180 391 -178 385 -175 c 2
 295 -130 l 2
 287 -127 281 -121 277 -114 c 0
 272 -107 270 -98 270 -90 c 0
 270 -82 272 -73 277 -66 c 0
 281 -59 287 -53 295 -50 c 2
 360 -17 l 1xf4
 360 62 l 1
 245 5 l 2
 239 2 232 0 225 0 c 0
 218 0 211 2 205 5 c 2
 25 95 l 2
 14 100 5 111 2 123 c 0
 1 127 -0 131 -0 136 c 0xf8
EndSplineSet
Validated: 1
EndChar

StartChar: aogonek
Encoding: 261 261 240
Width: 450
VWidth: -277
Flags: W
HStem: -180 90<300 360> 0 21G<160 170> 495 25G<160 171.5 279.5 360>
VStem: 0 90<158 382> 240 90<-22 0 158 382>
LayerCount: 2
Fore
SplineSet
0 135 m 2
 0 405 l 2
 0 419 7 433 18 441 c 2
 138 531 l 2
 146 537 155 540 165 540 c 0
 166 540 166 540 167 540 c 0
 176 540 185 536 192 531 c 2
 255 484 l 1
 263 491 274 495 285 495 c 2
 360 495 l 1
 360 405 l 1
 330 405 l 1
 330 90 l 1
 360 90 l 1
 360 0 l 1
 330 0 l 1
 330 -45 l 2
 330 -59 323 -73 312 -81 c 2
 300 -90 l 1
 360 -90 l 1
 360 -180 l 1
 285 -180 l 2
 275 -180 266 -177 258 -171 c 2
 198 -126 l 2
 187 -118 180 -104 180 -90 c 0
 180 -76 187 -62 198 -54 c 2
 240 -22 l 1
 240 45 l 1
 192 9 l 2
 184 3 175 0 165 0 c 0
 155 0 146 3 138 9 c 2
 18 99 l 2
 7 107 0 121 0 135 c 2
90 158 m 1
 165 101 l 1
 240 158 l 1
 240 382 l 1
 165 439 l 1
 90 382 l 1
 90 158 l 1
EndSplineSet
Validated: 1
EndChar

StartChar: emacron
Encoding: 275 275 254
Width: 450
VWidth: 0
Flags: W
HStem: 0 21<175 185> 520 20<175 186.5> 599 90<15 345>
VStem: 15 90<158 202 315 382>
LayerCount: 2
Fore
SplineSet
15 599 m 1
 15 689 l 1
 345 689 l 1
 345 599 l 1
 15 599 l 1
EndSplineSet
Refer: 5 101 N 1 0 0 1 0 0 3
Validated: 1
EndChar

StartChar: Eogonek
Encoding: 280 280 259
Width: 570
VWidth: -277
Flags: W
HStem: -180 90<270 330> 45 90<413.082 480> 405 90<240 480> 675 90<443 480> 790 20G<172.5 201 305 317.5>
VStem: 0 90<214.169 658.532> 150 90<248 405 495 652>
LayerCount: 2
Fore
SplineSet
0 488 m 0
 0 592 2 661 21 715 c 0
 33 748 57 778 88 792 c 0
 119 807 153 810 192 810 c 2
 195 810 l 2
 207 810 219 805 227 797 c 0
 235 788 240 777 240 765 c 1
 288 801 l 2
 294 806 301 808 309 810 c 0
 311 810 313 810 315 810 c 0
 320 810 326 809 331 807 c 2
 443 765 l 1
 480 765 l 1
 480 675 l 1
 435 675 l 2
 430 675 424 676 419 678 c 2
 322 714 l 1
 240 652 l 1
 240 495 l 1
 480 495 l 1
 480 405 l 1
 240 405 l 1
 240 225 l 2
 240 211 233 197 222 189 c 2
 135 124 l 1
 144 112 154 106 169 100 c 0
 187 94 214 90 250 90 c 1
 424 134 l 2
 428 135 431 135 435 135 c 2
 480 135 l 1
 480 45 l 1
 441 45 l 1
 300 10 l 1
 300 0 l 2
 300 -9 297 -18 293 -25 c 2
 256 -80 l 1
 270 -90 l 1
 330 -90 l 1
 330 -180 l 1
 255 -180 l 2
 245 -180 236 -177 228 -171 c 2
 168 -126 l 2
 159 -119 153 -109 151 -98 c 0
 150 -95 150 -93 150 -90 c 0
 150 -81 153 -72 158 -65 c 2
 202 2 l 1
 180 4 158 8 138 16 c 0
 103 29 72 53 51 86 c 0
 10 153 0 249 0 405 c 0
 0 435 0 462 0 488 c 0
90 405 m 0
 90 321 95 258 103 212 c 1
 150 248 l 1
 150 717 l 1
 129 714 112 707 106 685 c 1
 93 648 90 558 90 405 c 0
EndSplineSet
Validated: 1
EndChar

StartChar: eogonek
Encoding: 281 281 260
Width: 420
VWidth: -277
Flags: W
HStem: -180 90<180 240> 520 20G<160 171.5>
VStem: 0 90<158 202 315 382>
LayerCount: 2
Fore
SplineSet
0 135 m 2
 0 405 l 2
 0 419 7 433 18 441 c 2
 138 531 l 2
 146 537 155 540 165 540 c 0
 166 540 166 540 167 540 c 0
 176 540 185 536 192 531 c 2
 312 441 l 2
 323 433 330 419 330 405 c 0
 330 391 323 377 312 369 c 2
 90 202 l 1
 90 158 l 1
 165 101 l 1
 240 158 l 1
 240 180 l 1
 330 180 l 1
 330 135 l 2
 330 121 323 107 312 99 c 2
 210 22 l 1
 210 0 l 2
 210 -9 207 -18 202 -25 c 2
 166 -80 l 1
 180 -90 l 1
 240 -90 l 1
 240 -180 l 1
 165 -180 l 2
 155 -180 146 -177 138 -171 c 2
 78 -126 l 2
 69 -119 63 -109 61 -98 c 0
 60 -95 60 -93 60 -90 c 0
 60 -81 63 -72 68 -65 c 2
 120 14 l 1
 120 22 l 1
 18 99 l 2
 7 107 0 121 0 135 c 2
90 315 m 1
 210 405 l 1
 165 439 l 1
 90 382 l 1
 90 315 l 1
EndSplineSet
Validated: 1
EndChar

StartChar: Gcommaaccent
Encoding: 290 290 269
Width: 615
VWidth: 0
Flags: W
HStem: -180 21G<280 286> 405 91<270 393.97> 675 90<473 510> 790 20G<205 231 335.5 347.5>
VStem: 30 90<216.094 657.455> 180 90<248 405 496 652> 420 90<125 374.443>
LayerCount: 2
Fore
SplineSet
30 405 m 0
 30 558 32 659 53 715 c 0
 65 749 89 777 120 792 c 0
 151 807 185 810 225 810 c 0
 237 810 249 805 257 797 c 0
 265 789 270 777 270 765 c 1
 318 801 l 2
 324 806 332 809 339 810 c 1
 344 810 l 1
 345 810 l 2
 350 810 356 809 361 807 c 2
 473 765 l 1
 510 765 l 1
 510 675 l 1
 465 675 l 2
 460 675 454 676 449 678 c 2
 352 714 l 1
 270 652 l 1
 270 496 l 1
 273 496 l 2
 331 496 375 494 415 477 c 0
 440 467 463 447 477 423 c 0
 491 399 498 371 502 338 c 0
 509 285 510 216 510 120 c 2
 510 90 l 2
 510 80 506 70 500 62 c 0
 494 54 486 48 476 46 c 2
 358 17 l 1
 382 -20 l 2
 387 -27 390 -36 390 -45 c 0
 390 -54 387 -63 382 -70 c 2
 322 -160 l 2
 315 -170 305 -177 293 -179 c 0
 291 -179 287 -180 285 -180 c 0
 275 -180 266 -177 258 -171 c 2
 210 -135 l 1
 180 -135 l 1
 180 -45 l 1
 225 -45 l 2
 235 -45 244 -48 252 -54 c 2
 274 -70 l 1
 291 -45 l 1
 261 0 l 1
 229 1 199 6 171 16 c 0
 136 29 104 52 83 86 c 0
 40 153 30 249 30 405 c 0
120 405 m 0
 120 321 125 259 133 213 c 1
 180 248 l 1
 180 717 l 1
 159 713 143 706 137 684 c 1
 124 648 120 558 120 405 c 0
166 124 m 1
 175 112 186 106 201 100 c 0
 219 93 246 90 280 90 c 1
 420 125 l 1
 420 217 419 284 413 326 c 0
 409 352 404 369 399 378 c 0
 394 387 390 390 380 394 c 0
 364 401 326 404 270 405 c 1
 270 225 l 2
 270 211 263 197 252 189 c 2
 166 124 l 1
EndSplineSet
Validated: 1
EndChar

StartChar: Hbar
Encoding: 294 294 273
Width: 600
VWidth: 909
Flags: W
HStem: -180 21G<360 441> 0 21G<0 81> 210 90<0 30 120 210> 405 90<120 365.013> 675 90<413.438 480> 790 20G<251.5 258.5>
VStem: 30 90<90 210 300 405 495 647> 390 90<-90 378>
LayerCount: 2
Fore
SplineSet
0 0 m 1
 0 90 l 1
 30 90 l 1
 30 210 l 1
 0 210 l 1
 0 300 l 1
 30 300 l 1
 30 675 l 2
 30 683 33 692 37 699 c 0
 41 706 48 711 55 715 c 2
 235 805 l 2
 241 808 248 810 255 810 c 2
 257 810 l 2
 260 810 263 810 266 809 c 2
 441 765 l 1
 480 765 l 1
 480 675 l 1
 435 675 l 2
 431 675 428 675 424 676 c 2
 260 717 l 1
 120 647 l 1
 120 495 l 1
 195 495 l 1
 214 495 l 2
 264 495 303 494 338 489 c 0
 377 483 415 467 439 435 c 0
 464 401 472 360 476 306 c 0
 480 255 480 190 480 106 c 2
 480 90 l 1
 480 -135 l 2
 480 -147 475 -159 467 -167 c 0
 459 -175 447 -180 435 -180 c 2
 360 -180 l 1
 360 -90 l 1
 390 -90 l 1
 390 90 l 2
 390 182 390 251 386 299 c 0
 382 347 373 372 366 382 c 0
 359 392 352 396 324 400 c 0
 296 404 253 405 195 405 c 2
 120 405 l 1
 120 300 l 1
 210 300 l 1
 210 210 l 1
 120 210 l 1
 120 45 l 2
 120 33 115 21 107 13 c 0
 99 5 87 0 75 0 c 2
 0 0 l 1
EndSplineSet
Validated: 1
EndChar

StartChar: hbar
Encoding: 295 295 274
Width: 480
VWidth: 1076
Flags: W
HStem: -180 21G<147 201.5> 0 21G<0 81> 520 20G<190 200> 585 90<0 30 120 195> 790 20G<69 150>
VStem: 30 120<720 796.622> 30 90<90 382 495 585 675 720> 270 90<31 382>
LayerCount: 2
Fore
SplineSet
0 0 m 1xfb
 0 90 l 1
 30 90 l 1
 30 585 l 1
 0 585 l 1
 0 675 l 1
 30 675 l 1xfb
 30 765 l 2
 30 777 35 789 43 797 c 0
 51 805 63 810 75 810 c 2
 150 810 l 1
 150 720 l 1xfd
 120 720 l 1
 120 675 l 1
 195 675 l 1
 195 585 l 1
 120 585 l 1
 120 495 l 1
 168 531 l 2
 176 537 185 540 195 540 c 0
 205 540 214 537 222 531 c 2
 342 441 l 2
 353 433 360 419 360 405 c 2
 360 15 l 2
 360 5 356 -5 350 -13 c 2
 230 -163 l 2
 222 -173 208 -180 195 -180 c 2
 147 -180 l 1
 147 -90 l 1
 173 -90 l 1
 270 31 l 1
 270 382 l 1
 195 439 l 1
 120 382 l 1
 120 45 l 2
 120 33 115 21 107 13 c 0
 99 5 87 0 75 0 c 2
 0 0 l 1xfb
EndSplineSet
Validated: 1
EndChar

StartChar: Iogonek
Encoding: 302 302 281
Width: 570
VWidth: -277
Flags: W
HStem: -180 90<240 300> 90 90<0 34> 405 90<330 360 450 480> 720 90<0 253.585 450 480>
VStem: 330 150<405 495> 360 90<125 405 495 647>
LayerCount: 2
Fore
SplineSet
0 90 m 1xf4
 0 180 l 1
 45 180 l 2
 52 180 59 178 65 175 c 2
 230 93 l 1
 360 125 l 1
 360 405 l 1xf4
 330 405 l 1
 330 495 l 1xf8
 360 495 l 1
 360 647 l 1
 340 657 l 2
 222 716 222 720 103 720 c 0
 86 720 67 720 45 720 c 2
 0 720 l 1
 0 810 l 1
 45 810 l 2
 215 810 244 805 360 748 c 1
 360 765 l 2xf4
 360 777 365 788 373 797 c 0
 382 805 393 810 405 810 c 2
 480 810 l 1
 480 720 l 1xf8
 450 720 l 1
 450 495 l 1xf4
 480 495 l 1
 480 405 l 1xf8
 450 405 l 1
 450 90 l 2
 450 80 447 70 440 62 c 0
 434 54 426 49 416 46 c 2
 270 10 l 1
 270 0 l 2
 270 -9 267 -18 262 -25 c 2
 226 -80 l 1
 240 -90 l 1
 300 -90 l 1
 300 -180 l 1
 225 -180 l 2
 215 -180 206 -177 198 -171 c 2
 138 -126 l 2
 129 -119 123 -109 121 -98 c 0
 120 -95 120 -93 120 -90 c 0
 120 -81 123 -72 128 -65 c 2
 180 14 l 1
 180 17 l 1
 34 90 l 1
 0 90 l 1xf4
EndSplineSet
Validated: 1
EndChar

StartChar: iogonek
Encoding: 303 303 282
Width: 269
VWidth: -277
Flags: W
HStem: -180 90<120 180> 475 20G<30 111> 570 120<60 150>
VStem: 30 120<405 481.577> 60 120<0 90> 60 90<-22 0 90 405 570 690>
LayerCount: 2
Fore
SplineSet
0 -90 m 0xe8
 0 -76 7 -62 18 -54 c 2
 60 -22 l 1
 60 405 l 1xe4
 30 405 l 1
 30 495 l 1
 105 495 l 2
 117 495 128 490 137 482 c 0
 145 473 150 462 150 450 c 2xf0
 150 120 l 1
 150 90 l 1xe4
 180 90 l 1
 180 0 l 1xe8
 150 0 l 1
 150 -45 l 2xe4
 150 -59 143 -73 132 -81 c 2
 120 -90 l 1
 180 -90 l 1
 180 -180 l 1
 105 -180 l 2
 95 -180 86 -177 78 -171 c 2
 18 -126 l 2
 7 -118 0 -104 0 -90 c 0xe8
60 570 m 1
 60 690 l 1
 150 690 l 1
 150 570 l 1
 60 570 l 1
EndSplineSet
Validated: 1
EndChar

StartChar: kcommaaccent
Encoding: 311 311 287
Width: 450
VWidth: 0
Flags: W
HStem: -20 20G<0 50> 405 90<0 30 210 360> 790 20G<0 81>
VStem: 0 120<720 796.622> 30 90<158 405 540 608>
LayerCount: 2
Fore
SplineSet
0 -0 m 1xf0
 45 -0 l 2
 55 0 64 -3 72 -9 c 2
 94 -26 l 1
 134 34 l 1
 48 99 l 2
 37 107 30 122 30 136 c 2
 30 405 l 1xe8
 0 405 l 1
 0 495 l 1xf0
 30 495 l 1
 30 720 l 1xe8
 0 720 l 1
 0 810 l 1
 75 810 l 2
 87 810 99 805 107 797 c 0
 115 789 120 777 120 765 c 2
 120 720 l 1xf0
 168 756 l 2
 176 762 185 765 195 765 c 0
 205 765 214 762 222 756 c 2
 342 666 l 2
 353 658 360 644 360 630 c 0
 360 616 353 602 342 594 c 2
 210 495 l 1
 360 495 l 1
 360 405 l 1
 120 405 l 1
 120 158 l 1
 210 90 l 1
 240 90 l 1
 240 0 l 1
 219 0 l 1
 142 -115 l 2
 135 -125 125 -132 113 -134 c 0
 111 -134 107 -135 105 -135 c 0
 95 -135 86 -132 78 -126 c 2
 30 -90 l 1xe8
 0 -90 l 1
 0 -0 l 1xf0
120 540 m 1
 240 630 l 1
 195 664 l 1
 120 608 l 1
 120 540 l 1
EndSplineSet
Validated: 1
EndChar

StartChar: lcommaaccent
Encoding: 316 316 291
Width: 240
VWidth: 0
Flags: W
HStem: -180 21G<0 87.5> 790 20G<69 150>
VStem: 30 120<720 796.622> 30 90<-90 0 90 720>
LayerCount: 2
Fore
SplineSet
0 0 m 1xd0
 0 90 l 1
 30 90 l 1xd0
 30 765 l 2
 30 777 35 789 43 797 c 0
 51 805 63 810 75 810 c 2
 150 810 l 1
 150 720 l 1xe0
 120 720 l 1
 120 -135 l 2
 120 -160 100 -180 75 -180 c 2
 0 -180 l 1
 0 -90 l 1
 30 -90 l 1
 30 -0 l 1
 0 0 l 1xd0
EndSplineSet
Validated: 1
EndChar

StartChar: Lslash
Encoding: 321 321 296
Width: 600
VWidth: 909
Flags: W
HStem: 0 90<0 30 226.415 480> 450 90<210 348.689> 720 90<232.28 349.614>
VStem: 30 90<163 215 389 685> 390 90<575.948 685.054>
LayerCount: 2
Fore
SplineSet
-30 212 m 1
 -30 302 l 1
 0 302 l 1
 30 324 l 1
 30 720 l 2
 30 730 34 740 40 748 c 0
 46 756 54 762 64 764 c 2
 244 809 l 2
 248 810 251 810 255 810 c 0
 313 810 366 798 409 768 c 0
 452 738 480 688 480 630 c 0
 480 572 451 522 408 492 c 0
 365 462 312 450 255 450 c 2
 210 450 l 1
 210 540 l 1
 255 540 l 2
 298 540 335 550 357 566 c 0
 379 582 390 599 390 630 c 0
 390 662 380 679 358 694 c 0
 337 709 302 719 260 720 c 1
 120 685 l 1
 120 389 l 1
 125 391 130 392 135 392 c 2
 180 392 l 1
 180 302 l 1
 150 302 l 1
 120 280 l 1
 120 163 l 1
 140 153 l 2
 258 94 258 90 377 90 c 2
 435 90 l 1
 480 90 l 1
 480 0 l 1
 435 0 l 2
 265 0 236 5 120 62 c 1
 120 45 l 2
 120 33 115 21 107 13 c 0
 99 5 87 0 75 0 c 2
 0 0 l 1
 0 90 l 1
 30 90 l 1
 30 215 l 1
 25 213 20 212 15 212 c 2
 -30 212 l 1
EndSplineSet
Validated: 1
EndChar

StartChar: lslash
Encoding: 322 322 297
Width: 240
VWidth: 1076
Flags: W
HStem: 0 21G<0 81> 790 20G<69 150>
VStem: 30 120<720 796.622> 30 90<90 312 486 720>
LayerCount: 2
Fore
SplineSet
-30 309 m 1xd0
 -30 399 l 1
 0 399 l 1
 30 422 l 1xd0
 30 765 l 2
 30 777 35 789 43 797 c 0
 51 805 63 810 75 810 c 2
 150 810 l 1
 150 720 l 1xe0
 120 720 l 1
 120 486 l 1xd0
 125 488 130 489 135 489 c 2
 180 489 l 1
 180 399 l 1
 150 399 l 1xe0
 120 376 l 1
 120 45 l 2
 120 33 115 21 107 13 c 0
 99 5 87 0 75 0 c 2
 0 0 l 1
 0 90 l 1
 30 90 l 1
 30 312 l 1
 25 310 20 309 15 309 c 2
 -30 309 l 1xd0
EndSplineSet
Validated: 1
EndChar

StartChar: napostrophe
Encoding: 329 329 304
Width: 480
VWidth: 1076
Flags: W
HStem: 0 90<120 150 360 390> 475 20<0 80.5 190 201.5> 790 20G<62.5 150>
VStem: 30 90<90 382> 30 120<720 803.519> 270 90<90 382>
LayerCount: 2
Fore
SplineSet
0 565 m 1xf4
 -0 655 l 1
 30 655 l 1
 30 765 l 2
 30 790 50 810 75 810 c 2
 150 810 l 1
 150 720 l 1xec
 120 720 l 1
 120 610 l 2
 120 585 100 565 75 565 c 2
 0 565 l 1xf4
EndSplineSet
Refer: 14 110 N 1 0 0 1 0 0 2
Validated: 1
EndChar

